<?xml version="1.0" standalone="no"?>
<!DOCTYPE svg PUBLIC "-//W3C//DTD SVG 1.1//EN" "http://www.w3.org/Graphics/SVG/1.1/DTD/svg11.dtd" >
<svg xmlns="http://www.w3.org/2000/svg" xmlns:xlink="http://www.w3.org/1999/xlink" version="1.1">
<metadata>
Created by FontForge 20150318 at Tue Jun  9 22:45:30 2015
 By uniteet7
(c) Copyright 2010, Carter &#38; Cone Type, Inc. and The Font Bureau, Inc.
</metadata>
<defs>
<font id="millerbannerregularbold" horiz-adv-x="1024" >
  <font-face 
    font-family="millerbannerregularbold"
    font-weight="700"
    font-stretch="normal"
    units-per-em="2048"
    panose-1="2 0 5 4 9 0 0 2 0 3"
    ascent="1565"
    descent="-483"
    x-height="946"
    cap-height="1399"
    bbox="-336 -496 2521 1943"
    underline-thickness="20"
    underline-position="-113"
    unicode-range="U+000D-FB04"
  />
<missing-glyph horiz-adv-x="410" 
 />
    <glyph glyph-name="uniFB00" unicode="ff" horiz-adv-x="1270" 
d="M-29 913v33h197v23q0 125 31 224t108 179q65 66 148.5 105t197.5 39q58 0 102.5 -10t76.5 -26.5t53 -38.5t33 -46q63 62 144.5 98.5t192.5 36.5q84 0 138.5 -19.5t87 -50t45 -68t12.5 -73.5q0 -23 -10 -48.5t-28.5 -46.5t-46.5 -34.5t-64 -13.5q-24 0 -50.5 6.5
t-48.5 21.5t-36.5 38t-14.5 56q0 36 14 77.5t23 86.5q0 19 -16.5 32t-36.5 13q-79 0 -115 -101t-43 -300q-1 -15 -1 -42v-53q0 -31 1 -65h250v-33h-248v-784q0 -32 13.5 -55.5t41.5 -34.5q12 -5 29 -9t35.5 -7.5t36 -5.5t30.5 -3v-14h-585v14q24 2 44.5 8.5t32.5 18.5
q14 12 19.5 31.5t5.5 48.5v792h-305v-784q0 -32 6.5 -53t22.5 -33q26 -20 84 -29v-14h-551v14q26 2 47 5.5t41 11.5q53 20 53 90v792h-197zM462 989q0 -21 1 -43h307v37q0 50 4.5 93t13.5 85q-24 0 -51 7t-49 21.5t-36.5 38t-14.5 56.5q0 35 14 77t23 87q0 19 -16.5 32
t-36.5 13q-39 0 -67.5 -30t-47 -86t-29 -136t-14.5 -180q-1 -15 -1 -34.5v-37.5z" />
    <glyph glyph-name="uniFB01" unicode="fi" horiz-adv-x="1202" 
d="M-29 913v33h197v37q0 125 35.5 227.5t103.5 171.5q31 31 70.5 58.5t89.5 47t111.5 31t136.5 11.5q94 0 159.5 -17.5t106.5 -47.5t59.5 -70.5t18.5 -85.5q0 -23 -9.5 -50t-28.5 -50t-47 -38.5t-65 -15.5q-32 0 -59 8.5t-47 25t-31.5 41.5t-11.5 58q0 35 9.5 77t18.5 87
q0 9 -8.5 18.5t-23 17t-34 12.5t-40.5 5q-102 0 -156.5 -109t-62.5 -321q-1 -15 -1 -37v-42q0 -24 1 -50h278l310 17l8 -9v-829q0 -32 10.5 -55t38.5 -37q22 -11 45.5 -14t48.5 -5v-14h-547v14q57 3 80 23q16 14 21.5 34.5t5.5 49.5v692q0 66 -49 100h-248v-790
q0 -46 14 -70q13 -20 37 -26t59 -13v-14h-548v14q26 2 47 5.5t41 11.5q53 20 53 90v792h-197z" />
    <glyph glyph-name="uniFB02" unicode="fl" horiz-adv-x="1200" 
d="M-29 913v33h197v37q0 62 7.5 117.5t24 105.5t43 94t64.5 84q31 32 68 59t80 46.5t92 30t106 10.5q53 0 102.5 -10t84.5 -29l207 37l8 -8v-1395q0 -69 53 -92q22 -10 41 -13t47 -6v-14h-539v14q54 3 78 21q16 12 20.5 33.5t4.5 52.5v1038q-25 14 -47.5 47t-22.5 76
q0 24 6 42.5t15 34.5t20 30.5t21 29.5q-19 42 -46 65t-65 23q-39 0 -70.5 -17t-54 -59t-36 -113.5t-17.5 -180.5q-1 -15 -1 -46.5v-63.5q0 -38 1 -81h209v-33h-207v-790q0 -26 5 -47.5t24 -36.5q12 -11 32.5 -15.5t51.5 -9.5v-14h-551v14q26 2 47 5.5t41 11.5q53 20 53 90
v792h-197z" />
    <glyph glyph-name="uniFB03" unicode="ffi" horiz-adv-x="1798" 
d="M-29 913v33h197v23q0 125 31 224t108 179q65 66 148.5 105t197.5 39q58 0 102.5 -10t76.5 -27t53 -39.5t33 -46.5q63 62 166 99.5t233 37.5q94 0 159.5 -17.5t106.5 -47.5t59.5 -70.5t18.5 -85.5q0 -23 -9.5 -50t-28.5 -50t-47 -38.5t-65 -15.5q-32 0 -59 8.5t-47 25
t-31.5 41.5t-11.5 58q0 35 9.5 77t19.5 87q0 9 -8.5 18.5t-23.5 17t-34.5 12.5t-40.5 5q-102 0 -156.5 -109t-62.5 -321q-1 -15 -1 -37v-42q0 -24 1 -50h278l310 17l8 -9v-829q0 -32 10.5 -55t38.5 -37q22 -11 46 -14t48 -5v-14h-547v14q57 3 80 23q16 14 21.5 34.5
t5.5 49.5v692q0 67 -49 100h-248v-790q0 -46 14 -70q13 -20 37 -26t60 -13v-14h-510v14q24 2 44.5 8.5t32.5 18.5q14 12 19.5 31.5t5.5 48.5v792h-305v-784q0 -32 6.5 -53t22.5 -33q26 -20 84 -29v-14h-551v14q26 2 47 5.5t41 11.5q53 20 53 90v792h-197zM462 989
q0 -21 1 -43h307v37q0 50 5.5 93t15.5 85q-25 0 -52 7t-49.5 21.5t-37.5 38t-15 56.5q0 35 14 77t23 87q0 19 -16.5 32t-36.5 13q-39 0 -67.5 -30t-47 -86t-29 -136t-14.5 -180q-1 -15 -1 -34.5v-37.5z" />
    <glyph glyph-name="uniFB04" unicode="ffl" horiz-adv-x="1802" 
d="M-29 913v33h197v23q0 125 31 224t108 179q65 66 148.5 105t197.5 39q58 0 102.5 -10t76.5 -27t53 -39.5t33 -46.5q63 62 144.5 99.5t192.5 37.5q53 0 102.5 -10t84.5 -29l207 37l8 -8v-1395q0 -69 53 -92q22 -10 41 -13t47 -6v-14h-538v14q53 3 77 21q16 12 20.5 33.5
t4.5 52.5v1038q-25 14 -47.5 47t-22.5 76q0 24 6 42.5t15 34.5t20 30.5t21 29.5q-19 42 -46 65t-65 23q-39 0 -70.5 -17t-54 -59t-36 -113.5t-17.5 -180.5q-1 -15 -1 -46.5v-63.5q0 -38 1 -81h209v-33h-207v-790q0 -46 14 -70q13 -20 37 -26t60 -13v-14h-510v14
q24 2 44.5 8.5t32.5 18.5q14 12 19.5 31.5t5.5 48.5v792h-305v-784q0 -32 6.5 -53t22.5 -33q26 -20 84 -29v-14h-551v14q26 2 47 5.5t41 11.5q53 20 53 90v792h-197zM462 989q0 -21 1 -43h307v37q0 50 5 94t16 84q-25 0 -52 7t-49.5 21.5t-37.5 38t-15 56.5q0 35 14 77
t23 87q0 19 -16.5 32t-36.5 13q-39 0 -67.5 -30t-47 -86t-29 -136t-14.5 -180q-1 -15 -1 -34.5v-37.5z" />
    <glyph glyph-name="f_j.liga" unicode="fj" horiz-adv-x="1171" 
d="M-29 913v33h197v37q0 125 35.5 227.5t103.5 171.5q31 31 70.5 58.5t89.5 47t111.5 31t136.5 11.5q94 0 159.5 -17.5t106.5 -47.5t59.5 -70.5t18.5 -85.5q0 -23 -9.5 -50t-28.5 -50t-47 -38.5t-65 -15.5q-32 0 -59 8.5t-47 25t-31.5 41.5t-11.5 58q0 35 9.5 77t18.5 87
q0 9 -8.5 18.5t-23 17t-34 12.5t-40.5 5q-102 0 -156.5 -109t-62.5 -321q-1 -15 -1 -37v-42q0 -24 1 -50h278l308 17l8 -9v-860q0 -64 -6 -121.5t-20.5 -109t-39 -96.5t-61.5 -84q-30 -32 -65.5 -59.5t-76.5 -47.5t-87.5 -31.5t-98.5 -11.5q-83 0 -135.5 17.5t-82.5 45.5
t-41 64t-11 72q0 21 9.5 46t28 47t45.5 37t62 15q23 0 49 -7t47.5 -23t35.5 -40.5t14 -58.5q0 -20 -3.5 -44.5t-9 -49.5t-11.5 -49.5t-11 -44.5q8 -2 18.5 -3t14.5 -1q43 0 70 27.5t42.5 82t21 135.5t5.5 187l2 825q0 66 -49 100h-248v-790q0 -46 14 -70q13 -20 37 -26
t59 -13v-14h-548v14q26 2 47 5.5t41 11.5q53 20 53 90v792h-197z" />
    <glyph glyph-name="f_t.liga" unicode="ft" horiz-adv-x="1317" 
d="M-29 913v33h197v37q0 125 31 224t108 179q65 67 148.5 105.5t197.5 38.5q84 0 138.5 -19.5t87 -50t45 -68t12.5 -73.5q0 -19 -6 -39t-19 -39h144v-295h258v-33h-258v-653q0 -31 5.5 -60.5t19 -53t36.5 -38t58 -14.5q36 0 62 17.5t43 45t25.5 62t10.5 68.5h24
q-2 -62 -18 -119t-51.5 -100.5t-91 -69t-136.5 -25.5q-141 0 -211.5 78t-70.5 215v647h-295v-788q0 -32 13.5 -55.5t41.5 -34.5q12 -5 29 -8.5t35 -6t36 -4t31 -2.5v-14h-624v14q26 2 47 5.5t41 11.5q53 20 53 90v792h-197zM462 1011q0 -31 1 -65h301v230q-22 3 -44.5 11.5
t-41 23.5t-30 36.5t-11.5 50.5q0 36 14 77.5t23 86.5q0 19 -16.5 32t-36.5 13q-79 0 -115 -101t-43 -300q-1 -15 -1 -42v-53z" />
    <glyph glyph-name=".notdef" horiz-adv-x="410" 
 />
    <glyph glyph-name="glyph1" horiz-adv-x="0" 
 />
    <glyph glyph-name="uni000D" unicode="&#xd;" horiz-adv-x="410" 
 />
    <glyph glyph-name="glyph3" horiz-adv-x="0" 
 />
    <glyph glyph-name="glyph3" horiz-adv-x="0" 
 />
    <glyph glyph-name="space" unicode=" " horiz-adv-x="410" 
 />
    <glyph glyph-name="exclam" unicode="!" horiz-adv-x="670" 
d="M160 150q0 37 13.5 68.5t37.5 55t55.5 37t67.5 13.5t68 -13.5t56 -37t38 -55t14 -68.5t-14 -68.5t-38 -55t-56 -36.5t-68 -13t-67.5 13t-55.5 36.5t-37.5 55t-13.5 68.5zM166 1264q0 34 11 65.5t32.5 55t53 37.5t71.5 14t71.5 -14t53.5 -37.5t33.5 -55t11.5 -65.5
q0 -59 -16.5 -141t-41.5 -184.5t-53 -224t-51 -257.5h-18q-22 136 -49.5 257.5t-51.5 224t-40.5 184.5t-16.5 141z" />
    <glyph glyph-name="quotedbl" unicode="&#x22;" horiz-adv-x="823" 
d="M68 1372q0 25 10 50t28.5 44t45 31t59.5 12t59.5 -12t45 -31t28.5 -44t10 -50q0 -22 -14 -63.5t-35 -95.5t-44.5 -117.5t-41.5 -128.5h-20q-18 66 -40.5 128.5t-42.5 116t-34 95t-14 65.5zM469 1372q0 25 10 50t28.5 44t45 31t59.5 12t59.5 -12t45.5 -31t29 -44t10 -50
q0 -22 -14 -63.5t-35 -95.5t-44.5 -117.5t-41.5 -128.5h-21q-18 66 -40.5 128.5t-42.5 116t-34 95t-14 65.5z" />
    <glyph glyph-name="numbersign" unicode="#" horiz-adv-x="1069" 
d="M150 219v225l225 56v223l-225 -55v223l225 57v336h33v-326l256 64v262h32v-252l228 58v-226l-228 -57v-225l228 57v-223l-228 -58v-372h-32v362l-256 -63v-299h-33v288zM408 508l256 65v224l-256 -64v-225z" />
    <glyph glyph-name="dollar" unicode="$" horiz-adv-x="1235" 
d="M115 283q0 94 41 145t110 51q60 0 90.5 -34.5t30.5 -94.5q0 -40 -16 -60.5t-37.5 -33.5t-43 -24t-32.5 -31q0 -34 20.5 -64.5t55.5 -55t83 -41.5t103 -24v500q-81 9 -150 34.5t-120 70.5t-80 110.5t-29 155.5q0 71 25 133t73 111t118.5 82t162.5 47v200h37v-196
q11 2 36 4t48 2h40t38 -2v192h37v-194q85 -10 147.5 -35t103 -59.5t60.5 -76.5t20 -85q0 -36 -8 -68.5t-24 -57t-40.5 -39t-56.5 -14.5q-23 0 -44.5 7t-38.5 21t-27 35t-10 50q0 36 14.5 59.5t33 42t36 36.5t24.5 42q-4 15 -19 32.5t-39.5 33.5t-58 28.5t-73.5 18.5v-461
q77 -14 144.5 -38t118 -68.5t80 -113t29.5 -171.5q0 -56 -19 -116t-62.5 -114t-115 -96t-175.5 -61v-289h-37v283q-28 -3 -57.5 -4.5t-55.5 -1.5h-49v-277h-37v281q-92 8 -167 32.5t-128 62.5t-81.5 88t-28.5 110zM360 1001q0 -50 12.5 -84.5t34.5 -57.5t51 -35.5t62 -18.5
v422q-37 -9 -66.5 -32t-50.5 -53.5t-32 -67t-11 -73.5zM557 12h51q29 0 59 2.5t52 5.5v474q-16 2 -36.5 4.5t-42.5 5t-43.5 4.5t-39.5 4v-500zM557 799q15 -2 36.5 -4t44 -4.5t44 -5.5t37.5 -5v461q-13 2 -31 2h-31q-17 0 -47.5 -2.5t-52.5 -5.5v-436zM756 31
q88 29 123.5 96t35.5 158q0 48 -11 83t-31.5 59t-50 38.5t-66.5 21.5v-456z" />
    <glyph glyph-name="percent" unicode="%" horiz-adv-x="1780" 
d="M92 920q0 76 29.5 141t79.5 111.5t115 73t137 26.5q76 0 143 -21t117.5 -64t80 -109t29.5 -156q0 -72 -29.5 -134t-80 -108.5t-117.5 -73t-143 -26.5q-77 0 -143 22t-114.5 65t-76 106.5t-27.5 146.5zM303 928q0 -67 7.5 -126t25.5 -103.5t48 -70.5t75 -26q34 0 62 23.5
t47 65.5t29.5 100t10.5 127q0 72 -8 132.5t-26.5 105t-47.5 69t-71 24.5t-71 -26t-47 -70t-26 -102.5t-8 -122.5zM424 -174l874 1585l52 -25l-881 -1583zM954 311q0 76 30 140.5t80.5 112t116 74t136.5 26.5q75 0 142.5 -21t118.5 -64t80.5 -109t29.5 -157q0 -71 -29.5 -133
t-80 -108t-118 -72.5t-143.5 -26.5q-77 0 -143.5 21.5t-115 64.5t-76.5 106t-28 146zM1167 319q0 -66 7.5 -125t25.5 -103.5t48 -70.5t75 -26q34 0 61.5 23.5t47 65.5t30.5 100t11 126q0 72 -8.5 132.5t-27 105t-47.5 69.5t-71 25t-71 -26.5t-47 -71t-26 -102.5t-8 -122z
" />
    <glyph glyph-name="ampersand" unicode="&#x26;" horiz-adv-x="1542" 
d="M63 305q0 77 26 138.5t74 112.5t115.5 94t151.5 83q-21 31 -49.5 76.5t-54.5 97.5t-44 105.5t-18 99.5q0 70 29 128t83.5 99.5t132 64.5t175.5 23q65 0 113.5 -19t80.5 -53.5t48 -82t16 -105.5q0 -91 -64 -171t-173 -148q78 -118 162.5 -228.5t170.5 -222.5q32 44 63 97
t55 105t39 98t15 77q0 32 -52 52.5t-159 41.5v15h557v-15q-88 -9 -146.5 -36t-90.5 -64q-18 -20 -47 -65.5t-64.5 -102t-74.5 -117t-76 -110.5q37 -44 74.5 -89t73 -84.5t67 -70t55.5 -45.5q27 -16 48 -27.5t42 -19.5t45.5 -13t59.5 -8v-16h-521l-127 152q-37 -37 -80 -70.5
t-91 -59t-100.5 -40.5t-106.5 -15q-87 0 -165.5 20t-138 61t-94.5 105t-35 152zM381 391q0 -75 16 -134t45.5 -99t70.5 -61t91 -21q38 0 74.5 7.5t69.5 20t61 30t49 38.5q-59 74 -120.5 153.5t-117 152.5t-100.5 133t-69 94q-17 -26 -30 -60t-22 -74.5t-13.5 -86t-4.5 -93.5
zM547 1198q0 -35 12 -74.5t32.5 -82t46.5 -86t54 -85.5q46 30 76 64.5t48 72.5t25 78.5t7 83.5q0 50 -9.5 93.5t-29 75t-49 49.5t-68.5 18q-30 0 -56.5 -14.5t-46 -41.5t-31 -65t-11.5 -86z" />
    <glyph glyph-name="quotesingle" unicode="'" horiz-adv-x="422" 
d="M68 1372q0 25 10 50t28.5 44t45 31t59.5 12t59.5 -12t45 -31t28.5 -44t10 -50q0 -22 -14 -63.5t-35 -95.5t-44.5 -117.5t-41.5 -128.5h-20q-18 66 -40.5 128.5t-42.5 116t-34 95t-14 65.5z" />
    <glyph glyph-name="parenleft" unicode="(" horiz-adv-x="717" 
d="M94 608q0 122 29.5 244.5t91 240.5t155.5 229t222 210l74 -33q-122 -93 -211.5 -199.5t-148 -219.5t-87 -231t-29.5 -233q-2 -128 27.5 -252t89.5 -240t151.5 -221t215.5 -194l-80 -37q-118 84 -211 190t-157 226.5t-98 252t-34 267.5z" />
    <glyph glyph-name="parenright" unicode=")" horiz-adv-x="717" 
d="M43 -291q124 89 215.5 194t151.5 221t88.5 240t27.5 252q-1 115 -29.5 233t-86.5 231t-147.5 219.5t-211.5 199.5l74 33q128 -99 222 -210t155.5 -229t91 -240.5t29.5 -244.5q0 -136 -34 -267.5t-98 -252t-157 -226.5t-211 -190z" />
    <glyph glyph-name="asterisk" unicode="*" horiz-adv-x="793" 
d="M116.5 1228.5q-11.5 26.5 10.5 61.5q22 32 51.5 31t50.5 -23q17 -14 36 -35t39.5 -43.5t42 -44t42.5 -36.5q-3 29 -12 61.5t-18.5 63t-17 58t-7.5 46.5q0 32 16 50t51 18q38 0 54 -20t16 -46q0 -19 -8 -46.5t-18.5 -59t-20.5 -64t-14 -61.5q21 16 42 38t40.5 44.5t38 43
t34.5 33.5q29 25 56.5 20t44.5 -34q20 -37 5.5 -61t-46.5 -35q-20 -8 -45 -14.5t-53 -13.5t-57 -15.5t-56 -20.5q51 -20 103.5 -31t105.5 -28q38 -12 51 -42t-10 -65q-23 -30 -50.5 -28.5t-50.5 22.5q-17 15 -35 36t-37.5 43t-39.5 43.5t-41 37.5q3 -26 13 -58t20.5 -63.5
t19 -60t8.5 -47.5q0 -28 -18 -48t-52 -20q-35 0 -51 19.5t-16 48.5q0 21 8 49t18 59t18.5 62.5t10.5 58.5q-21 -15 -41.5 -36.5t-39.5 -44t-36.5 -43t-33.5 -34.5q-28 -23 -57 -20.5t-48 33.5q-11 18 -11.5 33.5t6.5 28t20 22t30 14.5q47 15 99 25.5t108 33.5
q-56 23 -110 35.5t-107 28.5q-40 14 -51.5 40.5z" />
    <glyph glyph-name="plus" unicode="+" horiz-adv-x="1159" 
d="M86 481v101h440v444h105v-444h442v-101h-442v-442h-105v442h-440z" />
    <glyph glyph-name="comma" unicode="," horiz-adv-x="551" 
d="M84 172q0 29 11 58t31.5 52t50.5 37.5t69 14.5q59 0 101 -21t68.5 -58t39 -89t12.5 -113t-25 -123t-70 -118t-107.5 -103t-137.5 -78l-10 21q102 49 163 140.5t70 207.5h-65q-59 0 -98 15.5t-62 40t-32 55t-9 61.5z" />
    <glyph glyph-name="hyphen" unicode="-" horiz-adv-x="811" 
d="M72 410v215h667v-215h-667z" />
    <glyph glyph-name="period" unicode="." horiz-adv-x="551" 
d="M92 154q0 38 14.5 71t40 57t58.5 38t71 14t71.5 -14t59 -38t40 -57t14.5 -71q0 -39 -14.5 -72t-40 -57t-59 -38t-71.5 -14t-71 14t-58.5 38t-40 57t-14.5 72z" />
    <glyph glyph-name="slash" unicode="/" horiz-adv-x="831" 
d="M61 -408l639 1948l68 -20l-641 -1948z" />
    <glyph glyph-name="zero" unicode="0" horiz-adv-x="1288" 
d="M61 592q0 158 49.5 284t132 214t189.5 135t223 47q139 0 246 -50t179.5 -135.5t109.5 -199t37 -240.5q0 -158 -49 -283.5t-131 -214t-190 -135.5t-226 -47q-138 0 -244.5 50.5t-179 136.5t-109.5 199.5t-37 238.5zM406 618q0 -128 10 -242.5t36 -200t71 -135.5t116 -50
q62 0 108 46.5t76 130.5t45 200t15 254q0 124 -10 237.5t-36.5 200.5t-72 138.5t-117.5 51.5q-61 0 -106 -46.5t-75 -130t-45 -199.5t-15 -255z" />
    <glyph glyph-name="one" unicode="1" horiz-adv-x="879" 
d="M53 1081v17q40 5 73 9.5t67.5 10.5t75 14.5t96.5 22.5q92 23 157.5 51t110.5 56h20q-12 -70 -15 -150.5t-3 -173.5v-799q0 -42 15.5 -64t43.5 -34q12 -5 32.5 -9.5t44 -8.5t45 -6t34.5 -3v-14h-764v14q14 1 36 3t45.5 5.5t46.5 7.5t38 9q28 8 47.5 32t19.5 58v969
q-66 -6 -133 -10.5t-133 -6.5z" />
    <glyph glyph-name="two" unicode="2" horiz-adv-x="1182" 
d="M70 0v125q111 80 233.5 169.5t241.5 194.5q64 58 109.5 116t73.5 120t41 129t13 143q0 56 -12 102t-36 79t-61 51t-87 18q-68 0 -119 -37t-85 -94t-51.5 -125.5t-17.5 -130.5q0 -89 38 -127.5t98 -38.5q37 0 66.5 11.5t53.5 29t42.5 37t33.5 35.5l12 -10q-22 -39 -53 -79
t-71.5 -71.5t-90 -51.5t-108.5 -20q-64 0 -113 18.5t-82 51.5t-50 78t-17 98q0 85 42.5 166t118 144.5t179 102t225.5 38.5q94 0 177 -22.5t145 -65t97.5 -103.5t35.5 -139q0 -100 -52 -185t-145.5 -161t-224.5 -146.5t-289 -140.5l-88 -65h627q40 0 71.5 19.5t56.5 49.5
t44 65.5t34 67.5l17 -6l-127 -440h-946z" />
    <glyph glyph-name="three" unicode="3" horiz-adv-x="1141" 
d="M12 229q0 54 17.5 95.5t47.5 70t70 43.5t84 15q37 0 66 -11t48.5 -28.5t29.5 -40t10 -45.5q0 -33 -11.5 -57t-29.5 -43.5t-38 -34.5t-38 -29.5t-29.5 -30.5t-11.5 -35q0 -20 11 -43t35.5 -42.5t65 -32.5t99.5 -13q67 0 125 29.5t100.5 85.5t66.5 138.5t24 187.5
q0 58 -7 102.5t-24 74.5t-44.5 45t-68.5 15q-27 0 -53.5 -10.5t-52.5 -27.5t-50.5 -38t-47.5 -43l-33 47q81 52 147.5 96.5t113 93t72 106t25.5 135.5q0 114 -42.5 177.5t-121.5 63.5q-57 0 -99 -25t-69.5 -63t-41 -83.5t-13.5 -86.5q0 -40 9 -69t24.5 -47.5t37 -27.5
t46.5 -9q42 0 72.5 21t56.5 52l12 -12q-18 -30 -48 -61.5t-66 -57t-75 -41.5t-73 -16q-115 0 -175.5 56.5t-60.5 150.5q0 73 42 135.5t114.5 109t171 73t211.5 26.5q100 0 178 -18.5t132 -53t82 -84t28 -110.5q0 -135 -117 -212.5t-356 -103.5l-27 -24q4 1 19 2.5t32.5 3
t32.5 3t21 1.5q44 0 92.5 -5.5t96 -18.5t90.5 -34t75.5 -52.5t52 -74t19.5 -98.5q0 -107 -52.5 -190t-140.5 -140t-202 -86.5t-238 -29.5q-91 0 -172.5 17t-143 51.5t-97.5 88t-36 127.5z" />
    <glyph glyph-name="four" unicode="4" horiz-adv-x="1219" 
d="M20 414v41l680 831h174v-811h123q32 0 59 16t40 44q11 23 19.5 56.5t10.5 61.5h17v-432h-17q-1 14 -3 31.5t-5 35t-6.5 33.5t-7.5 27q-9 28 -35.5 47t-60.5 19h-134v-277q0 -31 16 -58.5t44 -39.5q12 -5 29.5 -9t37 -7t38 -4.5t32.5 -2.5v-16h-723v16q14 1 34.5 2.5
t42.5 4t41 5.5t30 7q27 9 46 36.5t19 61.5v281h-541zM82 475h479v584z" />
    <glyph glyph-name="five" unicode="5" horiz-adv-x="1096" 
d="M27 231q0 45 14 79t37.5 56t53 33t61.5 11t59.5 -10t47.5 -27.5t31 -41t11 -50.5q0 -39 -8 -68t-19 -52.5t-24 -43.5t-23 -41q2 -17 18 -32.5t40 -27.5t54 -19t60 -7q55 0 100 36.5t76.5 97t48.5 138.5t17 162q0 75 -13.5 135.5t-41.5 103t-71 65t-101 22.5
q-42 0 -87.5 -16t-86.5 -42.5t-75 -61t-54 -71.5l-29 8l156 695h24q11 -12 47 -26t86.5 -26t110.5 -20t119 -8q54 0 109 4.5t107 15t97 28.5t78 44l14 -12q-62 -95 -134 -157.5t-152.5 -99.5t-166.5 -52t-174 -15q-18 0 -50 1t-64 2.5t-58 2.5t-30 2l-72 -315q21 21 50 47.5
t73 50t106 39.5t150 16q101 0 188.5 -24t151.5 -70.5t100.5 -114.5t36.5 -157q0 -112 -43 -196t-120 -139.5t-184.5 -83.5t-236.5 -28q-81 0 -156 15t-132.5 46.5t-92 81t-34.5 117.5z" />
    <glyph glyph-name="six" unicode="6" horiz-adv-x="1182" 
d="M74 575q0 117 24.5 226.5t69.5 205t108.5 174t141.5 135t168.5 87.5t189.5 31q91 0 153.5 -24t101.5 -60t56 -79t17 -81q0 -71 -39 -107t-102 -36q-59 0 -94 19.5t-55 55t-28 85t-12 108.5q-2 21 -5 38t-10.5 28.5t-21 17.5t-35.5 6q-41 0 -77 -26t-67 -72.5
t-57.5 -110.5t-47 -140t-35 -161.5t-23.5 -173.5l8 -4q65 93 147.5 132.5t176.5 39.5q78 0 148 -30t122 -86.5t82.5 -137.5t30.5 -184q0 -52 -11 -108.5t-36.5 -110t-66.5 -102t-100.5 -84.5t-139 -57.5t-181.5 -21.5q-103 0 -194 40.5t-159.5 118t-108 190.5t-39.5 259z
M391 403q0 -90 13 -165.5t37.5 -130t60 -85t80.5 -30.5q47 0 79.5 22t54 58.5t34 83.5t18 96.5t7 98.5t1.5 89q0 81 -10.5 150t-33 119t-58 78t-86.5 28q-89 0 -143 -103t-54 -309z" />
    <glyph glyph-name="seven" unicode="7" horiz-adv-x="995" 
d="M37 737l135 594h12l37 -114h828v-23q-51 -65 -89.5 -119.5t-70.5 -109.5t-61.5 -114.5t-63.5 -133.5q-57 -127 -95 -308t-51 -413q-6 -128 -51.5 -186t-124.5 -58q-68 0 -111.5 41.5t-43.5 130.5q0 99 54.5 234t164.5 305q47 72 88.5 132.5t83.5 118.5t86.5 118.5
t97.5 132.5h-579q-33 0 -61 -10t-55 -36t-54 -71t-58 -115z" />
    <glyph glyph-name="eight" unicode="8" horiz-adv-x="1157" 
d="M66 274q0 56 24 101t63.5 80t90 62t104.5 48q-67 31 -113 68t-74.5 78.5t-41.5 88t-13 97.5q0 81 39 151.5t106 123t155.5 82.5t187.5 30q96 0 177 -20.5t140 -58t92 -89.5t33 -115q0 -51 -24.5 -92t-60.5 -72t-78 -53t-76 -36q83 -37 141 -75t94.5 -80t53 -91t16.5 -107
q0 -98 -42.5 -177.5t-117.5 -136t-177 -87.5t-222 -31q-102 0 -189.5 22.5t-151.5 63.5t-100 98t-36 127zM285 283q0 -59 20.5 -112.5t59.5 -93.5t96 -63.5t131 -23.5q72 0 126.5 22.5t91 58.5t55 81t18.5 90q0 81 -66.5 134.5t-208.5 94.5q-29 9 -61.5 20t-64 22t-59.5 22
t-48 20q-21 -26 -37.5 -53t-28.5 -59t-18 -71t-6 -89zM317 1038q0 -37 17.5 -66.5t49 -54t76.5 -45t99 -38.5q27 -9 56 -19.5t57 -20.5t53.5 -19t44.5 -15q15 21 27.5 41.5t21 45t13 56t4.5 74.5q0 53 -15.5 103.5t-48 89.5t-81.5 63t-116 24q-72 0 -121.5 -20t-79.5 -51.5
t-43.5 -70.5t-13.5 -77z" />
    <glyph glyph-name="nine" unicode="9" horiz-adv-x="1182" 
d="M37 12q0 32 12 59.5t33.5 47.5t52.5 31.5t70 11.5q49 0 78 -19.5t45.5 -53t25 -78t17.5 -93.5q8 -46 26 -74t60 -28q47 0 87.5 27.5t74 76t60 115t47 144.5t35 164t23.5 175l-8 2q-65 -95 -147 -132.5t-176 -37.5q-78 0 -148 29.5t-122 85.5t-82.5 137t-30.5 184
q0 52 11.5 108.5t37 110.5t66.5 102.5t100.5 85t139 58t181.5 21.5q103 0 194.5 -40t159.5 -117.5t108 -190.5t40 -260q0 -124 -25.5 -237.5t-72.5 -211t-113 -177t-146.5 -136t-173 -87t-192.5 -30.5q-86 0 -151 17.5t-109 48t-66 72t-22 89.5zM408 797q0 -83 11.5 -152
t34.5 -118t58 -76t82 -27q43 0 79 25.5t62.5 76.5t41 128.5t14.5 181.5q0 91 -14 166.5t-39.5 130t-60.5 84.5t-77 30q-46 0 -78 -21.5t-53.5 -57.5t-33.5 -83t-18 -97t-7.5 -99.5t-1.5 -91.5z" />
    <glyph glyph-name="colon" unicode=":" horiz-adv-x="610" 
d="M129 150q0 37 14 68.5t38 55t56 37t68 13.5q35 0 66.5 -13.5t55.5 -37t38 -55t14 -68.5t-14 -68.5t-38 -55t-55.5 -36.5t-66.5 -13q-36 0 -68 13t-56 36.5t-38 55t-14 68.5zM129 778q0 36 14 67.5t38 54.5t56 36.5t68 13.5q35 0 66.5 -13.5t55.5 -36.5t38 -54.5t14 -67.5
q0 -37 -14 -68.5t-38 -55t-55.5 -37t-66.5 -13.5q-36 0 -68 13.5t-56 37t-38 55t-14 68.5z" />
    <glyph glyph-name="semicolon" unicode=";" horiz-adv-x="610" 
d="M121 166q0 28 11 55.5t31 50t49.5 36.5t66.5 14q53 0 92.5 -19t65.5 -53.5t39 -83t13 -107.5q0 -75 -29.5 -142.5t-77 -124.5t-108 -101t-122.5 -72l-11 19q51 27 92.5 65t72 84.5t48.5 101t23 113.5h-70q-54 0 -90 14.5t-57.5 37.5t-30 52.5t-8.5 59.5zM129 778
q0 36 14 67.5t38 54.5t56 36.5t68 13.5q35 0 66.5 -13.5t55.5 -36.5t38 -54.5t14 -67.5q0 -37 -14 -68.5t-38 -55t-55.5 -37t-66.5 -13.5q-36 0 -68 13.5t-56 37t-38 55t-14 68.5z" />
    <glyph glyph-name="less" unicode="&#x3c;" horiz-adv-x="1159" 
d="M119 492v81l905 426v-104l-774 -363l774 -362v-104z" />
    <glyph glyph-name="equal" unicode="=" horiz-adv-x="1159" 
d="M127 313v101h905v-101h-905zM127 651v101h905v-101h-905z" />
    <glyph glyph-name="greater" unicode="&#x3e;" horiz-adv-x="1159" 
d="M135 66v104l772 362l-772 363v104l905 -426v-81z" />
    <glyph glyph-name="question" unicode="?" horiz-adv-x="1032" 
d="M70 1161q0 53 33 102t90 86.5t135 60t168 22.5q100 0 184 -27t145 -78.5t95 -126.5t34 -170q0 -101 -36 -183.5t-102 -142.5t-160 -95.5t-210 -41.5l-10 -141h-24l-9 381q132 14 204.5 88.5t72.5 220.5q0 62 -10.5 115.5t-33.5 93t-60.5 62t-92.5 22.5q-26 0 -51 -5
t-46.5 -13.5t-38 -19t-25.5 -21.5q9 -16 21 -37.5t23.5 -46.5t19 -51.5t7.5 -51.5q0 -78 -44 -124t-120 -46q-41 0 -71 13t-49.5 35.5t-29 53.5t-9.5 66zM258 152q0 37 14 69.5t38 57t56.5 39t69.5 14.5t69.5 -14.5t56.5 -39t38 -57t14 -69.5t-14 -69.5t-38 -57t-56.5 -38.5
t-69.5 -14t-69.5 14t-56.5 38.5t-38 57t-14 69.5z" />
    <glyph glyph-name="at" unicode="@" horiz-adv-x="2105" 
d="M193 367q0 148 39.5 277.5t109 238t164.5 194t206 144.5t234 90.5t248 31.5q144 0 266.5 -44.5t212 -129t140.5 -207t51 -278.5q0 -124 -35.5 -235.5t-97 -196t-145 -134.5t-179.5 -50q-47 0 -87.5 10.5t-71 31.5t-49 52.5t-19.5 73.5l-6 2q-22 -35 -47.5 -65
t-54.5 -52.5t-61.5 -35.5t-66.5 -13q-38 0 -77 14.5t-70.5 46.5t-51.5 83.5t-20 125.5q0 55 15.5 115.5t44.5 119.5t70.5 112.5t92.5 94t111 64.5t127 24q56 0 94 -34.5t47 -89.5h6l41 112h193l-195 -557q-9 -25 -16.5 -58t-7.5 -61q0 -38 18 -65t61 -27q68 0 137.5 44
t125.5 123.5t91.5 191t35.5 245.5q0 137 -48.5 245.5t-132 184.5t-196 116t-240.5 40q-90 0 -181.5 -27t-175.5 -80t-157 -130.5t-126.5 -178t-84.5 -223.5t-31 -266q0 -186 52.5 -325t144 -232t215 -139t266.5 -46q132 0 255.5 35t230.5 109.5t192.5 189t141.5 273.5l20 -6
q-53 -178 -146.5 -305.5t-214 -210t-261 -121.5t-287.5 -39q-118 0 -227.5 24.5t-205 72t-174 117t-135 159.5t-87.5 198.5t-31 235.5zM911 266q-1 -45 6 -74.5t18 -46.5t25 -23.5t27 -6.5q29 0 56 16t51.5 42t47 59.5t42.5 68.5l133 395q-14 82 -46.5 115t-78.5 33
q-39 0 -74.5 -28t-66.5 -75t-56.5 -107t-44 -124.5t-29 -127.5t-10.5 -116z" />
    <glyph glyph-name="A" unicode="A" horiz-adv-x="1399" 
d="M-74 0v14q28 3 57.5 5.5t55.5 19.5q38 25 65 66t50 94q13 29 39.5 90t61 142t75.5 176.5t82.5 194.5t82 195.5t75 179.5t61 147t39.5 97h114q18 -45 47.5 -120.5t65 -169.5t75.5 -199.5t79.5 -211t76.5 -203.5t67.5 -177.5t51 -134t27.5 -70.5q12 -31 28.5 -54.5
t53.5 -41.5q25 -12 53.5 -17t54.5 -8v-14h-755v14q26 2 63 6t71.5 11.5t58.5 19.5t24 31q0 12 -2.5 23.5t-5.5 19.5l-140 373h-456q-3 -8 -12 -30.5t-20.5 -51.5t-24 -61.5t-23.5 -61t-19 -49.5t-10 -27q-14 -40 -22.5 -73.5t-8.5 -53.5q0 -18 13 -30t34.5 -20t48.5 -12.5
t54 -7t51.5 -4t42.5 -2.5v-14h-500zM338 537h426l-205 530z" />
    <glyph glyph-name="B" unicode="B" horiz-adv-x="1386" 
d="M25 0v14q13 1 35 3t45.5 4t44 5t30.5 7q37 14 49.5 40t12.5 60v1127q0 34 -12.5 60t-49.5 42q-14 6 -35.5 9.5t-44 6t-43 3.5t-32.5 3v15h731q120 0 215 -16.5t161 -54t101 -97t35 -144.5q0 -73 -31 -128t-84.5 -95t-125 -65t-153.5 -37v-19q85 -2 168 -25.5t149 -69
t107 -113t41 -156.5q0 -107 -42 -179.5t-121.5 -117t-194 -63.5t-258.5 -19h-698zM582 106q8 -35 46 -60.5t103 -25.5q55 0 100.5 30t77 80.5t49 117t17.5 139.5q0 75 -20 137.5t-60 107.5t-98.5 70t-134.5 25q-9 0 -20 -0.5t-22.5 -1.5t-21.5 -2t-16 -2v-615zM582 754h39
q75 0 129.5 24.5t89.5 66.5t52 98.5t17 121.5q0 67 -17.5 124t-50 98.5t-77.5 65t-100 23.5q-17 0 -40.5 -1t-41.5 -3v-618z" />
    <glyph glyph-name="C" unicode="C" horiz-adv-x="1339" 
d="M43 684q0 111 24.5 209.5t70.5 182t111 150t146 113t176 71t201 24.5q60 0 118 -8t110 -20.5t97 -29.5t79 -35l59 76h22l9 -524h-25q-41 130 -92 227t-110 160.5t-124 95t-133 31.5q-96 0 -164 -52.5t-111 -145t-63 -218t-20 -272.5q0 -161 23 -286t71.5 -210.5
t123.5 -130.5t179 -45q79 0 149 23t130 66t109.5 104t88.5 137l23 -10q-34 -81 -86.5 -153.5t-124.5 -127t-163.5 -86t-203.5 -31.5q-146 0 -273.5 48.5t-222.5 140t-149.5 224.5t-54.5 302z" />
    <glyph glyph-name="D" unicode="D" horiz-adv-x="1556" 
d="M39 0v14q43 3 83 8t58 11q37 12 49.5 36t12.5 58v1137q0 34 -12.5 61t-49.5 39q-25 8 -64 12.5t-77 7.5v15h698q73 0 159 -13.5t172.5 -45.5t166.5 -85t142 -132t99 -186t37 -247q0 -119 -31 -216.5t-85.5 -174.5t-130 -133t-165 -93t-188.5 -55t-202 -18h-672zM584 154
q0 -66 42.5 -98.5t121.5 -32.5q103 0 176 47t118.5 134t66.5 211t21 277q0 155 -28.5 281.5t-82.5 216t-132 138t-176 48.5q-28 0 -63.5 -1t-63.5 -3v-1218z" />
    <glyph glyph-name="E" unicode="E" horiz-adv-x="1339" 
d="M39 0v14q43 3 83 8t58 11q37 12 49.5 36t12.5 58v1137q0 34 -12.5 61t-49.5 39q-25 8 -64 12.5t-77 7.5v15h1190v-367h-23q-8 23 -24 56t-39 68.5t-50 71.5t-56 65t-58.5 48t-56.5 23q-38 5 -83.5 7.5t-93.5 2.5h-161v-637h133q42 0 71.5 5.5t50.5 14.5t34.5 19.5
t23.5 20.5q16 16 32.5 44t30.5 59t24 61t13 51h23v-584h-23q-3 24 -14 57t-26 65.5t-31 60.5t-29 42q-11 12 -25 22.5t-35 19t-50.5 13.5t-69.5 5h-133v-514q0 -56 7.5 -90.5t31 -53t66 -24.5t112.5 -6q42 0 83 1t77.5 5.5t66 14.5t47.5 28q31 31 67 79.5t69 100t61 98.5
t43 76h18l-26 -428h-1268z" />
    <glyph glyph-name="F" unicode="F" horiz-adv-x="1243" 
d="M25 0v14q13 1 34.5 3t45 4t44 5t31.5 7q37 14 49.5 40t12.5 60v1131q0 34 -12 59t-50 41q-15 5 -36 8.5t-43.5 5.5t-42.5 3t-33 3v15h1220v-371h-18q-8 23 -23 54t-35.5 65t-44.5 68t-50 63t-53.5 50.5t-53.5 29.5q-35 10 -86 13t-99 3h-198v-645h131q41 0 70.5 5
t50.5 13t35 17.5t24 19.5q17 17 33.5 45.5t31 60.5t24.5 63t15 53h21v-592h-21q-6 24 -16 55t-23 63.5t-29.5 63t-35.5 51.5q-11 12 -25.5 23t-35.5 18.5t-50 12t-69 4.5h-131v-570q0 -34 13.5 -59.5t47.5 -40.5q9 -4 28.5 -7t41.5 -5.5t43.5 -5t36.5 -3.5v-14h-770z" />
    <glyph glyph-name="G" unicode="G" horiz-adv-x="1509" 
d="M43 682q0 170 55 308.5t154 237t235.5 152.5t300.5 54q61 0 120 -7t113 -20t101 -30t82 -36l68 76h20l8 -518h-24q-40 117 -90.5 211.5t-110.5 161t-127.5 102t-142.5 35.5q-104 0 -176.5 -51.5t-118 -143.5t-66 -218.5t-20.5 -276.5q0 -170 24 -304t68.5 -227
t108.5 -142.5t145 -49.5q43 0 83.5 11.5t74.5 33t60.5 53.5t41.5 74v305q-2 37 -15.5 65.5t-53.5 45.5q-15 7 -35 11t-40 6t-38.5 3t-30.5 2v17h715v-17q-29 -3 -60 -5t-59 -13q-37 -14 -49 -41.5t-12 -61.5v-503l-17 -7l-135 131q-48 -29 -102 -54t-114 -43.5t-125.5 -29
t-135.5 -10.5q-92 0 -178 19.5t-161.5 58t-138 97.5t-107.5 138.5t-70 179t-25 220.5z" />
    <glyph glyph-name="H" unicode="H" horiz-adv-x="1708" 
d="M39 0v14q43 3 83 8t58 11q37 12 49.5 36t12.5 58v1137q0 34 -12.5 61t-49.5 39q-25 8 -64 12.5t-77 7.5v15h749v-15q-13 -2 -32 -3.5t-39 -3.5t-39.5 -4.5t-32.5 -6.5q-37 -11 -49 -38.5t-12 -61.5v-518h540v516q0 34 -13 60t-48 40q-12 4 -30.5 7.5t-38.5 5.5t-39.5 3.5
t-32.5 3.5v15h747v-15q-37 -3 -75.5 -7.5t-63.5 -10.5q-38 -9 -51 -37.5t-13 -62.5v-1133q0 -34 13 -61t51 -39q9 -3 24.5 -6t34.5 -5t40 -4.5t40 -3.5v-14h-747v14q13 1 32.5 3t40 4.5t39 5.5t29.5 6q38 11 49.5 35.5t11.5 58.5v582h-540v-578q0 -34 13 -60t48 -38
q9 -3 26 -6t37 -5t41 -4.5t39 -3.5v-14h-749z" />
    <glyph glyph-name="I" unicode="I" horiz-adv-x="834" 
d="M39 0v14q21 1 43 3.5t41.5 4.5t35.5 5t25 6q37 12 49.5 36t12.5 58v1137q0 34 -12.5 61t-49.5 39q-12 4 -29 7t-36.5 5.5t-40 4t-39.5 3.5v15h756v-15q-13 -2 -32.5 -3.5t-40.5 -3.5t-40.5 -4.5t-32.5 -6.5q-37 -11 -49 -38.5t-12 -61.5v-1135q0 -34 13 -60t48 -38
q9 -3 26.5 -6t38 -5t42 -4.5t39.5 -3.5v-14h-756z" />
    <glyph glyph-name="J" unicode="J" horiz-adv-x="1077" 
d="M-18 219q0 91 53 141t141 50q85 0 131.5 -50.5t46.5 -140.5q0 -30 -10 -60t-28.5 -57t-44.5 -49t-58 -35v-10q14 -6 38 -11t40 -5q119 0 175 89.5t56 262.5v911q0 34 -14 60.5t-49 42.5q-14 6 -34.5 10t-42.5 7t-43 5t-36 4v15h766v-15q-15 -2 -34 -3t-38.5 -3t-38.5 -5
t-34 -7q-38 -12 -50 -39t-12 -61v-840q0 -112 -41 -198.5t-110.5 -145t-162 -89t-194.5 -30.5q-97 0 -167 19t-115.5 53t-67.5 81t-22 103z" />
    <glyph glyph-name="K" unicode="K" horiz-adv-x="1569" 
d="M39 0v14q14 1 34.5 3l41 4t38.5 5t27 7q37 14 49.5 34t12.5 54v1143q0 34 -12.5 59t-49.5 41q-14 6 -32.5 9.5t-38 5t-38 2.5t-32.5 3v15h747v-15q-13 -2 -31.5 -3.5t-38.5 -3.5t-39 -4.5t-32 -6.5q-37 -11 -49 -38.5t-12 -61.5v-557h30q64 56 128.5 117.5t123.5 122
t110.5 118t89.5 106.5t59.5 86t21.5 58q0 15 -16.5 26t-43 19t-60.5 13t-69 9v15h570v-15q-55 -5 -100.5 -14t-84 -24t-71.5 -36.5t-62 -49.5q-59 -59 -102.5 -103.5t-82 -84.5t-77.5 -80t-90 -89q56 -73 112 -154t115 -168.5t122 -181.5t134 -192q14 -19 31 -42t37.5 -45.5
t43 -42.5t46.5 -32q28 -14 61.5 -21t61.5 -10v-14h-766v14q32 4 56 9t39.5 13.5t23.5 22.5t8 35q0 22 -25 75.5t-72.5 130.5t-115.5 173t-154 201h-32v-539q0 -34 12.5 -60.5t46.5 -41.5q9 -4 24.5 -7t33 -5t36 -4t33.5 -3v-14h-731z" />
    <glyph glyph-name="L" unicode="L" horiz-adv-x="1272" 
d="M25 0v14q13 1 35.5 3t46 4t44 5t29.5 7q37 15 49.5 41.5t12.5 60.5v1127q0 34 -12 59t-50 41q-15 6 -36 9.5t-43.5 6t-42.5 3.5t-33 3v15h768v-15q-14 -2 -33.5 -2t-39.5 -1t-39.5 -3t-33.5 -6q-37 -12 -50 -39t-13 -61v-1071q0 -60 8 -95t31.5 -53t66 -23t111.5 -5
q38 0 74 2.5t67 8.5t55 15.5t39 24.5q26 26 60.5 72.5t69 99t65.5 104.5t51 90h16l-26 -442h-1247z" />
    <glyph glyph-name="M" unicode="M" horiz-adv-x="1876" 
d="M-8 0v14q13 1 37 1.5t50.5 3t52.5 9t44 19.5q35 26 50.5 93.5t15.5 185.5v843q0 124 -62 172q-18 15 -40.5 23t-46.5 12t-47.5 5t-43.5 3v15h559l375 -928l295 754q11 27 18.5 54t13 51t8 42t3.5 27h561v-15q-13 -2 -32.5 -3.5t-40.5 -4.5t-41 -6.5t-33 -7.5
q-38 -12 -50 -39t-12 -61v-1121q0 -34 13.5 -58.5t48.5 -41.5q8 -5 26.5 -9.5t40 -8t44 -6t38.5 -3.5v-14h-778v14q13 1 36 3t48 4.5t47 6.5t33 9q35 18 50 43.5t15 60.5v1129l-491 -1247h-56q-3 11 -9.5 32t-15.5 48l-19 57t-19.5 58t-18 51.5t-14.5 37.5l-369 920v-899
q0 -60 4 -105.5t12.5 -78.5t21 -55.5t30.5 -37.5q13 -11 40.5 -17.5t58 -10t58.5 -6t42 -3.5v-14h-551z" />
    <glyph glyph-name="N" unicode="N" horiz-adv-x="1487" 
d="M-14 1380v19h524l715 -944v610q0 119 -18 185.5t-52 95.5q-12 10 -38.5 17t-56 11t-56 6t-39.5 4v15h546v-15q-12 -2 -35.5 -3.5t-51 -4.5t-54.5 -10t-45 -20q-34 -26 -49.5 -95t-15.5 -184v-1073h-91l-893 1175v-841q0 -61 4.5 -107t13 -79.5t21 -56.5t29.5 -38
q13 -11 39.5 -17t55 -9t54.5 -4.5t39 -2.5v-14h-540v14q12 2 35.5 2.5t50.5 2.5t53.5 8t44.5 20q35 26 50.5 94.5t15.5 186.5v817q0 48 -15 88t-49 74q-16 16 -37.5 27t-46 19t-52 14t-56.5 13z" />
    <glyph glyph-name="O" unicode="O" horiz-adv-x="1554" 
d="M43 684q0 184 63 327t173 240q99 88 226 134.5t273 46.5t276 -45t230 -136q51 -47 93 -104.5t72 -125.5t46 -146t16 -166q0 -172 -59 -317.5t-172 -248.5q-97 -88 -223 -132t-287 -44q-149 0 -280.5 48.5t-231.5 142.5t-157.5 226.5t-57.5 299.5zM428 694
q0 -148 18.5 -276.5t60.5 -223t108.5 -148.5t162.5 -54q95 0 161.5 53.5t108 148.5t60 225t18.5 283q0 90 -7 177.5t-23 166t-42.5 144.5t-65 114.5t-90.5 75.5t-120 27q-87 0 -153 -48t-109.5 -139.5t-65.5 -224t-22 -301.5z" />
    <glyph glyph-name="P" unicode="P" horiz-adv-x="1288" 
d="M25 0v14q13 1 36 3t46 4.5t43.5 6t29.5 7.5q37 14 49.5 40t12.5 60v1127q0 34 -12 59t-50 41q-15 5 -36 8.5t-43.5 6t-42.5 4t-33 3.5v15h739q261 0 391.5 -85t130.5 -263q0 -77 -23.5 -139.5t-65 -111t-99 -83.5t-125.5 -58t-143.5 -34t-153.5 -11h-92v-477
q0 -34 13.5 -59.5t47.5 -40.5q9 -4 27 -7.5t39 -6.5t43 -5.5t41 -3.5v-14h-770zM584 641h37q84 0 141 30t92 80t50.5 115t15.5 135q0 78 -14 145.5t-46 117.5t-84 79t-127 29h-65v-731z" />
    <glyph glyph-name="Q" unicode="Q" horiz-adv-x="1554" 
d="M43 684q0 174 58 311t155 236q99 100 232.5 150.5t289.5 50.5q149 0 280.5 -48t231.5 -141q101 -94 161 -228t60 -306q0 -108 -25 -208t-73.5 -186.5t-119.5 -155.5t-163 -116q22 -68 50 -114.5t61 -75t70.5 -41.5t77.5 -13q50 0 88.5 14.5t66 39.5t45 59.5t25.5 73.5
l18 -6q-9 -57 -36.5 -122.5t-75 -121t-116.5 -92.5t-161 -37q-162 0 -260.5 89t-120.5 275q-21 -2 -44 -3t-48 -1q-72 0 -142 12t-135 35.5t-124 59t-109 82.5q-100 94 -158.5 227t-58.5 301zM428 694q0 -58 4 -120t12 -121.5t19.5 -114.5t25.5 -98q24 55 55.5 97.5t67 71
t73 43.5t73.5 15q105 0 186 -71t121 -212q18 57 30 122t19 132.5t9.5 135t2.5 128.5q0 94 -7.5 183t-24 167.5t-43.5 143.5t-65.5 112t-90 73t-117.5 26q-87 0 -153 -49t-109.5 -141t-65.5 -224t-22 -299zM500 211q49 -113 117 -166t161 -53q25 0 42 2.5t36 7.5
q-5 72 -16.5 136.5t-32 113t-51.5 76.5t-74 28q-22 0 -47.5 -6t-50.5 -22t-47 -44t-37 -73z" />
    <glyph glyph-name="R" unicode="R" horiz-adv-x="1497" 
d="M25 0v14q13 1 36 3t46 4.5t43.5 6t29.5 7.5q37 14 49.5 39.5t12.5 60.5v1122q0 35 -12 61t-50 42q-15 6 -36 10t-43.5 6.5t-42.5 4t-33 3.5v15h751q120 0 217.5 -19t166 -58t106 -99.5t37.5 -143.5q0 -84 -32 -146t-86 -106.5t-125 -72.5t-149 -43v-15q48 -4 97.5 -16.5
t93.5 -37.5t78 -63.5t49 -93.5q12 -42 19.5 -78t14 -69t12 -66t13.5 -69q11 -48 37 -71t55 -23q19 0 38.5 10.5t35.5 32t26.5 53.5t10.5 74v61h29v-64q0 -64 -13 -119t-46.5 -95.5t-91.5 -63.5t-148 -23q-68 0 -121 17t-92 56.5t-64 104.5t-37 162q-10 84 -26 151.5
t-44.5 115t-74 73t-113.5 25.5h-65v-545q0 -34 13.5 -59.5t47.5 -40.5q9 -4 27.5 -7t39.5 -5.5t41.5 -5t34.5 -3.5v-14h-763zM584 709h32q68 0 126 18.5t101 58.5t67 104t24 154q0 156 -71 242t-212 86h-67v-663z" />
    <glyph glyph-name="S" unicode="S" horiz-adv-x="1171" 
d="M47 500h21q38 -103 89.5 -195t114 -161t135.5 -109.5t154 -40.5q71 0 122 23.5t84 62t48.5 88t15.5 100.5q0 91 -61.5 158.5t-175.5 108.5q-34 11 -70 23t-71 23.5t-66 22.5t-55 21q-65 27 -112.5 68t-78.5 92t-46 110.5t-15 124.5q0 83 33.5 158t97 132t154.5 90.5
t206 33.5q69 0 129.5 -8.5t110.5 -22t89 -30t65 -32.5l53 76h24l9 -485h-21q-35 97 -77 183t-95.5 151t-119.5 103t-148 38q-56 0 -99.5 -20t-73 -54t-44.5 -77.5t-15 -90.5q0 -45 12.5 -85t40.5 -74.5t73.5 -63.5t111.5 -53q31 -11 67 -22.5t71.5 -23t68.5 -23t57 -21.5
q60 -26 108.5 -59.5t82.5 -80t52.5 -108.5t18.5 -143q0 -94 -39 -174t-109.5 -139t-169 -92.5t-218.5 -33.5q-89 0 -159 11t-123 27t-92 35t-67 34l-61 -92h-25z" />
    <glyph glyph-name="T" unicode="T" horiz-adv-x="1264" 
d="M-8 1018v381h1280v-381h-19q-7 22 -22 56t-35 71t-44 75t-49 69t-50 51.5t-47 23.5q-32 5 -71.5 7.5t-76.5 2.5h-55v-1233q0 -34 13.5 -60.5t47.5 -41.5q9 -4 31 -7.5t47 -7t49 -6.5t39 -4v-14h-794v14q13 1 36.5 3t48 4.5t46.5 6t32 7.5q35 14 48.5 41t13.5 61v1237h-53
q-36 0 -76 -2.5t-72 -7.5q-22 -3 -46.5 -23.5t-50 -51.5t-50 -69t-45 -75t-36 -71t-22.5 -56h-18z" />
    <glyph glyph-name="U" unicode="U" horiz-adv-x="1542" 
d="M14 1384v15h750v-15q-13 -2 -32 -3.5t-39.5 -3.5t-39 -4.5t-30.5 -6.5q-39 -12 -51.5 -39t-12.5 -61v-820q0 -105 20 -180t60 -123.5t101 -71t143 -22.5q81 0 153 27t126 81t86 134t32 186v592q0 64 -5 110.5t-14 79t-22.5 53.5t-30.5 36q-12 10 -37.5 16.5t-54 10.5
t-55 5.5t-39.5 3.5v15h545v-15q-18 -2 -43.5 -3.5t-52 -5t-51 -10.5t-40.5 -19q-18 -14 -30.5 -34.5t-20 -53t-11 -78t-3.5 -109.5v-604q0 -124 -39.5 -217.5t-109 -156.5t-164 -94.5t-203.5 -31.5q-142 0 -251 36t-183 102t-112 158t-38 204v793q0 34 -13.5 58.5
t-47.5 43.5q-14 7 -33 11t-39 6t-38 2.5t-30 2.5z" />
    <glyph glyph-name="V" unicode="V" horiz-adv-x="1370" 
d="M-74 1384v15h750v-15q-56 -5 -94 -10t-62 -10.5t-35 -13t-12 -17.5q-2 -12 1.5 -26.5t8.5 -28.5q17 -51 44 -125t59 -160.5t66.5 -178.5t67.5 -179t62 -162.5t49 -128.5q15 33 40.5 95.5t56 140t62.5 161t60.5 157.5t49.5 131t30 81q9 25 19 52.5t17.5 54t12.5 50.5t5 42
q0 21 -20.5 34.5t-53 21t-73 11.5t-81.5 6v17h486v-17q-34 -2 -57.5 -4.5t-51.5 -13.5q-22 -9 -39.5 -27.5t-32.5 -42t-27 -51t-24 -55.5q-7 -17 -28 -68.5t-51.5 -127t-68 -169t-77 -192.5t-79 -197.5t-73.5 -185.5t-61 -156t-41 -108h-115q-30 80 -71.5 190t-88 232.5
t-94 249t-90.5 239.5t-78 203.5t-55 140.5q-11 29 -21.5 50.5t-22 36t-24.5 24t-30 14.5q-13 4 -25 6.5t-25 5t-28.5 4.5t-36.5 4z" />
    <glyph glyph-name="W" unicode="W" horiz-adv-x="2079" 
d="M-55 1384v15h704v-15q-26 -2 -56.5 -5.5t-56.5 -10.5t-43.5 -18t-17.5 -29q0 -5 1 -13.5t2.5 -18t3 -19.5t3.5 -17q2 -8 13.5 -42.5t28.5 -87t39 -118.5t45.5 -138.5t48 -146l47 -141l41.5 -124.5t32 -95l234 644q-11 37 -27 90t-36.5 105t-45.5 94.5t-53 60.5
q-29 18 -58.5 23t-58.5 7v15h733v-15q-26 -2 -60.5 -5.5t-66 -10t-53.5 -18t-22 -29.5q0 -5 0.5 -13.5t2 -18.5t3.5 -19.5t4 -16.5t13.5 -41.5t29 -87.5t40 -120.5t47.5 -140.5t50 -148t48.5 -143t43 -125t33.5 -95q14 36 37.5 98.5t50.5 137t55.5 153.5t52.5 148t42 120
t24 70q12 34 21 67.5t16 62.5t10.5 51.5t3.5 35.5q0 28 -24.5 44t-61 25t-78.5 12.5t-77 6.5v15h499v-15q-27 -3 -54.5 -6.5t-61.5 -21.5q-20 -11 -38.5 -33.5t-34.5 -52t-30 -63.5t-26 -68q-8 -21 -27.5 -75t-46.5 -129t-60 -165.5t-67.5 -185t-68.5 -188t-63.5 -174.5
t-52.5 -143t-36 -95h-135q-12 35 -30.5 90t-40.5 123t-46.5 144t-49.5 152.5t-48.5 149t-43.5 133.5t-35.5 106.5t-23.5 67.5l-352 -966h-131l-410 1253q-11 32 -28.5 65.5t-49.5 53.5q-27 17 -57.5 21.5t-58.5 6.5z" />
    <glyph glyph-name="X" unicode="X" horiz-adv-x="1524" 
d="M-33 0v14q22 1 37.5 3t29 5t25.5 7t27 10q28 12 57.5 31.5t56.5 43t51.5 48.5t43.5 47q20 24 48.5 57t61 71t66 77t64.5 76t57 68t43 52l-375 586q-14 21 -31 45.5t-37 47t-44 41.5t-52 30q-14 5 -25.5 8.5t-24.5 6.5t-29.5 5t-41.5 4v15h869v-15q-125 -8 -180.5 -23.5
t-55.5 -37.5q0 -15 9.5 -43t25.5 -62.5t37 -72.5t43 -72q7 -11 27.5 -43.5t44.5 -69.5t45.5 -69.5t29.5 -44.5q50 65 96.5 121.5t88.5 111.5q68 91 108.5 154t40.5 94q0 25 -60.5 36.5t-168.5 20.5v15h543v-15q-45 -3 -73 -9.5t-42 -12.5q-51 -23 -105 -69t-102 -103
q-11 -13 -31.5 -37.5t-47 -56.5t-57 -69t-61 -74.5t-59.5 -72.5t-51 -63q18 -27 51.5 -78t73 -113.5t82.5 -130t80.5 -127t66.5 -104.5t41 -63q35 -51 71.5 -95.5t90.5 -66.5q14 -5 25.5 -9t24 -6.5t29 -5t40.5 -4.5v-14h-869v14q62 4 105 11.5t70 17t39 20t12 21.5
q0 20 -22 72t-69 131q-7 11 -20 33.5t-30 50.5t-35.5 59.5t-36.5 60t-32.5 51.5t-23.5 36q-22 -28 -48 -59.5t-53 -65.5t-55 -68.5t-53 -67.5q-26 -35 -54.5 -72t-52 -70.5t-39 -60t-15.5 -38.5q0 -23 57.5 -37.5t167.5 -24.5v-14h-541z" />
    <glyph glyph-name="Y" unicode="Y" horiz-adv-x="1401" 
d="M-74 1384v15h801v-15q-27 -2 -65 -4.5t-73.5 -8.5t-60 -15.5t-24.5 -24.5q0 -5 6.5 -23.5t18.5 -45.5t28.5 -61.5t36.5 -72.5q5 -11 21.5 -42t39.5 -74.5t51 -94.5t55.5 -101.5t53 -96.5t45.5 -78q22 41 52.5 95.5t63.5 115t67 122t63 116.5q53 99 77.5 153t24.5 70
q0 21 -20.5 33.5t-52.5 20t-70 11.5t-72 6v15h465v-15q-37 -5 -62 -10.5t-46 -17.5q-44 -25 -75 -66t-58 -88q-39 -64 -71.5 -119.5t-64 -111.5t-65 -116t-72.5 -132q-26 -48 -41.5 -85t-23 -71.5t-9.5 -70.5t-2 -84v-275q0 -32 14 -59.5t48 -42.5q9 -4 31 -7.5t47 -6
t49 -4.5t37 -3v-14h-797v14q14 1 38 2t49 3t47 5t32 7q37 14 50 41t13 61v320q0 34 -2 58.5t-9 48t-19 50t-33 64.5q-12 22 -36 65.5t-53.5 97t-61.5 112t-61 110.5t-51.5 92.5t-33.5 58.5q-28 47 -61 85.5t-68 60.5q-28 17 -55 21.5t-56 6.5z" />
    <glyph glyph-name="Z" unicode="Z" horiz-adv-x="1282" 
d="M-8 0v20l878 1354h-274q-42 0 -74.5 -1.5t-57.5 -4.5t-44 -8t-35 -12q-21 -9 -56 -42.5t-75.5 -82.5t-84 -110t-81.5 -126h-22l40 412h1156v-21l-879 -1353h303q83 0 138 3t91 10.5t57 19t36 28.5q30 34 65 80.5t70 97t66 101t53 92.5h20l-47 -457h-1243z" />
    <glyph glyph-name="bracketleft" unicode="[" horiz-adv-x="1159" 
d="M152 -326v1815l47 -16q98 -23 180 -40t156.5 -29t145.5 -18t148 -6q63 0 100.5 8t57 21t25.5 30.5t6 37.5q0 26 -10.5 49.5t-22.5 40.5l10 6q9 -6 19 -20t18.5 -33t14.5 -41.5t6 -46.5q0 -57 -16.5 -105t-50 -83.5t-85 -55t-121.5 -19.5q-73 0 -140 23.5t-134 61.5
t-137 87.5t-148 100.5v-1721q78 52 148 101t137 87t134 61.5t140 23.5q70 0 121.5 -19.5t85 -54.5t50 -83t16.5 -105q0 -25 -6.5 -48t-15.5 -41.5t-19.5 -32.5t-18.5 -20l-10 4q12 16 23.5 41.5t11.5 51.5q0 18 -6 35t-25.5 30.5t-57 22t-100.5 8.5q-77 0 -148 -6
t-145.5 -18t-156.5 -29t-180 -39z" />
    <glyph glyph-name="backslash" unicode="\" horiz-adv-x="831" 
d="M61 1520l68 20l639 -1948l-66 -20z" />
    <glyph glyph-name="bracketright" unicode="]" horiz-adv-x="1159" 
d="M125 -268q0 57 16.5 105t50 83t84.5 54.5t121 19.5q72 0 139.5 -23.5t134.5 -61.5t137 -87t148 -101v1721q-78 -51 -148 -100.5t-137 -87.5t-134.5 -61.5t-139.5 -23.5q-70 0 -121 19.5t-84.5 55t-50 83.5t-16.5 105q0 24 6 46.5t14 41.5t17.5 33t17.5 20l13 -6
q-13 -17 -23 -40.5t-10 -49.5q0 -20 5.5 -37.5t25 -30.5t57 -21t100.5 -8q77 0 148.5 6t146 18t156.5 29t180 40l47 16v-1815l-47 17q-99 22 -181 39t-156.5 29t-145.5 18t-148 6q-63 0 -100.5 -8.5t-57 -22t-25 -30.5t-5.5 -35q0 -26 11 -51.5t24 -41.5l-11 -4q-8 6 -18 20
t-19 32.5t-15.5 41.5t-6.5 48z" />
    <glyph glyph-name="asciicircum" unicode="^" horiz-adv-x="922" 
d="M61 788q31 50 69.5 111t77 120.5t73 111t55.5 83.5q9 13 18 24t22 18.5t32.5 11.5t50.5 4q29 0 49 -4t34.5 -11.5t24.5 -18.5t19 -24q21 -32 55 -83.5t72.5 -111t77 -120.5t69.5 -111l-14 -10l-385 281l-385 -281z" />
    <glyph glyph-name="underscore" unicode="_" horiz-adv-x="1227" 
d="M-12 -217h1249v-98h-1249v98z" />
    <glyph glyph-name="grave" unicode="`" 
d="M225 1442q0 20 8 38.5t23 33t37 23.5t51 9q26 0 47.5 -8.5t40.5 -24t36.5 -38.5t35.5 -52q18 -28 35 -57t38 -65.5t47.5 -83.5t63.5 -111l-12 -14q-105 68 -185 113.5t-131 74.5q-33 19 -58 36t-42.5 35.5t-26 40t-8.5 50.5z" />
    <glyph glyph-name="a" unicode="a" horiz-adv-x="1032" 
d="M41 203q0 65 17 109.5t45 74t64 48t75 32.5q46 17 97.5 31.5t99 28t85.5 27t58 28.5v135q0 26 -2 66t-13 77.5t-34.5 64.5t-67.5 27q-38 0 -68 -13t-43 -26q2 -12 9.5 -33.5t16 -47t15 -52.5t6.5 -51q0 -17 -11 -37.5t-32.5 -38t-53 -29.5t-71.5 -12t-68 12.5t-45.5 33
t-25.5 45.5t-8 51q0 48 37 88t94.5 69t127.5 45.5t136 16.5q82 0 155 -9.5t127.5 -42t86 -93t31.5 -162.5q0 -70 -2 -146.5t-4.5 -145t-4.5 -123t-2 -79.5q0 -12 4.5 -28.5t13.5 -31.5t23 -25.5t33 -10.5q47 0 76 52.5t31 143.5h24q-2 -65 -15 -119.5t-42 -94.5t-76.5 -62.5
t-116.5 -22.5q-49 0 -86 10t-65 28t-48.5 42.5t-35.5 52.5h-6q-26 -27 -52 -51.5t-60 -43.5t-77.5 -30.5t-103.5 -11.5q-52 0 -97.5 17.5t-79 49t-52.5 74t-19 93.5zM352 260q0 -98 29.5 -140t73.5 -42q42 0 69.5 15t50.5 50l9 406q-61 -24 -104.5 -48t-72 -56t-42 -76.5
t-13.5 -108.5z" />
    <glyph glyph-name="b" unicode="b" horiz-adv-x="1145" 
d="M-68 1489v14l476 25l8 -8v-676l8 -2q17 19 42 42t58 42.5t73 33t87 13.5q88 0 162.5 -35t127.5 -100.5t83 -158.5t30 -210q0 -108 -35.5 -200t-98 -158.5t-148.5 -104t-187 -37.5q-78 0 -134.5 13t-97 32t-68.5 40.5t-48 37.5l-149 -123l-15 6q3 31 5 72t4 89t3 101.5
t1 108.5v1004q0 34 -12.5 66.5t-43.5 49.5q-10 6 -26.5 10t-35.5 6.5t-37.5 4t-31.5 2.5zM416 145q7 -24 18.5 -50.5t30 -49t45 -37t63.5 -14.5q51 0 86.5 35t58 97t32.5 146.5t10 182.5q0 94 -8.5 172.5t-30.5 134t-60 86.5t-96 31q-46 0 -81.5 -21t-67.5 -59v-654z" />
    <glyph glyph-name="c" unicode="c" horiz-adv-x="911" 
d="M37 477q0 97 32.5 186.5t95.5 158.5t155 110t212 41q88 0 152.5 -18t107.5 -50.5t64 -76.5t21 -95q0 -31 -10 -57.5t-30 -46.5t-49.5 -31.5t-68.5 -11.5q-74 0 -116 40t-42 105q0 15 8 38.5t18.5 48.5t20.5 47t13 34q-11 49 -86 49q-84 0 -129.5 -114t-45.5 -340
q0 -104 17.5 -182t49.5 -130.5t76.5 -79t98.5 -26.5q105 0 177.5 50t115.5 146l23 -14q-24 -60 -63.5 -112.5t-91.5 -92t-114 -62t-131 -22.5q-123 0 -213.5 39t-150 107.5t-88.5 161t-29 200.5z" />
    <glyph glyph-name="d" unicode="d" horiz-adv-x="1176" 
d="M57 485q0 108 36.5 197.5t97.5 154t141.5 100.5t169.5 36q41 0 77 -5.5t65.5 -13t52 -16t36.5 -14.5v417q0 34 -11.5 67t-39.5 50q-14 9 -35.5 14.5t-46 9t-50 5.5t-46.5 4v12l510 25l14 -15v-1351q0 -34 14 -58t37 -41q9 -6 23.5 -11t31.5 -9t34 -6.5t30 -3.5v-13
l-455 -28l-8 8v100l-8 2q-17 -18 -42.5 -40.5t-58.5 -42.5t-73.5 -34t-87.5 -14q-89 0 -163.5 36.5t-129 103.5t-85 162t-30.5 212zM383 467q0 -83 9.5 -157t32 -130t60.5 -88.5t95 -32.5q50 0 85.5 22.5t67.5 63.5v646q-6 23 -17 49.5t-30 49t-46 37.5t-65 15
q-47 0 -83 -36.5t-60 -100t-36.5 -150.5t-12.5 -188z" />
    <glyph glyph-name="e" unicode="e" horiz-adv-x="963" 
d="M37 477q0 99 31 189t91.5 158t149.5 108.5t205 40.5q117 0 198 -34t130.5 -90.5t71.5 -130t22 -153.5v-12h-580v-59q0 -91 15 -168t48 -133.5t85 -88.5t127 -32q94 0 171.5 43.5t133.5 150.5l22 -16q-28 -59 -70 -110t-96.5 -89t-120.5 -60t-143 -22q-126 0 -218 39.5
t-153 108.5t-90.5 161.5t-29.5 198.5zM356 580l262 4q0 60 -2 124t-13.5 117.5t-35.5 88t-67 34.5q-35 0 -61 -28.5t-44 -78t-27.5 -117t-11.5 -144.5z" />
    <glyph glyph-name="f" unicode="f" horiz-adv-x="668" 
d="M-29 913v33h197v37q0 125 31 224t108 179q65 67 148.5 105.5t197.5 38.5q84 0 138.5 -19.5t87 -50t45 -68t12.5 -73.5q0 -23 -10 -48.5t-29 -46.5t-47 -34.5t-64 -13.5q-24 0 -50 6.5t-48 21.5t-36.5 38t-14.5 56q0 36 14 77.5t23 86.5q0 19 -16.5 32t-36.5 13
q-79 0 -115 -101t-43 -300q-1 -15 -1 -42v-53q0 -31 1 -65h250v-33h-248v-788q0 -32 13.5 -55.5t41.5 -34.5q12 -5 29 -8.5t35 -6t36 -4t31 -2.5v-14h-624v14q26 2 47 5.5t41 11.5q53 20 53 90v792h-197z" />
    <glyph glyph-name="g" unicode="g" horiz-adv-x="1028" 
d="M2 -215q0 84 81 137t245 60v8q-37 10 -76.5 26.5t-71.5 40.5t-53 56t-21 75q0 44 20.5 74.5t52.5 51t70.5 32.5t74.5 19v8q-134 40 -200.5 114.5t-66.5 174.5q0 81 39.5 140t101.5 97t137.5 56t147.5 18q99 0 163.5 -16t90.5 -31q38 99 90.5 156t120.5 57q22 0 42 -7.5
t36 -21.5t25.5 -34.5t9.5 -45.5q0 -49 -29.5 -82t-77.5 -33q-46 0 -76 24.5t-53 66.5q-20 -8 -38 -33t-27 -51v-7q37 -24 64.5 -55t46 -65.5t27.5 -71.5t9 -72q0 -69 -33.5 -123.5t-90 -93t-129.5 -58.5t-152 -20h-158q-19 -14 -33 -30.5t-14 -36.5q0 -31 14 -46.5t39.5 -22
t60.5 -7.5t76 -2l267 -10q48 -2 98.5 -22t92 -57t68.5 -92t27 -128q0 -77 -33 -144t-101 -117t-172.5 -79t-248.5 -29q-131 0 -222.5 18t-149.5 51t-84.5 79.5t-26.5 103.5zM242 -215q0 -51 18.5 -93t54.5 -72t90.5 -47t126.5 -17t125 22t88 59t52.5 86t17.5 103
q0 17 -5 35.5t-16.5 36t-30 32.5t-46.5 25q-14 2 -54.5 4t-94 3.5t-113.5 2t-113 0.5q-16 -8 -33.5 -22.5t-32.5 -36.5t-24.5 -52t-9.5 -69zM356 666q0 -149 32 -220t95 -71q37 0 62.5 19.5t41 56t22.5 89t7 119.5q0 57 -6.5 109.5t-22.5 93t-41.5 64.5t-64.5 24
q-38 0 -62 -21.5t-38 -60t-19.5 -90.5t-5.5 -112z" />
    <glyph glyph-name="h" unicode="h" horiz-adv-x="1190" 
d="M-35 1491v12l477 25l9 -8v-715h6q27 29 55.5 59t64 54t82 39.5t111.5 15.5q75 0 128.5 -23t87.5 -65t49.5 -101.5t15.5 -132.5v-536q0 -34 7 -53.5t36 -30.5q21 -8 42.5 -11t49.5 -6v-14h-543v14q20 2 40 5t36 10q22 8 26.5 32t4.5 58v545q0 53 -10 88.5t-27.5 56.5
t-41 30t-50.5 9q-33 0 -61 -8t-49.5 -21t-36.5 -29t-23 -32v-641q0 -34 5 -54.5t25 -29.5q20 -10 40.5 -13t41.5 -6v-14h-545v14q25 2 46.5 4t41.5 9q28 9 39 27t11 52v1244q0 79 -47 110q-9 6 -28 11.5t-41 9.5t-42.5 6.5t-32.5 3.5z" />
    <glyph glyph-name="i" unicode="i" horiz-adv-x="608" 
d="M-4 924v12l461 25l8 -9v-837q0 -32 8.5 -52t36.5 -34q22 -11 50 -13t48 -2v-14h-581v14q26 2 47 3.5t41 9.5q28 11 40.5 34.5t12.5 55.5v678q0 66 -51 102q-9 6 -24 10.5t-32 8t-34 5.5t-31 3zM113 1339q0 39 14 71.5t38.5 56t57 36.5t70.5 13q37 0 69.5 -13.5t56.5 -37
t38 -56t14 -70.5t-14 -70t-38 -55.5t-56.5 -37t-69.5 -13.5q-38 0 -70.5 13.5t-57 37t-38.5 55.5t-14 70z" />
    <glyph glyph-name="j" unicode="j" horiz-adv-x="606" 
d="M-240 -268q0 21 9.5 46t28 47t46 37t62.5 15q23 0 48.5 -7t47 -23t35.5 -40.5t14 -58.5q0 -20 -3.5 -44.5t-8.5 -49.5t-11 -49.5t-12 -44.5q8 -2 19 -3t14 -1q43 0 70 27.5t42.5 82t21 135.5t5.5 187v790q0 31 -13.5 61.5t-39.5 47.5q-23 15 -67 22t-103 11v16l512 25
l8 -9v-858q0 -64 -6 -121.5t-20.5 -109t-39 -96.5t-61.5 -84q-30 -32 -65 -59.5t-76 -47.5t-87.5 -31.5t-98.5 -11.5q-83 0 -135.5 17.5t-82.5 45.5t-41.5 64t-11.5 72zM137 1339q0 39 14 71.5t38.5 56t57 36.5t70.5 13q37 0 69.5 -13.5t56.5 -37t37.5 -56t13.5 -70.5
t-13.5 -70t-37.5 -55.5t-56.5 -37t-69.5 -13.5q-38 0 -70.5 13.5t-57 37t-38.5 55.5t-14 70z" />
    <glyph glyph-name="k" unicode="k" horiz-adv-x="1120" 
d="M-35 1491v12l477 25l9 -8v-1053q30 29 74 72.5t91.5 92t94 98.5t80.5 93q15 20 19.5 34t4.5 28q0 17 -37 28.5t-100 20.5v12h422v-12q-49 -9 -84 -19t-62 -23t-49.5 -29t-46.5 -36q-16 -13 -36.5 -31.5t-43 -39.5t-45 -44t-43.5 -44q49 -24 90 -63t75 -88t62 -104.5
t51 -110.5t42.5 -108t36.5 -96q11 -28 29.5 -43.5t41.5 -23.5q48 -17 74 -17v-14h-438q-9 39 -24.5 89t-35 101.5t-43 101.5t-48.5 88.5t-51.5 62.5t-51.5 24q-13 0 -26.5 -9t-22.5 -20v-321q0 -34 5 -54.5t25 -29.5q20 -10 40.5 -13t41.5 -6v-14h-545v14q25 2 46.5 4
t41.5 9q28 9 39 27t11 52v1244q0 79 -47 110q-9 6 -28 11.5t-41 9.5t-42.5 6.5t-32.5 3.5z" />
    <glyph glyph-name="l" unicode="l" horiz-adv-x="588" 
d="M-49 1491v12l483 25l8 -8v-1399q0 -69 54 -92q21 -10 40.5 -11t47.5 -4v-14h-576v14q25 2 45.5 2.5t40.5 8.5q29 11 41 33.5t12 56.5v1228q0 41 -15 71.5t-40 47.5q-9 6 -27 11t-38.5 9t-41 6t-34.5 3z" />
    <glyph glyph-name="m" unicode="m" horiz-adv-x="1778" 
d="M14 924v12l441 25l8 -9v-147h6q28 29 56.5 59t64 54t80.5 39.5t106 15.5q97 0 162.5 -44.5t97.5 -127.5h8q29 31 60 61.5t68.5 55t85.5 40t112 15.5q69 0 119.5 -23.5t83.5 -66t49 -101.5t16 -131v-534q0 -34 7 -54.5t36 -31.5q22 -8 44.5 -11.5t48.5 -5.5v-14h-539v14
q22 2 41 5.5t35 11.5q20 11 24 33.5t4 56.5v536q0 102 -31.5 148.5t-84.5 46.5q-36 0 -64.5 -8t-50 -21t-36 -29t-21.5 -32v-637q0 -34 6.5 -56t27.5 -36q16 -10 35 -13.5t37 -5.5v-14h-508v14q20 2 39 4.5t35 12.5q20 11 24.5 33.5t4.5 56.5v528q0 102 -31 150.5t-88 48.5
q-33 0 -60.5 -8t-49 -21t-37 -29t-23.5 -32v-641q0 -34 5.5 -54.5t25.5 -29.5q20 -10 40 -13t41 -6v-14h-546v14q24 2 46 4t42 9q28 9 38.5 27t10.5 52v678q0 79 -47 111q-19 12 -49.5 19.5t-55.5 9.5z" />
    <glyph glyph-name="n" unicode="n" horiz-adv-x="1202" 
d="M14 924v12l441 25l8 -9v-147h6q28 29 56 59t63.5 54t82 39.5t111.5 15.5q75 0 128.5 -23t87.5 -65t49.5 -101.5t15.5 -132.5v-536q0 -34 7 -53.5t36 -30.5q22 -8 43 -11t49 -6v-14h-543v14q20 2 40.5 5t35.5 10q22 8 26.5 32t4.5 58v545q0 53 -10 88.5t-27.5 56.5t-41 30
t-50.5 9q-33 0 -60.5 -8t-49 -21t-37 -29t-23.5 -32v-641q0 -34 5.5 -54.5t25.5 -29.5q20 -10 40 -13t41 -6v-14h-546v14q24 2 46 4t42 9q28 9 38.5 27t10.5 52v678q0 79 -47 111q-19 12 -49.5 19.5t-55.5 9.5z" />
    <glyph glyph-name="o" unicode="o" horiz-adv-x="1094" 
d="M37 473q0 110 36 202t102.5 158t161.5 103t212 37q120 0 214 -37t159.5 -102.5t100 -156t34.5 -198.5q0 -107 -32.5 -200t-97 -162t-161.5 -108.5t-225 -39.5q-104 0 -195.5 34.5t-160 100t-108.5 159t-40 210.5zM369 485q0 -92 5 -180.5t23 -158t54 -112t98 -42.5
q60 0 95.5 41.5t53.5 110t23.5 156.5t5.5 181q0 59 -2.5 116.5t-9.5 110t-19.5 96.5t-32 76.5t-47 51t-65.5 18.5q-40 0 -69 -19.5t-49.5 -53t-32.5 -78.5t-19 -97t-9.5 -107.5t-2.5 -109.5z" />
    <glyph glyph-name="p" unicode="p" horiz-adv-x="1169" 
d="M-18 -449q32 2 63 4.5t49 8.5q29 9 40 35.5t11 58.5v1126q0 79 -47 111q-18 12 -48.5 19.5t-55.5 9.5v12l440 25l8 -9v-110l9 -2q17 19 42 42t58 43.5t74.5 34t91.5 13.5q87 0 159.5 -35t125 -99t81.5 -153.5t29 -198.5q0 -114 -34 -208.5t-94 -162t-140.5 -104.5
t-173.5 -37q-42 0 -75.5 5t-60 14t-47 20.5t-38.5 24.5h-9v-371q0 -38 15 -60.5t43 -33.5q38 -14 76 -16.5t73 -6.5v-14h-665v14zM440 156q8 -24 20 -50t30.5 -48t46 -36t65.5 -14q51 0 86 33.5t56.5 94t31.5 144t10 183.5q0 78 -9 152t-31.5 131.5t-59.5 92.5t-94 35
q-28 0 -49.5 -5t-39 -15t-33 -25t-30.5 -34v-639z" />
    <glyph glyph-name="q" unicode="q" horiz-adv-x="1149" 
d="M57 483q0 108 38 198.5t105 155t158 100.5t197 36q58 0 108 -7t92.5 -19t79 -28t68.5 -34l127 114l14 -4q-3 -32 -6 -71.5t-5 -82.5t-3.5 -86.5t-1.5 -82.5v-1002q0 -34 14 -59t41 -39q12 -6 27.5 -9.5t32.5 -5.5t33.5 -3t29.5 -3v-14h-647v14q13 1 29.5 2t33 2.5t32 4
t26.5 6.5q29 11 41 35.5t12 58.5v438l-8 2q-17 -18 -41 -39.5t-56.5 -40.5t-72.5 -32t-88 -13q-92 0 -167.5 35.5t-129.5 101.5t-83.5 160t-29.5 211zM383 471q0 -78 8 -151.5t29 -130.5t57.5 -91.5t93.5 -34.5q51 0 90.5 21.5t71.5 65.5v647q-6 25 -16.5 52t-28 49t-44 36
t-64.5 14q-51 0 -88 -37.5t-61.5 -102t-36 -151.5t-11.5 -186z" />
    <glyph glyph-name="r" unicode="r" horiz-adv-x="895" 
d="M10 924v12l445 25l8 -9v-143h4q62 80 126 120t138 40q39 0 71.5 -13.5t56 -38t37 -59t13.5 -76.5q0 -36 -11.5 -68t-32 -56t-49.5 -38t-64 -14q-66 0 -109 35t-43 98q0 22 5 42.5t11.5 38.5t12.5 33t8 24q-33 -1 -62 -14t-52 -30.5t-38.5 -35.5t-21.5 -29v-643
q0 -68 55 -90q12 -6 30.5 -9.5t38 -6t37.5 -3.5t29 -2v-14h-624v14q24 2 45 3.5t41 9.5q29 11 40 33.5t11 56.5v674q0 29 -15 60t-38 48q-17 12 -47 17.5t-56 7.5z" />
    <glyph glyph-name="s" unicode="s" horiz-adv-x="842" 
d="M31 342h14q14 -30 34.5 -68t46.5 -76.5t57 -75.5t66.5 -66t75 -46.5t81.5 -17.5q39 0 70 12.5t52.5 34.5t33 52.5t11.5 66.5q0 40 -12.5 69t-42 53t-76.5 45t-116 44q-52 17 -100.5 41.5t-86 61.5t-60 89t-22.5 123q0 59 25 111.5t71.5 92t114 62.5t152.5 23
q37 0 76.5 -4.5t76.5 -12.5t68.5 -18t52.5 -20l43 57h17l12 -324h-16q-26 58 -59.5 112.5t-72.5 95.5t-81.5 66t-85.5 25q-37 0 -65 -13t-46.5 -34.5t-27.5 -48.5t-9 -55q0 -40 11.5 -68t38.5 -49.5t72.5 -40.5t113.5 -41q60 -20 110.5 -47.5t87 -65.5t56.5 -87.5t20 -112.5
q0 -78 -30.5 -137t-83.5 -99.5t-124.5 -61t-154.5 -20.5q-49 0 -99 9t-93 22.5t-76 29t-48 27.5l-47 -69h-16z" />
    <glyph glyph-name="t" unicode="t" horiz-adv-x="700" 
d="M-31 913v33h178v295h291v-295h258v-33h-258v-653q0 -31 5.5 -60.5t19.5 -53t36.5 -38t57.5 -14.5q36 0 62 17.5t43 45t25.5 62t10.5 68.5h25q-2 -62 -18 -119t-51.5 -100.5t-91 -69t-136.5 -25.5q-141 0 -212 78t-71 215v647h-174z" />
    <glyph glyph-name="u" unicode="u" horiz-adv-x="1169" 
d="M-16 922v14l448 25l6 -9v-680q0 -100 31 -147t84 -47q39 0 68 11t49.5 26.5t33.5 33.5t21 33v619q0 31 -11 58.5t-34 41.5q-16 9 -50 13t-69 6v16l451 25l8 -9v-798q0 -34 13 -60.5t38 -40.5q9 -5 22 -8.5t27 -6t28 -3.5t26 -2v-13l-433 -28l-14 14v127h-6
q-26 -29 -55 -58t-66.5 -51.5t-86 -36.5t-112.5 -14q-70 0 -119.5 25t-81 70t-46.5 106t-15 133v492q0 32 -12.5 61t-40.5 43q-19 9 -47 13t-55 6z" />
    <glyph glyph-name="v" unicode="v" horiz-adv-x="932" 
d="M-59 932v14h567v-14q-17 -1 -39 -3.5t-41.5 -8t-33 -14.5t-13.5 -21q0 -10 12 -43q7 -18 22.5 -56.5t36 -89.5t43.5 -108.5t46 -112.5t43 -102.5t34 -77.5q7 18 21.5 55t32 84t37 98.5t37.5 99t32.5 86t22.5 58.5t15 45.5t5 46.5q-2 17 -18 28t-40 18t-53 11.5t-57 8.5
v12h346v-12q-26 -5 -46 -11t-36.5 -17.5t-30 -30.5t-26.5 -50q-9 -21 -26.5 -65t-40 -99.5t-47 -118t-47 -120.5t-41.5 -106.5t-29 -75.5q-23 -62 -44.5 -124t-41.5 -128h-113q-17 41 -46 109.5t-63.5 150t-72 169.5t-71.5 168t-62.5 145t-44.5 101q-20 45 -50.5 70
t-78.5 31z" />
    <glyph glyph-name="w" unicode="w" horiz-adv-x="1454" 
d="M-57 932v14h534v-14q-15 -1 -32.5 -3.5t-33 -8t-26 -14.5t-10.5 -21q0 -3 3 -14.5t9 -28.5q3 -11 16.5 -49t32.5 -90.5t41.5 -113.5t44 -118t39.5 -103t29 -69q6 14 16.5 40.5t23.5 60t26.5 70t26.5 70t23 60t15 39.5q-1 5 -6.5 19t-12 33.5t-14.5 41t-15.5 41.5
t-13 34.5t-8.5 20.5q-8 26 -18 44.5t-23 30.5t-30 18.5t-41 9.5v14h532v-14q-17 -1 -38.5 -3.5t-41 -8t-32.5 -14.5t-13 -23q0 -2 2 -13t8 -28q4 -11 17 -49.5t31.5 -92t39.5 -115.5t41 -119.5t37.5 -104t28.5 -68.5q7 16 20.5 52t30.5 82t36.5 97t37 98t31.5 84.5t22 57.5
q4 9 7.5 22t6.5 26.5t5 25.5t2 18q0 18 -14.5 30t-38 21t-53 15.5t-58.5 11.5v12h346v-10q-20 -4 -40 -10.5t-39 -19.5t-36 -35t-31 -56l-225 -575q-25 -65 -46.5 -125.5t-41.5 -126.5h-117q-11 31 -28.5 79.5t-37.5 106t-41.5 119t-42 119t-38 106t-29.5 80.5
q-2 -4 -12 -28.5t-23.5 -59.5t-29 -76.5t-30 -79.5t-26 -69t-16.5 -45q-23 -65 -44 -127t-38 -125h-117q-16 40 -42 108t-57.5 149t-65.5 168.5t-65.5 167.5t-57.5 145.5t-41 102.5q-19 47 -48 72t-83 31z" />
    <glyph glyph-name="x" unicode="x" horiz-adv-x="1006" 
d="M-29 0v14q69 13 112.5 46.5t72.5 70.5q9 11 27 32.5t40.5 48t47 56.5t47.5 57.5t42.5 51.5t30.5 39q-5 7 -25 39t-48 76t-59.5 94.5t-59.5 95t-49 77.5t-27 42q-18 27 -34.5 44.5t-33 27.5t-32.5 14t-33 6v14h551v-14q-15 0 -33.5 -2t-36 -6t-30 -9.5t-13.5 -11.5
q-3 -11 1.5 -22t12.5 -23q3 -5 14 -23.5t26.5 -44.5t33 -56t34 -57t29.5 -48t19 -29l166 225q17 23 20.5 35.5t3.5 22.5q-1 10 -13.5 18t-33 13.5t-46 10t-52.5 9.5v12h371v-12q-42 -7 -72 -16.5t-52.5 -23t-41 -31t-39.5 -40.5q-5 -6 -18.5 -22t-31.5 -38t-39 -48
t-41 -51.5t-37 -47.5t-28 -36q3 -5 24 -38.5t51 -81.5l65 -104t66 -106.5t54.5 -87.5t30.5 -47q17 -25 30.5 -41.5t28 -28t32.5 -18t44 -11.5v-16h-563v16q17 1 38.5 4t40 8t31.5 11t13 14q0 10 -7 24.5t-13 26.5q-3 5 -14.5 25.5t-28 48.5t-36 60.5t-38 62.5t-33.5 54.5
t-22 35.5q-7 -9 -23 -28.5t-36.5 -44.5t-43 -53t-42.5 -53.5t-36 -46t-22 -30.5q-11 -15 -21 -32.5t-10 -28.5q0 -12 18 -22.5t42 -18t47 -12t34 -5.5v-16h-344z" />
    <glyph glyph-name="y" unicode="y" horiz-adv-x="932" 
d="M-66 932v14h562v-14q-16 -1 -37.5 -3.5t-40.5 -7.5t-32 -14t-13 -22q0 -5 4.5 -18t9.5 -25q4 -10 20.5 -47.5t40 -89.5t51 -112t53.5 -115.5t47 -100t32 -64.5q8 17 22 52.5t30.5 80t35 94.5t35.5 96t30.5 83.5t20.5 58.5q9 26 14.5 49.5t5.5 40.5t-14.5 27.5t-38 17
t-52.5 11.5l-58 10v12h342v-12q-27 -5 -47.5 -10t-37 -16t-30.5 -30t-27 -53q-14 -35 -34 -87t-44.5 -114.5t-50.5 -131.5t-52.5 -137t-51 -132.5t-45 -118t-35 -92t-21.5 -55.5q-44 -112 -87 -192.5t-89.5 -132t-99 -75.5t-115.5 -24q-27 0 -59 9t-60.5 30t-47.5 54.5
t-19 82.5q0 28 11 55t31 48t47.5 34t61.5 13q21 0 46 -6.5t46 -21t35.5 -39t14.5 -60.5q0 -48 -9 -83.5t-14 -70.5q79 23 145 120.5t126 252.5q-9 19 -31 64t-51.5 107t-65 135t-71.5 148t-70 146.5t-62 129.5t-47 98t-24 52q-19 41 -50.5 67t-85.5 34z" />
    <glyph glyph-name="z" unicode="z" horiz-adv-x="874" 
d="M8 0v25l514 897h-104q-130 0 -195 -29q-19 -9 -41 -37t-43.5 -65.5t-41 -78.5t-34.5 -75h-18v309h805v-22l-516 -899q37 -2 67.5 -2h67.5q53 0 91 2.5t67 5.5q35 5 58.5 22.5t45.5 55.5q15 25 32 59.5t33.5 69.5t30 66.5t21.5 49.5h16v-354h-856z" />
    <glyph glyph-name="braceleft" unicode="{" horiz-adv-x="868" 
d="M63 535v108q73 6 129.5 18t94.5 40t58 77.5t20 130.5q0 32 -5 65.5t-11.5 67.5t-11.5 67t-5 65q0 110 34 178.5t96.5 106.5t150 51.5t194.5 13.5v-17q-46 -2 -83 -9.5t-63.5 -33t-40.5 -75t-14 -134.5q0 -61 9.5 -126.5t9.5 -127.5q0 -107 -32 -171.5t-87 -102
t-128 -56.5t-155 -34v-96q82 -15 155 -34t128 -56.5t87 -102t32 -172.5q0 -62 -9.5 -127t-9.5 -127q0 -86 14 -135t40.5 -74.5t63.5 -33t83 -9.5v-16q-107 0 -194.5 13t-150 51t-96.5 106.5t-34 179.5q0 31 5 64.5t11.5 67t11.5 67t5 65.5q0 81 -20 131t-58.5 78.5t-95 40
t-128.5 17.5z" />
    <glyph glyph-name="bar" unicode="|" horiz-adv-x="575" 
d="M248 -424v1952h80v-1952h-80z" />
    <glyph glyph-name="braceright" unicode="}" horiz-adv-x="868" 
d="M59 -330q46 2 83 9.5t63.5 33t40.5 74.5t14 135q0 62 -9 127t-9 127q0 108 32 172.5t86.5 102t127.5 56.5t155 34v96q-55 10 -106 21t-95.5 28t-81 41.5t-63 61.5t-41 88.5t-14.5 123.5q0 62 9 127.5t9 126.5q0 85 -14 134.5t-40.5 75t-63.5 33t-83 9.5v17
q107 0 194.5 -13.5t150 -51.5t97 -106.5t34.5 -178.5q0 -32 -5 -65t-11.5 -67t-11.5 -67.5t-5 -65.5q0 -81 19.5 -130.5t58 -77.5t94.5 -40t129 -18v-108q-72 -6 -128.5 -17.5t-94.5 -40t-58 -78.5t-20 -131q0 -32 5 -65.5t11.5 -67t11.5 -67t5 -64.5q0 -111 -34.5 -179.5
t-97 -106.5t-150 -51t-194.5 -13v16z" />
    <glyph glyph-name="asciitilde" unicode="~" horiz-adv-x="1094" 
d="M111 397q15 56 40.5 111t60.5 98t80.5 69.5t100.5 26.5q58 0 108 -14.5t95 -32.5t86 -32.5t80 -14.5t69 6.5t54 21t43 37.5t37 56l16 -6q-16 -59 -41 -114t-59 -98t-77.5 -69t-96.5 -26q-62 0 -112.5 14.5t-94.5 32.5t-83.5 32.5t-78.5 14.5t-70.5 -6t-57 -20.5
t-45.5 -37t-38 -55.5z" />
    <glyph glyph-name="uni00A0" unicode="&#xa0;" horiz-adv-x="205" 
 />
    <glyph glyph-name="exclamdown" unicode="&#xa1;" horiz-adv-x="670" 
d="M158 1255q0 37 14 68.5t38 55t56 36.5t68 13t67.5 -13t55.5 -36.5t37.5 -55t13.5 -68.5t-13.5 -68.5t-37.5 -55t-55.5 -37t-67.5 -13.5t-68 13.5t-56 37t-38 55t-14 68.5zM164 141q0 59 16.5 141t41.5 184.5t53 224t51 257.5h18q22 -136 49.5 -257.5t51.5 -224
t40.5 -184.5t16.5 -141q0 -34 -11 -65.5t-32.5 -55t-53 -37.5t-71.5 -14t-71.5 14t-53.5 37.5t-33.5 55t-11.5 65.5z" />
    <glyph glyph-name="cent" unicode="&#xa2;" horiz-adv-x="989" 
d="M78 618q0 96 34 185t97 157t153.5 109t204.5 41h26t23 -2l64 266l35 -8l-60 -260q59 -9 107 -30.5t82 -51.5t52.5 -67t18.5 -78q0 -29 -7.5 -54.5t-23 -44t-38.5 -29t-53 -10.5q-24 0 -46.5 7.5t-40 22.5t-28 37.5t-10.5 51.5q0 33 6 57.5t12.5 43t12.5 33.5t6 30
q-5 17 -22 30.5t-36 22.5l-184 -776q28 -38 74 -58t96 -20q101 0 170 41t119 133l18 -10q-26 -60 -64 -109.5t-87 -84.5t-107 -54.5t-123 -19.5q-15 0 -33 1t-36 3t-34.5 4.5t-29.5 5.5l-88 -364l-33 8l86 364q-149 48 -231 169.5t-82 307.5zM362 635q0 -88 19.5 -166
t54.5 -131l176 749q-9 2 -18 2.5t-19 0.5q-42 0 -80.5 -28.5t-68 -85.5t-47 -142t-17.5 -199z" />
    <glyph glyph-name="sterling" unicode="&#xa3;" horiz-adv-x="1532" 
d="M-123 -18q0 50 29.5 96.5t80 82.5t118 57.5t143.5 21.5q74 0 146.5 -12.5t144.5 -32.5q5 38 2 83t-6 95h-357v35h354q-2 21 -4.5 45.5t-4 49t-3 46.5t-2.5 39h-328v37h326q0 179 44.5 327t126 254.5t195.5 165t253 58.5q111 0 192 -30.5t134 -79t78.5 -110t25.5 -123.5
q0 -74 -26 -135.5t-74 -105.5t-117 -69t-156 -25q-60 0 -105.5 18t-76.5 49.5t-46.5 75.5t-15.5 96q0 47 10.5 89.5t30.5 88.5l19 -4q-35 -78 -35 -149q0 -51 14.5 -90.5t40 -67.5t61.5 -42.5t80 -14.5q93 0 145 68.5t52 207.5q0 66 -13.5 126.5t-41.5 106.5t-71 73.5
t-103 27.5q-82 0 -141 -36t-97 -110t-57 -186.5t-21 -265.5q0 -46 -3 -98.5t-9 -89.5h332v-37h-338q-4 -23 -10.5 -47t-15.5 -48t-19 -45.5t-21 -39.5h387v-35h-403q-12 -26 -27 -53.5t-31.5 -53.5t-33.5 -49.5t-33 -42.5q64 -23 127 -49.5t124 -49t121 -37.5t119 -15
q88 0 143.5 25t88.5 65.5t48 91.5t24 102l20 -4q-7 -56 -21.5 -113t-38.5 -110t-60 -99t-86.5 -80.5t-118 -54.5t-154.5 -20q-59 0 -117 13t-114.5 34t-112 47t-107.5 51q-32 -36 -72.5 -67.5t-88 -54.5t-99 -36.5t-104.5 -13.5q-65 0 -110.5 13.5t-74 38t-42 58t-13.5 73.5
zM-80 -43q0 -54 49 -90.5t146 -36.5q96 0 183.5 42t152.5 114q-90 42 -180.5 67t-180.5 25q-78 0 -124 -33.5t-46 -87.5z" />
    <glyph glyph-name="currency" unicode="&#xa4;" horiz-adv-x="1235" 
d="M49 489v35h150q-3 41 -2.5 81t2.5 77h-150v37h156q15 114 64.5 214.5t128 175.5t185 118t236.5 43q83 0 152 -20t118.5 -55.5t77 -85t27.5 -108.5q0 -46 -11 -77.5t-29 -51t-40.5 -28t-44.5 -8.5q-59 0 -92 33t-33 81q0 28 12 52t27 46t27 44t12 45q-4 21 -21 41.5
t-44 36t-62.5 25t-77.5 9.5q-68 0 -119 -36t-87.5 -104.5t-58 -167t-30.5 -222.5h426v-37h-428v-41.5v-42.5t0.5 -40t1.5 -34h373v-35h-371q6 -90 28.5 -169.5t62 -139t96.5 -93.5t131 -34q61 0 111 18t91 50.5t74.5 78.5t61.5 103l18 -10q-30 -66 -68.5 -124.5
t-91.5 -102.5t-123 -69.5t-163 -25.5q-111 0 -205.5 33.5t-166.5 99t-118 162.5t-61 223h-152z" />
    <glyph glyph-name="yen" unicode="&#xa5;" horiz-adv-x="1192" 
d="M-49 1229v14h663v-14q-23 -2 -51.5 -5t-54 -9.5t-42.5 -16.5t-17 -24q0 -7 11.5 -34.5t32 -70.5t48.5 -98.5t60.5 -118t68 -130t71.5 -134.5q34 59 69.5 120.5t69.5 120.5t63.5 112.5t52 96.5t35.5 72.5t13 40.5q0 20 -17 34t-44 23t-59 14t-62 7v14h404v-14
q-57 -8 -101.5 -41t-74.5 -78q-32 -49 -73.5 -116.5t-86.5 -143.5t-90.5 -155t-85.5 -152h321v-37h-325v-158h325v-37h-325v-170q0 -32 15.5 -59t43.5 -39q12 -5 30.5 -10t39 -9t40 -6.5t33.5 -3.5v-14h-716v14q13 1 34.5 3t43.5 4.5t42 6t31 7.5q28 9 46 35.5t18 60.5v180
h-312v37h312v158h-312v37h305q-6 14 -27 55.5t-49.5 96t-60 115.5t-60 114.5t-49.5 93t-28 51.5q-26 50 -54.5 81.5t-60.5 49.5q-23 14 -50.5 20.5t-53.5 8.5z" />
    <glyph glyph-name="brokenbar" unicode="&#xa6;" horiz-adv-x="575" 
d="M248 379h80v-803h-80v803zM248 745v783h80v-783h-80z" />
    <glyph glyph-name="section" unicode="&#xa7;" horiz-adv-x="1106" 
d="M115 659q0 58 23.5 105.5t62 84t87 61t99.5 36.5q-37 51 -62.5 119.5t-25.5 142.5q0 60 24 115t69 96.5t110 66.5t147 25q49 0 88.5 -12.5t69.5 -32.5t51.5 -46t35 -52.5t20 -51.5t6.5 -44q0 -36 -9.5 -67.5t-28.5 -55.5t-48 -37.5t-68 -13.5q-29 0 -52 10.5t-40 28
t-26 41t-9 49.5q0 32 15.5 56t33.5 43t33.5 35t15.5 34q0 42 -27 69t-81 27q-35 0 -64 -14.5t-50 -41.5t-32.5 -65t-11.5 -86q0 -38 9.5 -70.5t27.5 -64t44 -65t58 -72.5t61 -73t59.5 -68.5t64.5 -73.5t77 -90q39 -46 67 -86t46 -77.5t26.5 -74.5t8.5 -78q0 -58 -24 -104.5
t-63 -81.5t-89.5 -58t-102.5 -34q41 -53 69 -124.5t28 -150.5q0 -60 -23 -115t-66.5 -96.5t-107.5 -66.5t-145 -25q-50 0 -90 12.5t-71.5 33t-54.5 46t-38 52.5t-22 52t-7 44q0 37 9 68.5t28 55t48 37t69 13.5q28 0 51.5 -11.5t40 -30t26 -42t9.5 -47.5q0 -32 -14 -55.5
t-31.5 -42.5t-31.5 -35.5t-14 -34.5q0 -42 29 -68t74 -26q34 0 62.5 15.5t49.5 43.5t32.5 67t11.5 87q0 37 -10.5 70.5t-28.5 66.5t-43.5 66t-55.5 69q-32 37 -61 70.5t-60 69t-66 75t-77 90.5q-38 45 -65.5 84t-45 76t-26 74t-8.5 79zM287 754q0 -25 9 -54.5t24 -59.5
t33.5 -58.5t37.5 -51.5q45 -54 91.5 -108t90 -105t82.5 -97.5t70 -86.5q60 20 88.5 62.5t28.5 107.5q0 25 -8 54t-22 57.5t-32 55.5t-37 50q-47 55 -94.5 110.5t-92.5 108t-84.5 100t-70.5 87.5q-54 -20 -84 -60.5t-30 -111.5z" />
    <glyph glyph-name="dieresis" unicode="&#xa8;" 
d="M135 1313q0 32 12 61t32.5 51t48 35t59.5 13q31 0 58.5 -13t48 -35t32.5 -51t12 -61t-12 -61t-32.5 -51t-48 -35t-58.5 -13q-32 0 -59.5 13t-48 35t-32.5 51t-12 61zM586 1313q0 32 12 61t32 51t47.5 35t59.5 13q31 0 58.5 -13t48.5 -35t33 -51t12 -61t-12 -61t-33 -51
t-48.5 -35t-58.5 -13q-32 0 -59.5 13t-47.5 35t-32 51t-12 61z" />
    <glyph glyph-name="copyright" unicode="&#xa9;" horiz-adv-x="1946" 
d="M80 514q0 121 31.5 233t89.5 210t139.5 178.5t181 138.5t214 89.5t239.5 31.5q123 0 237 -31.5t213 -89.5t180.5 -138.5t139 -178.5t89.5 -210t32 -233q0 -122 -32 -235t-89.5 -211t-139 -179t-180.5 -139t-213 -89.5t-237 -31.5q-124 0 -238.5 31.5t-214 89.5t-181 139
t-139.5 179t-90 211t-32 235zM158 514q0 -114 29 -219.5t82 -197.5t127 -167t165 -128.5t195.5 -83t218.5 -29.5q113 0 217 29.5t194.5 83t164.5 128.5t126.5 167t81.5 197.5t29 219.5q0 113 -29 217.5t-81.5 195.5t-126.5 165.5t-164.5 128t-194.5 83t-217 29.5
q-114 0 -218.5 -29.5t-195.5 -83t-165 -128t-127 -165.5t-82 -195.5t-29 -217.5zM498 506q0 106 41 197t112.5 158t167.5 105t207 38q37 0 77 -7.5t74 -17.5t58.5 -20.5t32.5 -16.5l55 70h16l9 -365h-21q-19 57 -47 115.5t-66 106.5t-86.5 78t-107.5 30q-52 0 -96 -30.5
t-76 -89t-50 -144.5t-18 -197q0 -98 16 -174.5t49.5 -130t86.5 -81.5t127 -28q94 0 171.5 58t125.5 164l22 -11q-27 -60 -61.5 -112.5t-81 -91t-107.5 -60.5t-141 -22q-105 0 -194.5 33.5t-155 95.5t-102.5 150.5t-37 199.5z" />
    <glyph glyph-name="ordfeminine" unicode="&#xaa;" horiz-adv-x="764" 
d="M86 805q0 35 9.5 60.5t25.5 43t37.5 29.5t44.5 20q26 10 59.5 19.5t66.5 18.5t60.5 17.5t42.5 16.5v94q0 15 -2 37t-10.5 42t-25 34t-44.5 14q-25 0 -40.5 -7t-24.5 -15q1 -8 4 -20.5t6.5 -27t6.5 -30t3 -29.5q0 -11 -6 -23t-17.5 -23t-29 -18t-41.5 -7q-23 0 -39 7.5
t-26.5 19.5t-15.5 27.5t-5 31.5q0 30 22.5 54.5t57.5 42t76 27t79 9.5q46 0 91 -6t81 -25t58 -55t22 -97q0 -41 -1.5 -85t-3 -83t-2.5 -70t-1 -46q0 -9 2.5 -19.5t8 -19.5t15 -15t23.5 -6t24 9t17 23.5t10.5 33t4.5 37.5h18q-6 -176 -152 -176q-32 0 -55 6t-39.5 17.5
t-27 27t-17.5 33.5q-31 -34 -74 -60t-106 -26q-89 0 -129.5 38.5t-40.5 98.5zM96 479v66h582v-66h-582zM274 836q0 -53 20 -79t52 -26q29 0 48.5 12.5t31.5 30.5l6 236q-35 -13 -64 -27.5t-50 -34.5t-32.5 -47t-11.5 -65z" />
    <glyph glyph-name="guillemotleft" unicode="&#xab;" horiz-adv-x="1165" 
d="M86 459q0 19 2 31.5t7.5 22.5t14 18t21.5 18l475 336l10 -11l-276 -417l276 -416l-10 -8q-60 41 -125.5 87.5t-128.5 91.5l-119 85t-96 68q-15 10 -25 18.5t-16 18t-8 23t-2 34.5zM530 459q0 19 2 31.5t7.5 22.5t14 18t21.5 18q36 25 93 65t123 86.5t134 94.5t126 90
l10 -11l-277 -417l277 -416l-10 -8q-60 41 -126 87.5t-129 91.5t-118.5 85t-95.5 68q-15 10 -25 18.5t-16 18t-8.5 23t-2.5 34.5z" />
    <glyph glyph-name="logicalnot" unicode="&#xac;" horiz-adv-x="1159" 
d="M88 510v98h946v-528h-108v430h-838z" />
    <glyph glyph-name="registered" unicode="&#xae;" horiz-adv-x="1012" 
d="M133 1067q0 79 28.5 147t79 118.5t118.5 79t147 28.5t147 -28.5t118.5 -79t79 -118.5t28.5 -147t-28.5 -147t-79 -118.5t-118.5 -79t-147 -28.5t-147 28.5t-118.5 79t-79 118.5t-28.5 147zM178 1067q0 -71 24.5 -132t68.5 -106.5t104 -71.5t131 -26q70 0 130.5 26
t104 71.5t68.5 106.5t25 132q0 70 -25 131.5t-68.5 107t-104 71.5t-130.5 26q-71 0 -131 -26t-104 -71.5t-68.5 -107t-24.5 -131.5zM305 872v17q8 0 23 2t18 4q19 9 19 31v311q0 11 -4 19.5t-15 11.5q-9 3 -21 5.5t-20 2.5v16h225q23 0 49 -3t47.5 -13t35.5 -28.5t14 -49.5
q0 -23 -10.5 -40.5t-29.5 -30t-44 -21.5t-55 -14v-7q10 -2 28 -5.5t36 -11t32 -19t18 -29.5q6 -26 10.5 -46t10.5 -42q6 -20 12.5 -26.5t17.5 -6.5q13 0 22 10.5t9 42.5h15q0 -45 -19 -65.5t-67 -20.5q-39 0 -66 26t-33 79q-2 18 -5 36.5t-10.5 34t-22.5 25.5t-42 10h-24
v-151q0 -11 3.5 -18.5t14.5 -12.5q6 -3 19 -4.5t22 -1.5v-17h-213zM459 1096h33q42 0 66 21.5t24 68.5q0 52 -19.5 70t-54.5 18h-49v-178z" />
    <glyph glyph-name="macron" unicode="&#xaf;" 
d="M174 1198v186h676v-186h-676z" />
    <glyph glyph-name="degree" unicode="&#xb0;" horiz-adv-x="793" 
d="M74 1145q0 67 26.5 124t70.5 98t101 64t119 23q67 0 126.5 -18.5t104.5 -56t71 -95.5t26 -137q0 -63 -26 -117.5t-71 -95t-104.5 -63.5t-126.5 -23t-125 19t-100.5 56.5t-67 93t-24.5 128.5zM248 1153q0 -54 7.5 -106t25 -92t46 -64.5t70.5 -24.5q34 0 61.5 22t46 60
t28.5 88.5t10 106.5q0 59 -8 112t-26 92.5t-46.5 63t-69.5 23.5t-68.5 -24.5t-44.5 -64t-24.5 -90t-7.5 -102.5z" />
    <glyph glyph-name="uni00B2" unicode="&#xb2;" horiz-adv-x="942" 
d="M121 1233q0 47 28 99t81 95.5t129 72t171 28.5q78 0 140.5 -17t106 -48t66.5 -75t23 -98q0 -68 -30 -121t-88 -98.5t-144 -87.5t-198 -88q-3 -2 -16.5 -9.5t-28.5 -17.5t-28.5 -18.5t-17.5 -11.5h433q27 0 48.5 11t40 30t35.5 45t35 55l15 -6l-123 -283h-672v51
q67 41 123 77.5t103 70.5t86 65.5t73 63.5q79 76 113 151t34 164q0 36 -10.5 68t-29.5 55.5t-46 37t-61 13.5q-53 0 -96.5 -23t-74.5 -58.5t-48 -77.5t-17 -80q0 -20 4.5 -39.5t15.5 -35t30.5 -25t48.5 -9.5t55.5 12t48.5 30t39 38.5t27 36.5l12 -8q-14 -26 -37 -58.5
t-55.5 -60.5t-76 -47t-97.5 -19q-89 0 -129.5 42t-40.5 108z" />
    <glyph glyph-name="uni00B3" unicode="&#xb3;" horiz-adv-x="946" 
d="M84 872q0 30 11.5 55.5t30 44.5t43 29.5t50.5 10.5q43 0 68.5 -23t25.5 -63q0 -29 -16.5 -45t-36 -27t-35.5 -20.5t-16 -26.5q0 -19 11.5 -38t34 -34.5t56 -25t76.5 -9.5q53 0 100.5 24t83.5 63.5t57 90t21 103.5q0 31 -5.5 60t-19 50.5t-35 34.5t-52.5 13q-20 0 -42 -10
t-43 -25t-39.5 -32t-33.5 -32l-29 41q60 28 113 57t92.5 62.5t62.5 74t23 91.5q0 28 -7 54t-22 45t-38.5 30.5t-55.5 11.5t-65.5 -13.5t-62 -37.5t-46.5 -57t-18 -72q0 -37 16.5 -60.5t56.5 -23.5q21 0 38 6t31 14t24.5 17.5t19.5 17.5l10 -10q-14 -18 -35 -37t-48 -35.5
t-58 -27t-64 -10.5q-77 0 -116 31.5t-39 86.5q0 45 30.5 86.5t84 74t125.5 52t155 19.5q78 0 132.5 -14.5t88.5 -38.5t49 -56t15 -67q0 -29 -16.5 -58.5t-52.5 -55t-92.5 -46.5t-135.5 -33q64 4 121 -4t100 -29.5t67.5 -57.5t24.5 -89q0 -67 -36 -122t-99 -94.5t-148.5 -61
t-183.5 -21.5q-56 0 -111 11t-98.5 34.5t-70.5 59.5t-27 87z" />
    <glyph glyph-name="acute" unicode="&#xb4;" 
d="M336 1106q37 64 63.5 111t47.5 83.5t38 65.5t35 57q18 29 35.5 52t36.5 38.5t40.5 24t47.5 8.5q28 0 50.5 -9t37.5 -23.5t23 -33t8 -38.5q0 -29 -8.5 -50.5t-26 -40t-42.5 -35.5t-58 -36q-51 -29 -131 -74.5t-185 -113.5z" />
    <glyph glyph-name="paragraph" unicode="&#xb6;" horiz-adv-x="1284" 
d="M119 1004q0 38 8 82.5t27.5 88t51.5 84t79 72t110.5 50t147.5 18.5h684v-39h-291v-1616h-49v1616h-191v-1616h-49v879h-61q-91 0 -161 17t-122 46t-87.5 67t-57 80.5t-30.5 86t-9 84.5z" />
    <glyph glyph-name="periodcentered" unicode="&#xb7;" horiz-adv-x="551" 
d="M90 555q0 38 14.5 71t40 57t58.5 38t71 14t71.5 -14t59 -38t40 -57t14.5 -71t-14.5 -71t-40 -57t-59 -38t-71.5 -14t-71 14t-58.5 38t-40 57t-14.5 71z" />
    <glyph glyph-name="cedilla" unicode="&#xb8;" 
d="M283 -453q49 0 97.5 3.5t86.5 17t62 40.5t24 73q0 48 -27.5 65.5t-89.5 17.5v236h31v-88q63 1 113.5 -8t86.5 -30.5t55 -56.5t19 -85q0 -67 -33 -109t-93 -65.5t-144.5 -32t-187.5 -8.5v30z" />
    <glyph glyph-name="uni00B9" unicode="&#xb9;" horiz-adv-x="721" 
d="M37 1499l4 8q34 -12 77.5 -22t90.5 -10q37 0 78 5.5t78.5 14.5t68.5 19.5t49 19.5h19q-11 -45 -15 -100.5t-4 -108.5v-532q0 -22 13 -39t34 -25q10 -4 29.5 -7t40.5 -6t40.5 -4.5t29.5 -2.5v-15h-580v15q12 1 32 2.5t42 3.5t41 4.5t28 5.5q22 6 36 21.5t14 41.5v648
q-23 -6 -64 -6q-40 0 -88.5 17.5t-93.5 51.5z" />
    <glyph glyph-name="ordmasculine" unicode="&#xba;" horiz-adv-x="764" 
d="M63 969q0 71 25 127t68.5 94.5t102 59t124.5 20.5q67 0 125 -20.5t101 -58.5t67 -93t24 -125q0 -69 -23.5 -126t-66 -97t-102 -62t-131.5 -22q-59 0 -115 19t-100.5 56.5t-71.5 94.5t-27 133zM90 479v66h582v-66h-582zM262 975q0 -53 4.5 -105t17 -93.5t36.5 -67
t63 -25.5q37 0 61 25t37 65.5t18 92.5t5 106q0 51 -5 100.5t-18 89t-37 64t-61 24.5q-38 0 -62 -26t-37 -66t-17.5 -89t-4.5 -95z" />
    <glyph glyph-name="guillemotright" unicode="&#xbb;" horiz-adv-x="1165" 
d="M102 41l279 416l-279 417l13 11q57 -42 125.5 -90t134 -94.5t122 -86.5t91.5 -65q14 -10 23 -18t14.5 -18t7.5 -22.5t2 -31.5q0 -21 -2 -34.5t-8 -23t-16 -18t-25 -18.5q-40 -28 -96 -68l-119 -85t-128.5 -91.5t-125.5 -87.5zM549 41l276 416l-276 417l10 11
q58 -42 126 -90t133.5 -94.5t122 -86.5t91.5 -65q14 -10 23 -18t14.5 -18t7.5 -22.5t2 -31.5q0 -21 -2 -34.5t-8 -23t-16 -18t-25 -18.5q-40 -28 -95.5 -68t-118.5 -85t-129 -91.5t-126 -87.5z" />
    <glyph glyph-name="onequarter" unicode="&#xbc;" horiz-adv-x="1167" 
d="M76 494v71h1014v-71h-1014zM164 -137l518 514h106v-506q63 0 107.5 0.5t67.5 17.5q9 7 16.5 19t13 26t8.5 29t3 27h10v-316h-10q-2 29 -12 61.5t-31 49.5q-19 14 -62.5 14h-110.5v-172q0 -21 10 -38t31 -25q8 -3 21 -6t27.5 -5.5t29 -4.5t25.5 -3v-10h-479v10q10 1 24 2
t29 2.5t28 3.5t21 5q20 6 31.5 22.5t11.5 38.5v180h-434v64zM209 -129h389v387zM252 1501l6 6q34 -12 78 -22t90 -10q37 0 77.5 5.5t78 14.5t69 19.5t49.5 19.5h17q-9 -45 -13 -100.5t-4 -108.5v-537q0 -21 13 -38t35 -25q9 -4 28 -7t40.5 -6t41 -4.5t29.5 -2.5v-11h-580v11
q12 1 32 2.5t41.5 3.5t41 4.5t29.5 5.5q20 6 34.5 21t14.5 42v652q-13 -3 -28.5 -4.5t-37.5 -1.5q-40 0 -88 18.5t-94 52.5z" />
    <glyph glyph-name="onehalf" unicode="&#xbd;" horiz-adv-x="1167" 
d="M76 494v71h1014v-71h-1014zM223 78q0 47 28.5 99t81.5 95.5t129.5 72t172.5 28.5q78 0 139.5 -17t105 -48t66.5 -75t23 -98q0 -68 -30.5 -121t-89.5 -98.5t-145.5 -87.5t-199.5 -88q-3 -2 -16 -9.5t-28 -17.5t-28 -18.5t-16 -11.5h438q27 0 48.5 11t40 30t36 45t35.5 55
l10 -6l-123 -283h-672v51q68 41 124 77.5t102.5 70.5t85.5 65.5t73 63.5q82 76 115 151t33 164q0 36 -10.5 68.5t-29.5 56.5t-46 38.5t-60 14.5q-54 0 -97.5 -23.5t-74.5 -59.5t-48 -79t-17 -81q0 -20 4.5 -39.5t15.5 -35t30.5 -25t49.5 -9.5q31 0 57.5 12t47.5 30t37 38.5
t26 36.5l10 -8q-14 -26 -36 -58.5t-54.5 -60.5t-75.5 -47t-98 -19q-88 0 -129 42t-41 108zM254 1501l4 6q34 -12 78 -22t90 -10q37 0 78 5.5t79 14.5t69.5 19.5t49.5 19.5h17q-9 -45 -14 -100.5t-5 -108.5v-537q0 -21 13 -38t35 -25q10 -4 29 -7t40 -6t40.5 -4.5t29.5 -2.5
v-11h-580v11q12 1 32 2.5t42 3.5t41.5 4.5t28.5 5.5q21 6 35 21t14 42v652q-23 -6 -64 -6q-40 0 -88 18.5t-94 52.5z" />
    <glyph glyph-name="threequarters" unicode="&#xbe;" horiz-adv-x="1167" 
d="M76 494v71h1014v-71h-1014zM164 -137l518 514h106v-506q63 0 107.5 0.5t67.5 17.5q9 7 16.5 19t13 26t8.5 29t3 27h10v-316h-10q-2 29 -12 61.5t-31 49.5q-19 14 -62.5 14h-110.5v-172q0 -21 10 -38t31 -25q8 -3 21 -6t27.5 -5.5t29 -4.5t25.5 -3v-10h-479v10q10 1 24 2
t29 2.5t28 3.5t21 5q20 6 31.5 22.5t11.5 38.5v180h-434v64zM184 872q0 30 11 55.5t30 44.5t43 29.5t51 10.5q44 0 69.5 -23t25.5 -63q0 -29 -16.5 -45t-36 -27t-36 -20.5t-16.5 -26.5q0 -19 12 -39t34.5 -36t55.5 -26t76 -10q53 0 101 24.5t84 65t57 91.5t21 104
q0 31 -7 61t-21 52.5t-37 36.5t-54 14q-19 0 -40 -11t-41.5 -27t-39 -34t-33.5 -33l-26 41q60 28 112.5 57t92 62.5t62.5 74t23 91.5q0 28 -7.5 54.5t-23 46.5t-39 32t-55.5 12q-30 0 -63.5 -14t-61.5 -38.5t-46.5 -58.5t-18.5 -73q0 -37 16.5 -60.5t57.5 -23.5q21 0 37.5 6
t30 14t24.5 17.5t20 17.5l9 -8q-14 -18 -35 -37.5t-47.5 -36t-57 -27.5t-63.5 -11q-79 0 -117.5 31.5t-38.5 86.5q0 45 30.5 86.5t83.5 74t125 52t156 19.5q78 0 132 -14.5t88 -38.5t49.5 -56t15.5 -67q0 -29 -17 -58.5t-53 -55t-92.5 -46.5t-136.5 -33q64 4 121.5 -4
t100.5 -29.5t68 -57.5t25 -89q0 -67 -36 -122t-99 -94.5t-148 -61t-183 -21.5q-56 0 -111.5 11t-99 34.5t-70.5 59.5t-27 87zM209 -129h389v387z" />
    <glyph glyph-name="questiondown" unicode="&#xbf;" horiz-adv-x="1032" 
d="M127 373q0 101 36 183.5t102 142.5t160 95.5t210 41.5l10 141h24l9 -381q-132 -14 -204.5 -88.5t-72.5 -220.5q0 -62 10.5 -115.5t33.5 -93t60.5 -62t92.5 -22.5q26 0 51 5t46.5 13.5t38 19t25.5 21.5q-9 16 -21 37.5t-23.5 46.5t-19 51.5t-7.5 51.5q0 78 44 124t120 46
q41 0 71 -13t49.5 -35.5t29 -53.5t9.5 -66q0 -53 -33 -102t-90 -86.5t-135 -60t-168 -22.5q-100 0 -184 27t-145 78.5t-95 126.5t-34 170zM467 1251q0 37 14 69.5t38 57t56.5 38.5t69.5 14t69.5 -14t56.5 -38.5t38 -57t14 -69.5t-14 -69.5t-38 -57t-56.5 -39t-69.5 -14.5
t-69.5 14.5t-56.5 39t-38 57t-14 69.5z" />
    <glyph glyph-name="Agrave" unicode="&#xc0;" horiz-adv-x="1399" 
d="M-74 0v14q28 3 57.5 5.5t55.5 19.5q38 25 65 66t50 94q13 29 39.5 90t61 142t75.5 176.5t82.5 194.5t82 195.5t75 179.5t61 147t39.5 97h114q18 -45 47.5 -120.5t65 -169.5t75.5 -199.5t79.5 -211t76.5 -203.5t67.5 -177.5t51 -134t27.5 -70.5q12 -31 28.5 -54.5
t53.5 -41.5q25 -12 53.5 -17t54.5 -8v-14h-755v14q26 2 63 6t71.5 11.5t58.5 19.5t24 31q0 12 -2.5 23.5t-5.5 19.5l-140 373h-456q-3 -8 -12 -30.5t-20.5 -51.5t-24 -61.5t-23.5 -61t-19 -49.5t-10 -27q-14 -40 -22.5 -73.5t-8.5 -53.5q0 -18 13 -30t34.5 -20t48.5 -12.5
t54 -7t51.5 -4t42.5 -2.5v-14h-500zM338 537h426l-205 530zM428 1839q0 20 8 38.5t23 33t37 23.5t51 9q26 0 47.5 -8.5t40.5 -24t36.5 -38.5t35.5 -52q18 -28 35 -57t38 -65.5t47.5 -83.5t63.5 -111l-12 -14q-105 68 -185 113.5t-131 74.5q-33 19 -58 36t-42.5 35.5t-26 40
t-8.5 50.5z" />
    <glyph glyph-name="Aacute" unicode="&#xc1;" horiz-adv-x="1399" 
d="M-74 0v14q28 3 57.5 5.5t55.5 19.5q38 25 65 66t50 94q13 29 39.5 90t61 142t75.5 176.5t82.5 194.5t82 195.5t75 179.5t61 147t39.5 97h114q18 -45 47.5 -120.5t65 -169.5t75.5 -199.5t79.5 -211t76.5 -203.5t67.5 -177.5t51 -134t27.5 -70.5q12 -31 28.5 -54.5
t53.5 -41.5q25 -12 53.5 -17t54.5 -8v-14h-755v14q26 2 63 6t71.5 11.5t58.5 19.5t24 31q0 12 -2.5 23.5t-5.5 19.5l-140 373h-456q-3 -8 -12 -30.5t-20.5 -51.5t-24 -61.5t-23.5 -61t-19 -49.5t-10 -27q-14 -40 -22.5 -73.5t-8.5 -53.5q0 -18 13 -30t34.5 -20t48.5 -12.5
t54 -7t51.5 -4t42.5 -2.5v-14h-500zM338 537h426l-205 530zM516 1503q37 64 63.5 111t47.5 83.5t38 65.5t35 57q18 29 35.5 52t36.5 38.5t40.5 24t47.5 8.5q28 0 50.5 -9t37.5 -23.5t23 -33t8 -38.5q0 -29 -8.5 -50.5t-26 -40t-42.5 -35.5t-58 -36q-51 -29 -131 -74.5
t-185 -113.5z" />
    <glyph glyph-name="Acircumflex" unicode="&#xc2;" horiz-adv-x="1399" 
d="M-74 0v14q28 3 57.5 5.5t55.5 19.5q38 25 65 66t50 94q13 29 39.5 90t61 142t75.5 176.5t82.5 194.5t82 195.5t75 179.5t61 147t39.5 97h114q18 -45 47.5 -120.5t65 -169.5t75.5 -199.5t79.5 -211t76.5 -203.5t67.5 -177.5t51 -134t27.5 -70.5q12 -31 28.5 -54.5
t53.5 -41.5q25 -12 53.5 -17t54.5 -8v-14h-755v14q26 2 63 6t71.5 11.5t58.5 19.5t24 31q0 12 -2.5 23.5t-5.5 19.5l-140 373h-456q-3 -8 -12 -30.5t-20.5 -51.5t-24 -61.5t-23.5 -61t-19 -49.5t-10 -27q-14 -40 -22.5 -73.5t-8.5 -53.5q0 -18 13 -30t34.5 -20t48.5 -12.5
t54 -7t51.5 -4t42.5 -2.5v-14h-500zM338 537h426l-205 530zM362 1519q31 55 63 108t61 101t54.5 89t44.5 71q8 12 17 20t22.5 12.5t32 6.5t45.5 2t45.5 -2.5t31.5 -7t21.5 -11.5t14.5 -16q17 -26 42 -66.5t55 -89.5t63 -104.5t65 -112.5l-23 -16l-319 237l-315 -235z" />
    <glyph glyph-name="Atilde" unicode="&#xc3;" horiz-adv-x="1399" 
d="M-74 0v14q28 3 57.5 5.5t55.5 19.5q38 25 65 66t50 94q13 29 39.5 90t61 142t75.5 176.5t82.5 194.5t82 195.5t75 179.5t61 147t39.5 97h114q18 -45 47.5 -120.5t65 -169.5t75.5 -199.5t79.5 -211t76.5 -203.5t67.5 -177.5t51 -134t27.5 -70.5q12 -31 28.5 -54.5
t53.5 -41.5q25 -12 53.5 -17t54.5 -8v-14h-755v14q26 2 63 6t71.5 11.5t58.5 19.5t24 31q0 12 -2.5 23.5t-5.5 19.5l-140 373h-456q-3 -8 -12 -30.5t-20.5 -51.5t-24 -61.5t-23.5 -61t-19 -49.5t-10 -27q-14 -40 -22.5 -73.5t-8.5 -53.5q0 -18 13 -30t34.5 -20t48.5 -12.5
t54 -7t51.5 -4t42.5 -2.5v-14h-500zM315 1538q13 38 36.5 88t58 94.5t80 75.5t102.5 31q55 0 100 -16.5t85 -36t79 -36t82 -16.5q53 0 95.5 28t70.5 99l27 -8q-12 -41 -35.5 -91.5t-59 -95t-83 -74.5t-107.5 -30q-55 0 -98 16.5t-81 37t-74 37t-77 16.5q-49 0 -94.5 -30
t-79.5 -100zM338 537h426l-205 530z" />
    <glyph glyph-name="Adieresis" unicode="&#xc4;" horiz-adv-x="1399" 
d="M-74 0v14q28 3 57.5 5.5t55.5 19.5q38 25 65 66t50 94q13 29 39.5 90t61 142t75.5 176.5t82.5 194.5t82 195.5t75 179.5t61 147t39.5 97h114q18 -45 47.5 -120.5t65 -169.5t75.5 -199.5t79.5 -211t76.5 -203.5t67.5 -177.5t51 -134t27.5 -70.5q12 -31 28.5 -54.5
t53.5 -41.5q25 -12 53.5 -17t54.5 -8v-14h-755v14q26 2 63 6t71.5 11.5t58.5 19.5t24 31q0 12 -2.5 23.5t-5.5 19.5l-140 373h-456q-3 -8 -12 -30.5t-20.5 -51.5t-24 -61.5t-23.5 -61t-19 -49.5t-10 -27q-14 -40 -22.5 -73.5t-8.5 -53.5q0 -18 13 -30t34.5 -20t48.5 -12.5
t54 -7t51.5 -4t42.5 -2.5v-14h-500zM338 537h426l-205 530zM340 1710q0 32 12 61t32.5 51t48 35t59.5 13q31 0 58.5 -13t48 -35t32.5 -51t12 -61t-12 -61t-32.5 -51t-48 -35t-58.5 -13q-32 0 -59.5 13t-48 35t-32.5 51t-12 61zM791 1710q0 32 12 61t32 51t47.5 35t59.5 13
q31 0 58.5 -13t48.5 -35t33 -51t12 -61t-12 -61t-33 -51t-48.5 -35t-58.5 -13q-32 0 -59.5 13t-47.5 35t-32 51t-12 61z" />
    <glyph glyph-name="Aring" unicode="&#xc5;" horiz-adv-x="1399" 
d="M-74 0v14q28 3 57.5 5.5t55.5 19.5q38 25 65 66t50 94q13 29 39.5 90t61 142t75.5 176.5t82.5 194.5t82 195.5t75 179.5t61 147t39.5 97h114q18 -45 47.5 -120.5t65 -169.5t75.5 -199.5t79.5 -211t76.5 -203.5t67.5 -177.5t51 -134t27.5 -70.5q12 -31 28.5 -54.5
t53.5 -41.5q25 -12 53.5 -17t54.5 -8v-14h-755v14q26 2 63 6t71.5 11.5t58.5 19.5t24 31q0 12 -2.5 23.5t-5.5 19.5l-140 373h-456q-3 -8 -12 -30.5t-20.5 -51.5t-24 -61.5t-23.5 -61t-19 -49.5t-10 -27q-14 -40 -22.5 -73.5t-8.5 -53.5q0 -18 13 -30t34.5 -20t48.5 -12.5
t54 -7t51.5 -4t42.5 -2.5v-14h-500zM338 537h426l-205 530zM457 1691q0 49 21 89.5t57 69t84 44.5t102 16q57 0 105.5 -15.5t83.5 -44t55 -69t20 -90.5q0 -48 -19 -88t-53.5 -69t-83 -45.5t-108.5 -16.5t-109 15.5t-83.5 44t-53 69t-18.5 90.5zM602 1691q0 -33 5.5 -67
t19.5 -61t36.5 -44.5t57.5 -17.5q34 0 57 17t37 44t19.5 61t5.5 68q0 32 -5.5 66t-19.5 61.5t-37 45.5t-57 18t-56.5 -17t-36.5 -44t-20 -61.5t-6 -68.5z" />
    <glyph glyph-name="AE" unicode="&#xc6;" horiz-adv-x="2042" 
d="M-68 0v14q15 1 33 3.5t37 7.5t37 11.5t33 14.5q24 12 48 37t48.5 58t48.5 72t47 79q5 8 32 54t68 116.5t92.5 159t105.5 182t107 184.5t97 167t75 130.5t42 73.5q-15 5 -43 8.5t-58.5 6t-58.5 3.5t-43 2v15h1251v-367h-22q-8 23 -24.5 56t-39 68.5t-49.5 71.5t-56.5 65
t-59 48t-56.5 23q-37 5 -82.5 7.5t-93.5 2.5h-162v-637h133q42 0 72 5.5t50.5 14.5t34 19.5t23.5 20.5q16 16 32.5 44t31 59t24.5 61t13 51h22v-584h-22q-3 24 -14 57t-26 65.5t-31.5 60.5t-29.5 42q-11 12 -25 22.5t-35 19t-50 13.5t-70 5h-133v-514q0 -56 7.5 -90.5
t31 -53t66 -24.5t112.5 -6q42 0 83.5 1t78 5.5t66 14.5t47.5 28q31 31 67 79.5t69 100t60.5 98.5t42.5 76h19l-27 -428h-1268v14q44 3 83.5 8t58.5 11q37 12 49 36t12 58v463h-465q-7 -13 -24 -44t-39 -69t-45 -79.5t-43 -76.5t-33 -58t-14 -25q-14 -25 -22 -44t-11.5 -34
t-4.5 -27t-1 -22q0 -26 24 -43.5t59.5 -29t75 -17.5t70.5 -7v-14h-539zM500 629h444v733h-24q-9 -15 -32.5 -55t-57 -97.5t-74 -128.5t-84.5 -147.5t-88 -155t-84 -149.5z" />
    <glyph glyph-name="Ccedilla" unicode="&#xc7;" horiz-adv-x="1339" 
d="M43 684q0 111 24.5 209.5t70.5 182t111 150t146 113t176 71t201 24.5q60 0 118 -8t110 -20.5t97 -29.5t79 -35l59 76h22l9 -524h-25q-41 130 -92 227t-110 160.5t-124 95t-133 31.5q-96 0 -164 -52.5t-111 -145t-63 -218t-20 -272.5q0 -161 23 -286t71.5 -210.5
t123.5 -130.5t179 -45q79 0 149 23t130 66t109.5 104t88.5 137l23 -10q-34 -81 -86.5 -153.5t-124.5 -127t-163.5 -86t-203.5 -31.5q-14 0 -27 1t-26 1v-71q63 1 114 -8t86.5 -31t55 -57t19.5 -85q0 -67 -33 -109t-93 -65.5t-145 -32t-188 -8.5v31q49 0 97.5 3.5t86.5 17
t62 40t24 72.5q0 48 -27.5 66t-89.5 18v221q-131 13 -244 67t-195.5 145t-129.5 216.5t-47 282.5z" />
    <glyph glyph-name="Egrave" unicode="&#xc8;" horiz-adv-x="1339" 
d="M39 0v14q43 3 83 8t58 11q37 12 49.5 36t12.5 58v1137q0 34 -12.5 61t-49.5 39q-25 8 -64 12.5t-77 7.5v15h1190v-367h-23q-8 23 -24 56t-39 68.5t-50 71.5t-56 65t-58.5 48t-56.5 23q-38 5 -83.5 7.5t-93.5 2.5h-161v-637h133q42 0 71.5 5.5t50.5 14.5t34.5 19.5
t23.5 20.5q16 16 32.5 44t30.5 59t24 61t13 51h23v-584h-23q-3 24 -14 57t-26 65.5t-31 60.5t-29 42q-11 12 -25 22.5t-35 19t-50.5 13.5t-69.5 5h-133v-514q0 -56 7.5 -90.5t31 -53t66 -24.5t112.5 -6q42 0 83 1t77.5 5.5t66 14.5t47.5 28q31 31 67 79.5t69 100t61 98.5
t43 76h18l-26 -428h-1268zM432 1839q0 20 8 38.5t23 33t37 23.5t51 9q26 0 47.5 -8.5t40.5 -24t36.5 -38.5t35.5 -52q18 -28 35 -57t38 -65.5t47.5 -83.5t63.5 -111l-12 -14q-105 68 -185 113.5t-131 74.5q-33 19 -58 36t-42.5 35.5t-26 40t-8.5 50.5z" />
    <glyph glyph-name="Eacute" unicode="&#xc9;" horiz-adv-x="1339" 
d="M39 0v14q43 3 83 8t58 11q37 12 49.5 36t12.5 58v1137q0 34 -12.5 61t-49.5 39q-25 8 -64 12.5t-77 7.5v15h1190v-367h-23q-8 23 -24 56t-39 68.5t-50 71.5t-56 65t-58.5 48t-56.5 23q-38 5 -83.5 7.5t-93.5 2.5h-161v-637h133q42 0 71.5 5.5t50.5 14.5t34.5 19.5
t23.5 20.5q16 16 32.5 44t30.5 59t24 61t13 51h23v-584h-23q-3 24 -14 57t-26 65.5t-31 60.5t-29 42q-11 12 -25 22.5t-35 19t-50.5 13.5t-69.5 5h-133v-514q0 -56 7.5 -90.5t31 -53t66 -24.5t112.5 -6q42 0 83 1t77.5 5.5t66 14.5t47.5 28q31 31 67 79.5t69 100t61 98.5
t43 76h18l-26 -428h-1268zM557 1503q37 64 63.5 111t47.5 83.5t38 65.5t35 57q18 29 35.5 52t36.5 38.5t40.5 24t47.5 8.5q28 0 50.5 -9t37.5 -23.5t23 -33t8 -38.5q0 -29 -8.5 -50.5t-26 -40t-42.5 -35.5t-58 -36q-51 -29 -131 -74.5t-185 -113.5z" />
    <glyph glyph-name="Ecircumflex" unicode="&#xca;" horiz-adv-x="1339" 
d="M39 0v14q43 3 83 8t58 11q37 12 49.5 36t12.5 58v1137q0 34 -12.5 61t-49.5 39q-25 8 -64 12.5t-77 7.5v15h1190v-367h-23q-8 23 -24 56t-39 68.5t-50 71.5t-56 65t-58.5 48t-56.5 23q-38 5 -83.5 7.5t-93.5 2.5h-161v-637h133q42 0 71.5 5.5t50.5 14.5t34.5 19.5
t23.5 20.5q16 16 32.5 44t30.5 59t24 61t13 51h23v-584h-23q-3 24 -14 57t-26 65.5t-31 60.5t-29 42q-11 12 -25 22.5t-35 19t-50.5 13.5t-69.5 5h-133v-514q0 -56 7.5 -90.5t31 -53t66 -24.5t112.5 -6q42 0 83 1t77.5 5.5t66 14.5t47.5 28q31 31 67 79.5t69 100t61 98.5
t43 76h18l-26 -428h-1268zM352 1519q31 55 63 108t61 101t54.5 89t44.5 71q8 12 17 20t22.5 12.5t32 6.5t45.5 2t45.5 -2.5t31.5 -7t21.5 -11.5t14.5 -16q17 -26 42 -66.5t55 -89.5t63 -104.5t65 -112.5l-23 -16l-319 237l-315 -235z" />
    <glyph glyph-name="Edieresis" unicode="&#xcb;" horiz-adv-x="1339" 
d="M39 0v14q43 3 83 8t58 11q37 12 49.5 36t12.5 58v1137q0 34 -12.5 61t-49.5 39q-25 8 -64 12.5t-77 7.5v15h1190v-367h-23q-8 23 -24 56t-39 68.5t-50 71.5t-56 65t-58.5 48t-56.5 23q-38 5 -83.5 7.5t-93.5 2.5h-161v-637h133q42 0 71.5 5.5t50.5 14.5t34.5 19.5
t23.5 20.5q16 16 32.5 44t30.5 59t24 61t13 51h23v-584h-23q-3 24 -14 57t-26 65.5t-31 60.5t-29 42q-11 12 -25 22.5t-35 19t-50.5 13.5t-69.5 5h-133v-514q0 -56 7.5 -90.5t31 -53t66 -24.5t112.5 -6q42 0 83 1t77.5 5.5t66 14.5t47.5 28q31 31 67 79.5t69 100t61 98.5
t43 76h18l-26 -428h-1268zM309 1710q0 32 12 61t32.5 51t48 35t59.5 13q31 0 58.5 -13t48 -35t32.5 -51t12 -61t-12 -61t-32.5 -51t-48 -35t-58.5 -13q-32 0 -59.5 13t-48 35t-32.5 51t-12 61zM760 1710q0 32 12 61t32 51t47.5 35t59.5 13q31 0 58.5 -13t48.5 -35t33 -51
t12 -61t-12 -61t-33 -51t-48.5 -35t-58.5 -13q-32 0 -59.5 13t-47.5 35t-32 51t-12 61z" />
    <glyph glyph-name="Igrave" unicode="&#xcc;" horiz-adv-x="834" 
d="M39 0v14q21 1 43 3.5t41.5 4.5t35.5 5t25 6q37 12 49.5 36t12.5 58v1137q0 34 -12.5 61t-49.5 39q-12 4 -29 7t-36.5 5.5t-40 4t-39.5 3.5v15h756v-15q-13 -2 -32.5 -3.5t-40.5 -3.5t-40.5 -4.5t-32.5 -6.5q-37 -11 -49 -38.5t-12 -61.5v-1135q0 -34 13 -60t48 -38
q9 -3 26.5 -6t38 -5t42 -4.5t39.5 -3.5v-14h-756zM128 1839q0 20 8 38.5t23 33t37 23.5t51 9q26 0 47.5 -8.5t40.5 -24t36.5 -38.5t35.5 -52q18 -28 35 -57t38 -65.5t47.5 -83.5t63.5 -111l-12 -14q-105 68 -185 113.5t-131 74.5q-33 19 -58 36t-42.5 35.5t-26 40t-8.5 50.5
z" />
    <glyph glyph-name="Iacute" unicode="&#xcd;" horiz-adv-x="834" 
d="M39 0v14q21 1 43 3.5t41.5 4.5t35.5 5t25 6q37 12 49.5 36t12.5 58v1137q0 34 -12.5 61t-49.5 39q-12 4 -29 7t-36.5 5.5t-40 4t-39.5 3.5v15h756v-15q-13 -2 -32.5 -3.5t-40.5 -3.5t-40.5 -4.5t-32.5 -6.5q-37 -11 -49 -38.5t-12 -61.5v-1135q0 -34 13 -60t48 -38
q9 -3 26.5 -6t38 -5t42 -4.5t39.5 -3.5v-14h-756zM255 1503q37 64 63.5 111t47.5 83.5t38 65.5t35 57q18 29 35.5 52t36.5 38.5t40.5 24t47.5 8.5q28 0 50.5 -9t37.5 -23.5t23 -33t8 -38.5q0 -29 -8.5 -50.5t-26 -40t-42.5 -35.5t-58 -36q-51 -29 -131 -74.5t-185 -113.5z
" />
    <glyph glyph-name="Icircumflex" unicode="&#xce;" horiz-adv-x="834" 
d="M39 0v14q21 1 43 3.5t41.5 4.5t35.5 5t25 6q37 12 49.5 36t12.5 58v1137q0 34 -12.5 61t-49.5 39q-12 4 -29 7t-36.5 5.5t-40 4t-39.5 3.5v15h756v-15q-13 -2 -32.5 -3.5t-40.5 -3.5t-40.5 -4.5t-32.5 -6.5q-37 -11 -49 -38.5t-12 -61.5v-1135q0 -34 13 -60t48 -38
q9 -3 26.5 -6t38 -5t42 -4.5t39.5 -3.5v-14h-756zM77 1519q31 55 63 108t61 101t54.5 89t44.5 71q8 12 17 20t22.5 12.5t32 6.5t45.5 2t45.5 -2.5t31.5 -7t21.5 -11.5t14.5 -16q17 -26 42 -66.5t55 -89.5t63 -104.5t65 -112.5l-23 -16l-319 237l-315 -235z" />
    <glyph glyph-name="Idieresis" unicode="&#xcf;" horiz-adv-x="834" 
d="M39 0v14q21 1 43 3.5t41.5 4.5t35.5 5t25 6q37 12 49.5 36t12.5 58v1137q0 34 -12.5 61t-49.5 39q-12 4 -29 7t-36.5 5.5t-40 4t-39.5 3.5v15h756v-15q-13 -2 -32.5 -3.5t-40.5 -3.5t-40.5 -4.5t-32.5 -6.5q-37 -11 -49 -38.5t-12 -61.5v-1135q0 -34 13 -60t48 -38
q9 -3 26.5 -6t38 -5t42 -4.5t39.5 -3.5v-14h-756zM40 1710q0 32 12 61t32.5 51t48 35t59.5 13q31 0 58.5 -13t48 -35t32.5 -51t12 -61t-12 -61t-32.5 -51t-48 -35t-58.5 -13q-32 0 -59.5 13t-48 35t-32.5 51t-12 61zM491 1710q0 32 12 61t32 51t47.5 35t59.5 13
q31 0 58.5 -13t48.5 -35t33 -51t12 -61t-12 -61t-33 -51t-48.5 -35t-58.5 -13q-32 0 -59.5 13t-47.5 35t-32 51t-12 61z" />
    <glyph glyph-name="Eth" unicode="&#xd0;" horiz-adv-x="1556" 
d="M39 0v14q43 3 83 8t58 11q37 12 49.5 36t12.5 58v578h-166v57h166v502q0 34 -12.5 61t-49.5 39q-25 8 -64 12.5t-77 7.5v15h698q73 0 159 -13.5t172.5 -45.5t166.5 -85t142 -132t99 -186t37 -247q0 -119 -31 -216.5t-85.5 -174.5t-130 -133t-165 -93t-188.5 -55t-202 -18
h-672zM584 154q0 -66 42.5 -98.5t121.5 -32.5q103 0 176 47t118.5 134t66.5 211t21 277q0 155 -28.5 281.5t-82.5 216t-132 138t-176 48.5q-28 0 -63.5 -1t-63.5 -3v-610h254v-57h-254v-551z" />
    <glyph glyph-name="Ntilde" unicode="&#xd1;" horiz-adv-x="1487" 
d="M-14 1380v19h524l715 -944v610q0 119 -18 185.5t-52 95.5q-12 10 -38.5 17t-56 11t-56 6t-39.5 4v15h546v-15q-12 -2 -35.5 -3.5t-51 -4.5t-54.5 -10t-45 -20q-34 -26 -49.5 -95t-15.5 -184v-1073h-91l-893 1175v-841q0 -61 4.5 -107t13 -79.5t21 -56.5t29.5 -38
q13 -11 39.5 -17t55 -9t54.5 -4.5t39 -2.5v-14h-540v14q12 2 35.5 2.5t50.5 2.5t53.5 8t44.5 20q35 26 50.5 94.5t15.5 186.5v817q0 48 -15 88t-49 74q-16 16 -37.5 27t-46 19t-52 14t-56.5 13zM383 1538q13 38 36.5 88t58 94.5t80 75.5t102.5 31q55 0 100 -16.5t85 -36
t79 -36t82 -16.5q53 0 95.5 28t70.5 99l27 -8q-12 -41 -35.5 -91.5t-59 -95t-83 -74.5t-107.5 -30q-55 0 -98 16.5t-81 37t-74 37t-77 16.5q-49 0 -94.5 -30t-79.5 -100z" />
    <glyph glyph-name="Ograve" unicode="&#xd2;" horiz-adv-x="1554" 
d="M43 684q0 184 63 327t173 240q99 88 226 134.5t273 46.5t276 -45t230 -136q51 -47 93 -104.5t72 -125.5t46 -146t16 -166q0 -172 -59 -317.5t-172 -248.5q-97 -88 -223 -132t-287 -44q-149 0 -280.5 48.5t-231.5 142.5t-157.5 226.5t-57.5 299.5zM428 694
q0 -148 18.5 -276.5t60.5 -223t108.5 -148.5t162.5 -54q95 0 161.5 53.5t108 148.5t60 225t18.5 283q0 90 -7 177.5t-23 166t-42.5 144.5t-65 114.5t-90.5 75.5t-120 27q-87 0 -153 -48t-109.5 -139.5t-65.5 -224t-22 -301.5zM499 1839q0 20 8 38.5t23 33t37 23.5t51 9
q26 0 47.5 -8.5t40.5 -24t36.5 -38.5t35.5 -52q18 -28 35 -57t38 -65.5t47.5 -83.5t63.5 -111l-12 -14q-105 68 -185 113.5t-131 74.5q-33 19 -58 36t-42.5 35.5t-26 40t-8.5 50.5z" />
    <glyph glyph-name="Oacute" unicode="&#xd3;" horiz-adv-x="1554" 
d="M43 684q0 184 63 327t173 240q99 88 226 134.5t273 46.5t276 -45t230 -136q51 -47 93 -104.5t72 -125.5t46 -146t16 -166q0 -172 -59 -317.5t-172 -248.5q-97 -88 -223 -132t-287 -44q-149 0 -280.5 48.5t-231.5 142.5t-157.5 226.5t-57.5 299.5zM428 694
q0 -148 18.5 -276.5t60.5 -223t108.5 -148.5t162.5 -54q95 0 161.5 53.5t108 148.5t60 225t18.5 283q0 90 -7 177.5t-23 166t-42.5 144.5t-65 114.5t-90.5 75.5t-120 27q-87 0 -153 -48t-109.5 -139.5t-65.5 -224t-22 -301.5zM580 1503q37 64 63.5 111t47.5 83.5t38 65.5
t35 57q18 29 35.5 52t36.5 38.5t40.5 24t47.5 8.5q28 0 50.5 -9t37.5 -23.5t23 -33t8 -38.5q0 -29 -8.5 -50.5t-26 -40t-42.5 -35.5t-58 -36q-51 -29 -131 -74.5t-185 -113.5z" />
    <glyph glyph-name="Ocircumflex" unicode="&#xd4;" horiz-adv-x="1554" 
d="M43 684q0 184 63 327t173 240q99 88 226 134.5t273 46.5t276 -45t230 -136q51 -47 93 -104.5t72 -125.5t46 -146t16 -166q0 -172 -59 -317.5t-172 -248.5q-97 -88 -223 -132t-287 -44q-149 0 -280.5 48.5t-231.5 142.5t-157.5 226.5t-57.5 299.5zM428 694
q0 -148 18.5 -276.5t60.5 -223t108.5 -148.5t162.5 -54q95 0 161.5 53.5t108 148.5t60 225t18.5 283q0 90 -7 177.5t-23 166t-42.5 144.5t-65 114.5t-90.5 75.5t-120 27q-87 0 -153 -48t-109.5 -139.5t-65.5 -224t-22 -301.5zM440 1519q31 55 63 108t61 101t54.5 89t44.5 71
q8 12 17 20t22.5 12.5t32 6.5t45.5 2t45.5 -2.5t31.5 -7t21.5 -11.5t14.5 -16q17 -26 42 -66.5t55 -89.5t63 -104.5t65 -112.5l-23 -16l-319 237l-315 -235z" />
    <glyph glyph-name="Otilde" unicode="&#xd5;" horiz-adv-x="1554" 
d="M43 684q0 184 63 327t173 240q99 88 226 134.5t273 46.5t276 -45t230 -136q51 -47 93 -104.5t72 -125.5t46 -146t16 -166q0 -172 -59 -317.5t-172 -248.5q-97 -88 -223 -132t-287 -44q-149 0 -280.5 48.5t-231.5 142.5t-157.5 226.5t-57.5 299.5zM372 1538q13 38 36.5 88
t58 94.5t80 75.5t102.5 31q55 0 100 -16.5t85 -36t79 -36t82 -16.5q53 0 95.5 28t70.5 99l27 -8q-12 -41 -35.5 -91.5t-59 -95t-83 -74.5t-107.5 -30q-55 0 -98 16.5t-81 37t-74 37t-77 16.5q-49 0 -94.5 -30t-79.5 -100zM428 694q0 -148 18.5 -276.5t60.5 -223
t108.5 -148.5t162.5 -54q95 0 161.5 53.5t108 148.5t60 225t18.5 283q0 90 -7 177.5t-23 166t-42.5 144.5t-65 114.5t-90.5 75.5t-120 27q-87 0 -153 -48t-109.5 -139.5t-65.5 -224t-22 -301.5z" />
    <glyph glyph-name="Odieresis" unicode="&#xd6;" horiz-adv-x="1554" 
d="M43 684q0 184 63 327t173 240q99 88 226 134.5t273 46.5t276 -45t230 -136q51 -47 93 -104.5t72 -125.5t46 -146t16 -166q0 -172 -59 -317.5t-172 -248.5q-97 -88 -223 -132t-287 -44q-149 0 -280.5 48.5t-231.5 142.5t-157.5 226.5t-57.5 299.5zM403 1710q0 32 12 61
t32.5 51t48 35t59.5 13q31 0 58.5 -13t48 -35t32.5 -51t12 -61t-12 -61t-32.5 -51t-48 -35t-58.5 -13q-32 0 -59.5 13t-48 35t-32.5 51t-12 61zM428 694q0 -148 18.5 -276.5t60.5 -223t108.5 -148.5t162.5 -54q95 0 161.5 53.5t108 148.5t60 225t18.5 283q0 90 -7 177.5
t-23 166t-42.5 144.5t-65 114.5t-90.5 75.5t-120 27q-87 0 -153 -48t-109.5 -139.5t-65.5 -224t-22 -301.5zM854 1710q0 32 12 61t32 51t47.5 35t59.5 13q31 0 58.5 -13t48.5 -35t33 -51t12 -61t-12 -61t-33 -51t-48.5 -35t-58.5 -13q-32 0 -59.5 13t-47.5 35t-32 51t-12 61
z" />
    <glyph glyph-name="multiply" unicode="&#xd7;" horiz-adv-x="1159" 
d="M133 150l383 378l-375 375l72 70l373 -373l370 373l64 -66l-373 -370l379 -377l-70 -72l-378 379l-379 -383z" />
    <glyph glyph-name="Oslash" unicode="&#xd8;" horiz-adv-x="1554" 
d="M43 684q0 184 63 327t173 240q99 88 226 134.5t273 46.5q140 0 265.5 -41.5t224.5 -124.5l178 190l29 -22l-181 -193q49 -47 89 -103.5t68.5 -123.5t44 -143t15.5 -162q0 -172 -59 -317.5t-172 -248.5q-97 -88 -223 -132t-287 -44q-142 0 -269 44t-227 132l-196 -211
l-27 23l197 211q-96 94 -150.5 224t-54.5 294zM428 694q0 -85 5 -162.5t18 -146.5l639 688q-18 73 -45 134.5t-64.5 105.5t-88 69t-114.5 25q-87 0 -153 -48t-109.5 -139.5t-65.5 -224t-22 -301.5zM459 342q18 -79 45.5 -143.5t67 -110.5t90.5 -71t116 -25q95 0 161.5 53.5
t108 148.5t60 225t18.5 283q0 87 -6.5 170t-21.5 158z" />
    <glyph glyph-name="Ugrave" unicode="&#xd9;" horiz-adv-x="1542" 
d="M14 1384v15h750v-15q-13 -2 -32 -3.5t-39.5 -3.5t-39 -4.5t-30.5 -6.5q-39 -12 -51.5 -39t-12.5 -61v-820q0 -105 20 -180t60 -123.5t101 -71t143 -22.5q81 0 153 27t126 81t86 134t32 186v592q0 64 -5 110.5t-14 79t-22.5 53.5t-30.5 36q-12 10 -37.5 16.5t-54 10.5
t-55 5.5t-39.5 3.5v15h545v-15q-18 -2 -43.5 -3.5t-52 -5t-51 -10.5t-40.5 -19q-18 -14 -30.5 -34.5t-20 -53t-11 -78t-3.5 -109.5v-604q0 -124 -39.5 -217.5t-109 -156.5t-164 -94.5t-203.5 -31.5q-142 0 -251 36t-183 102t-112 158t-38 204v793q0 34 -13.5 58.5
t-47.5 43.5q-14 7 -33 11t-39 6t-38 2.5t-30 2.5zM573 1839q0 20 8 38.5t23 33t37 23.5t51 9q26 0 47.5 -8.5t40.5 -24t36.5 -38.5t35.5 -52q18 -28 35 -57t38 -65.5t47.5 -83.5t63.5 -111l-12 -14q-105 68 -185 113.5t-131 74.5q-33 19 -58 36t-42.5 35.5t-26 40t-8.5 50.5
z" />
    <glyph glyph-name="Uacute" unicode="&#xda;" horiz-adv-x="1542" 
d="M14 1384v15h750v-15q-13 -2 -32 -3.5t-39.5 -3.5t-39 -4.5t-30.5 -6.5q-39 -12 -51.5 -39t-12.5 -61v-820q0 -105 20 -180t60 -123.5t101 -71t143 -22.5q81 0 153 27t126 81t86 134t32 186v592q0 64 -5 110.5t-14 79t-22.5 53.5t-30.5 36q-12 10 -37.5 16.5t-54 10.5
t-55 5.5t-39.5 3.5v15h545v-15q-18 -2 -43.5 -3.5t-52 -5t-51 -10.5t-40.5 -19q-18 -14 -30.5 -34.5t-20 -53t-11 -78t-3.5 -109.5v-604q0 -124 -39.5 -217.5t-109 -156.5t-164 -94.5t-203.5 -31.5q-142 0 -251 36t-183 102t-112 158t-38 204v793q0 34 -13.5 58.5
t-47.5 43.5q-14 7 -33 11t-39 6t-38 2.5t-30 2.5zM707 1503q37 64 63.5 111t47.5 83.5t38 65.5t35 57q18 29 35.5 52t36.5 38.5t40.5 24t47.5 8.5q28 0 50.5 -9t37.5 -23.5t23 -33t8 -38.5q0 -29 -8.5 -50.5t-26 -40t-42.5 -35.5t-58 -36q-51 -29 -131 -74.5t-185 -113.5z
" />
    <glyph glyph-name="Ucircumflex" unicode="&#xdb;" horiz-adv-x="1542" 
d="M14 1384v15h750v-15q-13 -2 -32 -3.5t-39.5 -3.5t-39 -4.5t-30.5 -6.5q-39 -12 -51.5 -39t-12.5 -61v-820q0 -105 20 -180t60 -123.5t101 -71t143 -22.5q81 0 153 27t126 81t86 134t32 186v592q0 64 -5 110.5t-14 79t-22.5 53.5t-30.5 36q-12 10 -37.5 16.5t-54 10.5
t-55 5.5t-39.5 3.5v15h545v-15q-18 -2 -43.5 -3.5t-52 -5t-51 -10.5t-40.5 -19q-18 -14 -30.5 -34.5t-20 -53t-11 -78t-3.5 -109.5v-604q0 -124 -39.5 -217.5t-109 -156.5t-164 -94.5t-203.5 -31.5q-142 0 -251 36t-183 102t-112 158t-38 204v793q0 34 -13.5 58.5
t-47.5 43.5q-14 7 -33 11t-39 6t-38 2.5t-30 2.5zM516 1519q31 55 63 108t61 101t54.5 89t44.5 71q8 12 17 20t22.5 12.5t32 6.5t45.5 2t45.5 -2.5t31.5 -7t21.5 -11.5t14.5 -16q17 -26 42 -66.5t55 -89.5t63 -104.5t65 -112.5l-23 -16l-319 237l-315 -235z" />
    <glyph glyph-name="Udieresis" unicode="&#xdc;" horiz-adv-x="1542" 
d="M14 1384v15h750v-15q-13 -2 -32 -3.5t-39.5 -3.5t-39 -4.5t-30.5 -6.5q-39 -12 -51.5 -39t-12.5 -61v-820q0 -105 20 -180t60 -123.5t101 -71t143 -22.5q81 0 153 27t126 81t86 134t32 186v592q0 64 -5 110.5t-14 79t-22.5 53.5t-30.5 36q-12 10 -37.5 16.5t-54 10.5
t-55 5.5t-39.5 3.5v15h545v-15q-18 -2 -43.5 -3.5t-52 -5t-51 -10.5t-40.5 -19q-18 -14 -30.5 -34.5t-20 -53t-11 -78t-3.5 -109.5v-604q0 -124 -39.5 -217.5t-109 -156.5t-164 -94.5t-203.5 -31.5q-142 0 -251 36t-183 102t-112 158t-38 204v793q0 34 -13.5 58.5
t-47.5 43.5q-14 7 -33 11t-39 6t-38 2.5t-30 2.5zM493 1710q0 32 12 61t32.5 51t48 35t59.5 13q31 0 58.5 -13t48 -35t32.5 -51t12 -61t-12 -61t-32.5 -51t-48 -35t-58.5 -13q-32 0 -59.5 13t-48 35t-32.5 51t-12 61zM944 1710q0 32 12 61t32 51t47.5 35t59.5 13
q31 0 58.5 -13t48.5 -35t33 -51t12 -61t-12 -61t-33 -51t-48.5 -35t-58.5 -13q-32 0 -59.5 13t-47.5 35t-32 51t-12 61z" />
    <glyph glyph-name="Yacute" unicode="&#xdd;" horiz-adv-x="1401" 
d="M-74 1384v15h801v-15q-27 -2 -65 -4.5t-73.5 -8.5t-60 -15.5t-24.5 -24.5q0 -5 6.5 -23.5t18.5 -45.5t28.5 -61.5t36.5 -72.5q5 -11 21.5 -42t39.5 -74.5t51 -94.5t55.5 -101.5t53 -96.5t45.5 -78q22 41 52.5 95.5t63.5 115t67 122t63 116.5q53 99 77.5 153t24.5 70
q0 21 -20.5 33.5t-52.5 20t-70 11.5t-72 6v15h465v-15q-37 -5 -62 -10.5t-46 -17.5q-44 -25 -75 -66t-58 -88q-39 -64 -71.5 -119.5t-64 -111.5t-65 -116t-72.5 -132q-26 -48 -41.5 -85t-23 -71.5t-9.5 -70.5t-2 -84v-275q0 -32 14 -59.5t48 -42.5q9 -4 31 -7.5t47 -6
t49 -4.5t37 -3v-14h-797v14q14 1 38 2t49 3t47 5t32 7q37 14 50 41t13 61v320q0 34 -2 58.5t-9 48t-19 50t-33 64.5q-12 22 -36 65.5t-53.5 97t-61.5 112t-61 110.5t-51.5 92.5t-33.5 58.5q-28 47 -61 85.5t-68 60.5q-28 17 -55 21.5t-56 6.5zM664 1503q37 64 63.5 111
t47.5 83.5t38 65.5t35 57q18 29 35.5 52t36.5 38.5t40.5 24t47.5 8.5q28 0 50.5 -9t37.5 -23.5t23 -33t8 -38.5q0 -29 -8.5 -50.5t-26 -40t-42.5 -35.5t-58 -36q-51 -29 -131 -74.5t-185 -113.5z" />
    <glyph glyph-name="Thorn" unicode="&#xde;" horiz-adv-x="1288" 
d="M23 0v14q13 1 36 3t46.5 4.5t44 6t30.5 7.5q37 14 49.5 40t12.5 60v1125q0 34 -12 60t-50 40q-17 6 -38.5 10t-43 6.5t-41 4t-32.5 3.5v15h768v-15q-14 -1 -33.5 -2t-39.5 -3t-39.5 -5.5t-33.5 -7.5q-37 -12 -50 -37t-13 -59v-172h180q261 0 391.5 -85t130.5 -263
q0 -77 -23.5 -139.5t-65 -111t-99 -83.5t-125.5 -58t-143.5 -34t-153.5 -11h-92v-176q0 -34 13 -61t48 -41q9 -4 27.5 -7t41.5 -5.5t48 -5t49 -3.5v-14h-788zM584 342h37q84 0 141 30t92 79.5t50.5 114t15.5 134.5q0 78 -14 145.5t-46 117.5t-84 79t-127 29h-65v-729z" />
    <glyph glyph-name="germandbls" unicode="&#xdf;" horiz-adv-x="1276" 
d="M-18 911v33h186v41q0 128 34 230t103 178q63 68 159.5 102.5t215.5 34.5q74 0 141 -18t118 -52t81.5 -83.5t30.5 -112.5q0 -48 -12.5 -87t-34.5 -69.5t-51 -53.5t-62 -40q-34 -18 -65.5 -32.5t-56 -28.5t-39.5 -30t-15 -38t18 -44t54 -48t88.5 -59t121.5 -77
q69 -42 115 -81t73.5 -80t38.5 -87.5t11 -103.5q0 -75 -29 -137t-79.5 -105.5t-119.5 -67.5t-149 -24q-82 0 -140 17t-94.5 46.5t-53.5 67.5t-17 80q0 28 7.5 55t23 48t39.5 34t57 13q31 0 53.5 -9.5t37.5 -25.5t22.5 -37.5t7.5 -46.5q0 -22 -6.5 -40t-15 -33t-15 -29
t-6.5 -29t6.5 -31t20 -28.5t33 -20.5t46.5 -8q35 0 64 14.5t50 38.5t32.5 56.5t11.5 68.5q0 33 -8 64t-31 62.5t-64 64.5t-106 71q-55 30 -98.5 60t-74 63t-46.5 71t-16 83q0 42 13.5 74.5t36 62t52.5 59.5t63 68q34 37 52 97t18 138q0 143 -43.5 221t-122.5 78
q-48 0 -82.5 -23.5t-57 -75.5t-33 -134.5t-11.5 -200.5v-1075h-438v14q27 2 46.5 5t41.5 10q29 9 42 33.5t13 58.5v790h-186z" />
    <glyph glyph-name="agrave" unicode="&#xe0;" horiz-adv-x="1032" 
d="M41 203q0 65 17 109.5t45 74t64 48t75 32.5q46 17 97.5 31.5t99 28t85.5 27t58 28.5v135q0 26 -2 66t-13 77.5t-34.5 64.5t-67.5 27q-38 0 -68 -13t-43 -26q2 -12 9.5 -33.5t16 -47t15 -52.5t6.5 -51q0 -17 -11 -37.5t-32.5 -38t-53 -29.5t-71.5 -12t-68 12.5t-45.5 33
t-25.5 45.5t-8 51q0 48 37 88t94.5 69t127.5 45.5t136 16.5q82 0 155 -9.5t127.5 -42t86 -93t31.5 -162.5q0 -70 -2 -146.5t-4.5 -145t-4.5 -123t-2 -79.5q0 -12 4.5 -28.5t13.5 -31.5t23 -25.5t33 -10.5q47 0 76 52.5t31 143.5h24q-2 -65 -15 -119.5t-42 -94.5t-76.5 -62.5
t-116.5 -22.5q-49 0 -86 10t-65 28t-48.5 42.5t-35.5 52.5h-6q-26 -27 -52 -51.5t-60 -43.5t-77.5 -30.5t-103.5 -11.5q-52 0 -97.5 17.5t-79 49t-52.5 74t-19 93.5zM239 1442q0 20 8 38.5t23 33t37 23.5t51 9q26 0 47.5 -8.5t40.5 -24t36.5 -38.5t35.5 -52q18 -28 35 -57
t38 -65.5t47.5 -83.5t63.5 -111l-12 -14q-105 68 -185 113.5t-131 74.5q-33 19 -58 36t-42.5 35.5t-26 40t-8.5 50.5zM352 260q0 -98 29.5 -140t73.5 -42q42 0 69.5 15t50.5 50l9 406q-61 -24 -104.5 -48t-72 -56t-42 -76.5t-13.5 -108.5z" />
    <glyph glyph-name="aacute" unicode="&#xe1;" horiz-adv-x="1032" 
d="M41 203q0 65 17 109.5t45 74t64 48t75 32.5q46 17 97.5 31.5t99 28t85.5 27t58 28.5v135q0 26 -2 66t-13 77.5t-34.5 64.5t-67.5 27q-38 0 -68 -13t-43 -26q2 -12 9.5 -33.5t16 -47t15 -52.5t6.5 -51q0 -17 -11 -37.5t-32.5 -38t-53 -29.5t-71.5 -12t-68 12.5t-45.5 33
t-25.5 45.5t-8 51q0 48 37 88t94.5 69t127.5 45.5t136 16.5q82 0 155 -9.5t127.5 -42t86 -93t31.5 -162.5q0 -70 -2 -146.5t-4.5 -145t-4.5 -123t-2 -79.5q0 -12 4.5 -28.5t13.5 -31.5t23 -25.5t33 -10.5q47 0 76 52.5t31 143.5h24q-2 -65 -15 -119.5t-42 -94.5t-76.5 -62.5
t-116.5 -22.5q-49 0 -86 10t-65 28t-48.5 42.5t-35.5 52.5h-6q-26 -27 -52 -51.5t-60 -43.5t-77.5 -30.5t-103.5 -11.5q-52 0 -97.5 17.5t-79 49t-52.5 74t-19 93.5zM352 260q0 -98 29.5 -140t73.5 -42q42 0 69.5 15t50.5 50l9 406q-61 -24 -104.5 -48t-72 -56t-42 -76.5
t-13.5 -108.5zM352 1106q37 64 63.5 111t47.5 83.5t38 65.5t35 57q18 29 35.5 52t36.5 38.5t40.5 24t47.5 8.5q28 0 50.5 -9t37.5 -23.5t23 -33t8 -38.5q0 -29 -8.5 -50.5t-26 -40t-42.5 -35.5t-58 -36q-51 -29 -131 -74.5t-185 -113.5z" />
    <glyph glyph-name="acircumflex" unicode="&#xe2;" horiz-adv-x="1032" 
d="M41 203q0 65 17 109.5t45 74t64 48t75 32.5q46 17 97.5 31.5t99 28t85.5 27t58 28.5v135q0 26 -2 66t-13 77.5t-34.5 64.5t-67.5 27q-38 0 -68 -13t-43 -26q2 -12 9.5 -33.5t16 -47t15 -52.5t6.5 -51q0 -17 -11 -37.5t-32.5 -38t-53 -29.5t-71.5 -12t-68 12.5t-45.5 33
t-25.5 45.5t-8 51q0 48 37 88t94.5 69t127.5 45.5t136 16.5q82 0 155 -9.5t127.5 -42t86 -93t31.5 -162.5q0 -70 -2 -146.5t-4.5 -145t-4.5 -123t-2 -79.5q0 -12 4.5 -28.5t13.5 -31.5t23 -25.5t33 -10.5q47 0 76 52.5t31 143.5h24q-2 -65 -15 -119.5t-42 -94.5t-76.5 -62.5
t-116.5 -22.5q-49 0 -86 10t-65 28t-48.5 42.5t-35.5 52.5h-6q-26 -27 -52 -51.5t-60 -43.5t-77.5 -30.5t-103.5 -11.5q-52 0 -97.5 17.5t-79 49t-52.5 74t-19 93.5zM180 1122q31 55 63 108t61 101t54.5 89t44.5 71q8 12 17 20t22.5 12.5t32 6.5t45.5 2t45.5 -2.5t31.5 -7
t21.5 -11.5t14.5 -16q17 -26 42 -66.5t55 -89.5t63 -104.5t65 -112.5l-23 -16l-319 237l-315 -235zM352 260q0 -98 29.5 -140t73.5 -42q42 0 69.5 15t50.5 50l9 406q-61 -24 -104.5 -48t-72 -56t-42 -76.5t-13.5 -108.5z" />
    <glyph glyph-name="atilde" unicode="&#xe3;" horiz-adv-x="1032" 
d="M41 203q0 65 17 109.5t45 74t64 48t75 32.5q46 17 97.5 31.5t99 28t85.5 27t58 28.5v135q0 26 -2 66t-13 77.5t-34.5 64.5t-67.5 27q-38 0 -68 -13t-43 -26q2 -12 9.5 -33.5t16 -47t15 -52.5t6.5 -51q0 -17 -11 -37.5t-32.5 -38t-53 -29.5t-71.5 -12t-68 12.5t-45.5 33
t-25.5 45.5t-8 51q0 48 37 88t94.5 69t127.5 45.5t136 16.5q82 0 155 -9.5t127.5 -42t86 -93t31.5 -162.5q0 -70 -2 -146.5t-4.5 -145t-4.5 -123t-2 -79.5q0 -12 4.5 -28.5t13.5 -31.5t23 -25.5t33 -10.5q47 0 76 52.5t31 143.5h24q-2 -65 -15 -119.5t-42 -94.5t-76.5 -62.5
t-116.5 -22.5q-49 0 -86 10t-65 28t-48.5 42.5t-35.5 52.5h-6q-26 -27 -52 -51.5t-60 -43.5t-77.5 -30.5t-103.5 -11.5q-52 0 -97.5 17.5t-79 49t-52.5 74t-19 93.5zM127 1141q13 38 36.5 88t58 94.5t80 75.5t102.5 31q55 0 100 -16.5t85 -36t79 -36t82 -16.5q53 0 95.5 28
t70.5 99l27 -8q-12 -41 -35.5 -91.5t-59 -95t-83 -74.5t-107.5 -30q-55 0 -98 16.5t-81 37t-74 37t-77 16.5q-49 0 -94.5 -30t-79.5 -100zM352 260q0 -98 29.5 -140t73.5 -42q42 0 69.5 15t50.5 50l9 406q-61 -24 -104.5 -48t-72 -56t-42 -76.5t-13.5 -108.5z" />
    <glyph glyph-name="adieresis" unicode="&#xe4;" horiz-adv-x="1032" 
d="M41 203q0 65 17 109.5t45 74t64 48t75 32.5q46 17 97.5 31.5t99 28t85.5 27t58 28.5v135q0 26 -2 66t-13 77.5t-34.5 64.5t-67.5 27q-38 0 -68 -13t-43 -26q2 -12 9.5 -33.5t16 -47t15 -52.5t6.5 -51q0 -17 -11 -37.5t-32.5 -38t-53 -29.5t-71.5 -12t-68 12.5t-45.5 33
t-25.5 45.5t-8 51q0 48 37 88t94.5 69t127.5 45.5t136 16.5q82 0 155 -9.5t127.5 -42t86 -93t31.5 -162.5q0 -70 -2 -146.5t-4.5 -145t-4.5 -123t-2 -79.5q0 -12 4.5 -28.5t13.5 -31.5t23 -25.5t33 -10.5q47 0 76 52.5t31 143.5h24q-2 -65 -15 -119.5t-42 -94.5t-76.5 -62.5
t-116.5 -22.5q-49 0 -86 10t-65 28t-48.5 42.5t-35.5 52.5h-6q-26 -27 -52 -51.5t-60 -43.5t-77.5 -30.5t-103.5 -11.5q-52 0 -97.5 17.5t-79 49t-52.5 74t-19 93.5zM141 1296q0 32 12 61t32.5 51t48 35t59.5 13q31 0 58.5 -13t48 -35t32.5 -51t12 -61t-12 -61t-32.5 -51
t-48 -35t-58.5 -13q-32 0 -59.5 13t-48 35t-32.5 51t-12 61zM352 260q0 -98 29.5 -140t73.5 -42q42 0 69.5 15t50.5 50l9 406q-61 -24 -104.5 -48t-72 -56t-42 -76.5t-13.5 -108.5zM592 1296q0 32 12 61t32 51t47.5 35t59.5 13q31 0 58.5 -13t48.5 -35t33 -51t12 -61
t-12 -61t-33 -51t-48.5 -35t-58.5 -13q-32 0 -59.5 13t-47.5 35t-32 51t-12 61z" />
    <glyph glyph-name="aring" unicode="&#xe5;" horiz-adv-x="1032" 
d="M41 203q0 65 17 109.5t45 74t64 48t75 32.5q46 17 97.5 31.5t99 28t85.5 27t58 28.5v135q0 26 -2 66t-13 77.5t-34.5 64.5t-67.5 27q-38 0 -68 -13t-43 -26q2 -12 9.5 -33.5t16 -47t15 -52.5t6.5 -51q0 -17 -11 -37.5t-32.5 -38t-53 -29.5t-71.5 -12t-68 12.5t-45.5 33
t-25.5 45.5t-8 51q0 48 37 88t94.5 69t127.5 45.5t136 16.5q82 0 155 -9.5t127.5 -42t86 -93t31.5 -162.5q0 -70 -2 -146.5t-4.5 -145t-4.5 -123t-2 -79.5q0 -12 4.5 -28.5t13.5 -31.5t23 -25.5t33 -10.5q47 0 76 52.5t31 143.5h24q-2 -65 -15 -119.5t-42 -94.5t-76.5 -62.5
t-116.5 -22.5q-49 0 -86 10t-65 28t-48.5 42.5t-35.5 52.5h-6q-26 -27 -52 -51.5t-60 -43.5t-77.5 -30.5t-103.5 -11.5q-52 0 -97.5 17.5t-79 49t-52.5 74t-19 93.5zM248 1294q0 49 21 89.5t57 69t84 44.5t102 16q57 0 105.5 -15.5t83.5 -44t55 -69t20 -90.5q0 -48 -19 -88
t-53.5 -69t-83 -45.5t-108.5 -16.5t-109 15.5t-83.5 44t-53 69t-18.5 90.5zM352 260q0 -98 29.5 -140t73.5 -42q42 0 69.5 15t50.5 50l9 406q-61 -24 -104.5 -48t-72 -56t-42 -76.5t-13.5 -108.5zM393 1294q0 -33 5.5 -67t19.5 -61t36.5 -44.5t57.5 -17.5q34 0 57 17t37 44
t19.5 61t5.5 68q0 32 -5.5 66t-19.5 61.5t-37 45.5t-57 18t-56.5 -17t-36.5 -44t-20 -61.5t-6 -68.5z" />
    <glyph glyph-name="ae" unicode="&#xe6;" horiz-adv-x="1477" 
d="M41 203q0 65 17 109.5t45 74t64 48t75 32.5q46 17 97.5 31.5t99 28t85.5 27t58 28.5v135q0 26 -2 66t-13 77.5t-34.5 64.5t-67.5 27q-38 0 -68 -13t-43 -26q2 -12 9.5 -33.5t16 -47t15 -52.5t6.5 -51q0 -17 -11 -37.5t-32.5 -38t-53 -29.5t-71.5 -12t-68 12.5t-45.5 33
t-25.5 45.5t-8 51q0 48 37 88t94.5 69t127.5 45.5t136 16.5q88 0 161.5 -20.5t123.5 -69.5q54 40 119 65t143 25q117 0 198 -34t130.5 -90.5t71.5 -130t22 -153.5v-12h-580v-59q0 -91 15 -168t48 -133.5t85 -88.5t127 -32q94 0 171.5 43.5t133.5 150.5l23 -16
q-29 -59 -71 -110t-96.5 -89t-120.5 -60t-143 -22q-74 0 -136.5 14.5t-113 40.5t-90 63.5t-67.5 82.5q-38 -51 -75.5 -88.5t-79 -62.5t-88.5 -37.5t-103 -12.5q-52 0 -97.5 17.5t-79 49t-52.5 74t-19 93.5zM352 260q0 -98 29.5 -140t73.5 -42q42 0 69.5 15t50.5 50l9 406
q-61 -24 -104.5 -48t-72 -56t-42 -76.5t-13.5 -108.5zM870 580l263 4q0 60 -2.5 124t-13.5 117.5t-35.5 88t-67.5 34.5q-35 0 -61 -28.5t-43.5 -78t-27 -117t-12.5 -144.5z" />
    <glyph glyph-name="ccedilla" unicode="&#xe7;" horiz-adv-x="911" 
d="M37 477q0 97 32.5 186.5t95.5 158.5t155 110t212 41q88 0 152.5 -18t107.5 -50.5t64 -76.5t21 -95q0 -31 -10 -57.5t-30 -46.5t-49.5 -31.5t-68.5 -11.5q-74 0 -116 40t-42 105q0 15 8 38.5t18.5 48.5t20.5 47t13 34q-11 49 -86 49q-84 0 -129.5 -114t-45.5 -340
q0 -104 17.5 -182t49.5 -130.5t76.5 -79t98.5 -26.5q105 0 177.5 50t115.5 146l23 -14q-24 -60 -63.5 -112.5t-91.5 -92t-114 -62t-131 -22.5q-49 0 -92 6v-63q63 1 113.5 -8t86.5 -30.5t55 -56.5t19 -85q0 -67 -33 -109t-93 -65.5t-144.5 -32t-187.5 -8.5v30q49 0 97.5 3.5
t86.5 17t62 40.5t24 73q0 48 -27.5 65.5t-89.5 17.5v218q-91 18 -158.5 63t-111.5 110t-66 147t-22 175z" />
    <glyph glyph-name="egrave" unicode="&#xe8;" horiz-adv-x="963" 
d="M37 477q0 99 31 189t91.5 158t149.5 108.5t205 40.5q117 0 198 -34t130.5 -90.5t71.5 -130t22 -153.5v-12h-580v-59q0 -91 15 -168t48 -133.5t85 -88.5t127 -32q94 0 171.5 43.5t133.5 150.5l22 -16q-28 -59 -70 -110t-96.5 -89t-120.5 -60t-143 -22q-126 0 -218 39.5
t-153 108.5t-90.5 161.5t-29.5 198.5zM222 1442q0 20 8 38.5t23 33t37 23.5t51 9q26 0 47.5 -8.5t40.5 -24t36.5 -38.5t35.5 -52q18 -28 35 -57t38 -65.5t47.5 -83.5t63.5 -111l-12 -14q-105 68 -185 113.5t-131 74.5q-33 19 -58 36t-42.5 35.5t-26 40t-8.5 50.5zM356 580
l262 4q0 60 -2 124t-13.5 117.5t-35.5 88t-67 34.5q-35 0 -61 -28.5t-44 -78t-27.5 -117t-11.5 -144.5z" />
    <glyph glyph-name="eacute" unicode="&#xe9;" horiz-adv-x="963" 
d="M37 477q0 99 31 189t91.5 158t149.5 108.5t205 40.5q117 0 198 -34t130.5 -90.5t71.5 -130t22 -153.5v-12h-580v-59q0 -91 15 -168t48 -133.5t85 -88.5t127 -32q94 0 171.5 43.5t133.5 150.5l22 -16q-28 -59 -70 -110t-96.5 -89t-120.5 -60t-143 -22q-126 0 -218 39.5
t-153 108.5t-90.5 161.5t-29.5 198.5zM356 580l262 4q0 60 -2 124t-13.5 117.5t-35.5 88t-67 34.5q-35 0 -61 -28.5t-44 -78t-27.5 -117t-11.5 -144.5zM356 1106q37 64 63.5 111t47.5 83.5t38 65.5t35 57q18 29 35.5 52t36.5 38.5t40.5 24t47.5 8.5q28 0 50.5 -9t37.5 -23.5
t23 -33t8 -38.5q0 -29 -8.5 -50.5t-26 -40t-42.5 -35.5t-58 -36q-51 -29 -131 -74.5t-185 -113.5z" />
    <glyph glyph-name="ecircumflex" unicode="&#xea;" horiz-adv-x="963" 
d="M37 477q0 99 31 189t91.5 158t149.5 108.5t205 40.5q117 0 198 -34t130.5 -90.5t71.5 -130t22 -153.5v-12h-580v-59q0 -91 15 -168t48 -133.5t85 -88.5t127 -32q94 0 171.5 43.5t133.5 150.5l22 -16q-28 -59 -70 -110t-96.5 -89t-120.5 -60t-143 -22q-126 0 -218 39.5
t-153 108.5t-90.5 161.5t-29.5 198.5zM167 1122q31 55 63 108t61 101t54.5 89t44.5 71q8 12 17 20t22.5 12.5t32 6.5t45.5 2t45.5 -2.5t31.5 -7t21.5 -11.5t14.5 -16q17 -26 42 -66.5t55 -89.5t63 -104.5t65 -112.5l-23 -16l-319 237l-315 -235zM356 580l262 4q0 60 -2 124
t-13.5 117.5t-35.5 88t-67 34.5q-35 0 -61 -28.5t-44 -78t-27.5 -117t-11.5 -144.5z" />
    <glyph glyph-name="edieresis" unicode="&#xeb;" horiz-adv-x="963" 
d="M37 477q0 99 31 189t91.5 158t149.5 108.5t205 40.5q117 0 198 -34t130.5 -90.5t71.5 -130t22 -153.5v-12h-580v-59q0 -91 15 -168t48 -133.5t85 -88.5t127 -32q94 0 171.5 43.5t133.5 150.5l22 -16q-28 -59 -70 -110t-96.5 -89t-120.5 -60t-143 -22q-126 0 -218 39.5
t-153 108.5t-90.5 161.5t-29.5 198.5zM137 1296q0 32 12 61t32.5 51t48 35t59.5 13q31 0 58.5 -13t48 -35t32.5 -51t12 -61t-12 -61t-32.5 -51t-48 -35t-58.5 -13q-32 0 -59.5 13t-48 35t-32.5 51t-12 61zM356 580l262 4q0 60 -2 124t-13.5 117.5t-35.5 88t-67 34.5
q-35 0 -61 -28.5t-44 -78t-27.5 -117t-11.5 -144.5zM588 1296q0 32 12 61t32 51t47.5 35t59.5 13q31 0 58.5 -13t48.5 -35t33 -51t12 -61t-12 -61t-33 -51t-48.5 -35t-58.5 -13q-32 0 -59.5 13t-47.5 35t-32 51t-12 61z" />
    <glyph glyph-name="igrave" unicode="&#xec;" horiz-adv-x="608" 
d="M-4 924v12l461 25l8 -9v-837q0 -32 8.5 -52t36.5 -34q22 -11 50 -13t48 -2v-14h-581v14q26 2 47 3.5t41 9.5q28 11 40.5 34.5t12.5 55.5v678q0 66 -51 102q-9 6 -24 10.5t-32 8t-34 5.5t-31 3zM3 1442q0 20 8 38.5t23 33t37 23.5t51 9q26 0 47.5 -8.5t40.5 -24
t36.5 -38.5t35.5 -52q18 -28 35 -57t38 -65.5t47.5 -83.5t63.5 -111l-12 -14q-105 68 -185 113.5t-131 74.5q-33 19 -58 36t-42.5 35.5t-26 40t-8.5 50.5z" />
    <glyph glyph-name="iacute" unicode="&#xed;" horiz-adv-x="608" 
d="M-4 924v12l461 25l8 -9v-837q0 -32 8.5 -52t36.5 -34q22 -11 50 -13t48 -2v-14h-581v14q26 2 47 3.5t41 9.5q28 11 40.5 34.5t12.5 55.5v678q0 66 -51 102q-9 6 -24 10.5t-32 8t-34 5.5t-31 3zM110 1106q37 64 63.5 111t47.5 83.5t38 65.5t35 57q18 29 35.5 52t36.5 38.5
t40.5 24t47.5 8.5q28 0 50.5 -9t37.5 -23.5t23 -33t8 -38.5q0 -29 -8.5 -50.5t-26 -40t-42.5 -35.5t-58 -36q-51 -29 -131 -74.5t-185 -113.5z" />
    <glyph glyph-name="icircumflex" unicode="&#xee;" horiz-adv-x="608" 
d="M-14 1100q31 54 58 108.5t50.5 104.5t44.5 92.5t39 73.5q14 24 38.5 33.5t72.5 9.5q46 0 70 -9t36 -30q16 -28 36.5 -69.5t44.5 -92t52 -107.5t60 -114l-19 -15l-284 238l-283 -236zM-4 924v12l461 25l8 -9v-837q0 -32 8.5 -52t36.5 -34q22 -11 50 -13t48 -2v-14h-581v14
q26 2 47 3.5t41 9.5q28 11 40.5 34.5t12.5 55.5v678q0 66 -51 102q-9 6 -24 10.5t-32 8t-34 5.5t-31 3z" />
    <glyph glyph-name="idieresis" unicode="&#xef;" horiz-adv-x="608" 
d="M-72 1286q0 31 11.5 59t31.5 49t46.5 33.5t56.5 12.5q31 0 57.5 -12t46.5 -33t31.5 -48t11.5 -57q0 -32 -11.5 -60t-31.5 -49t-46.5 -33.5t-57.5 -12.5q-30 0 -56.5 12t-46.5 32.5t-31.5 48t-11.5 58.5zM-4 924v12l461 25l8 -9v-837q0 -32 8.5 -52t36.5 -34
q22 -11 50 -13t48 -2v-14h-581v14q26 2 47 3.5t41 9.5q28 11 40.5 34.5t12.5 55.5v678q0 66 -51 102q-9 6 -24 10.5t-32 8t-34 5.5t-31 3zM348 1286q0 31 11.5 59t31.5 49t46.5 33.5t56.5 12.5t57 -12t47 -33t31.5 -48t11.5 -57q0 -32 -11.5 -60t-31.5 -49t-47 -33.5
t-57 -12.5t-56.5 12t-46.5 32.5t-31.5 48t-11.5 58.5z" />
    <glyph glyph-name="eth" unicode="&#xf0;" horiz-adv-x="1094" 
d="M37 473q0 111 38 204t106.5 159.5t163 103.5t208.5 37q59 0 99.5 -15t66.5 -36l8 4q-9 58 -24.5 106.5t-35.5 90.5t-44 79.5t-50 75.5l-237 -149l-27 43l236 145q-21 26 -46 54t-51 54.5t-50.5 49t-43.5 37.5l11 16q24 -12 57.5 -29t69.5 -38t72 -44t67 -45l192 119
l27 -43l-174 -106q69 -56 136.5 -128t121 -164.5t86.5 -205.5t33 -250q0 -138 -32 -254t-96 -199t-160 -129.5t-224 -46.5q-104 0 -195.5 34.5t-160 100t-108.5 159t-40 210.5zM369 485q0 -92 5 -180.5t23 -158t54 -112t98 -42.5q60 0 95.5 41.5t53.5 110t23.5 156.5
t5.5 181q0 88 -6.5 173t-25 151t-53 106.5t-91.5 40.5q-60 0 -96 -42.5t-55 -109.5t-25 -150.5t-6 -164.5z" />
    <glyph glyph-name="ntilde" unicode="&#xf1;" horiz-adv-x="1202" 
d="M14 924v12l441 25l8 -9v-147h6q28 29 56 59t63.5 54t82 39.5t111.5 15.5q75 0 128.5 -23t87.5 -65t49.5 -101.5t15.5 -132.5v-536q0 -34 7 -53.5t36 -30.5q22 -8 43 -11t49 -6v-14h-543v14q20 2 40.5 5t35.5 10q22 8 26.5 32t4.5 58v545q0 53 -10 88.5t-27.5 56.5t-41 30
t-50.5 9q-33 0 -60.5 -8t-49 -21t-37 -29t-23.5 -32v-641q0 -34 5.5 -54.5t25.5 -29.5q20 -10 40 -13t41 -6v-14h-546v14q24 2 46 4t42 9q28 9 38.5 27t10.5 52v678q0 79 -47 111q-19 12 -49.5 19.5t-55.5 9.5zM204 1141q13 38 36.5 88t58 94.5t80 75.5t102.5 31
q55 0 100 -16.5t85 -36t79 -36t82 -16.5q53 0 95.5 28t70.5 99l27 -8q-12 -41 -35.5 -91.5t-59 -95t-83 -74.5t-107.5 -30q-55 0 -98 16.5t-81 37t-74 37t-77 16.5q-49 0 -94.5 -30t-79.5 -100z" />
    <glyph glyph-name="ograve" unicode="&#xf2;" horiz-adv-x="1094" 
d="M37 473q0 110 36 202t102.5 158t161.5 103t212 37q120 0 214 -37t159.5 -102.5t100 -156t34.5 -198.5q0 -107 -32.5 -200t-97 -162t-161.5 -108.5t-225 -39.5q-104 0 -195.5 34.5t-160 100t-108.5 159t-40 210.5zM250 1442q0 20 8 38.5t23 33t37 23.5t51 9
q26 0 47.5 -8.5t40.5 -24t36.5 -38.5t35.5 -52q18 -28 35 -57t38 -65.5t47.5 -83.5t63.5 -111l-12 -14q-105 68 -185 113.5t-131 74.5q-33 19 -58 36t-42.5 35.5t-26 40t-8.5 50.5zM369 485q0 -92 5 -180.5t23 -158t54 -112t98 -42.5q60 0 95.5 41.5t53.5 110t23.5 156.5
t5.5 181q0 59 -2.5 116.5t-9.5 110t-19.5 96.5t-32 76.5t-47 51t-65.5 18.5q-40 0 -69 -19.5t-49.5 -53t-32.5 -78.5t-19 -97t-9.5 -107.5t-2.5 -109.5z" />
    <glyph glyph-name="oacute" unicode="&#xf3;" horiz-adv-x="1094" 
d="M37 473q0 110 36 202t102.5 158t161.5 103t212 37q120 0 214 -37t159.5 -102.5t100 -156t34.5 -198.5q0 -107 -32.5 -200t-97 -162t-161.5 -108.5t-225 -39.5q-104 0 -195.5 34.5t-160 100t-108.5 159t-40 210.5zM369 485q0 -92 5 -180.5t23 -158t54 -112t98 -42.5
q60 0 95.5 41.5t53.5 110t23.5 156.5t5.5 181q0 59 -2.5 116.5t-9.5 110t-19.5 96.5t-32 76.5t-47 51t-65.5 18.5q-40 0 -69 -19.5t-49.5 -53t-32.5 -78.5t-19 -97t-9.5 -107.5t-2.5 -109.5zM381 1106q37 64 63.5 111t47.5 83.5t38 65.5t35 57q18 29 35.5 52t36.5 38.5
t40.5 24t47.5 8.5q28 0 50.5 -9t37.5 -23.5t23 -33t8 -38.5q0 -29 -8.5 -50.5t-26 -40t-42.5 -35.5t-58 -36q-51 -29 -131 -74.5t-185 -113.5z" />
    <glyph glyph-name="ocircumflex" unicode="&#xf4;" horiz-adv-x="1094" 
d="M37 473q0 110 36 202t102.5 158t161.5 103t212 37q120 0 214 -37t159.5 -102.5t100 -156t34.5 -198.5q0 -107 -32.5 -200t-97 -162t-161.5 -108.5t-225 -39.5q-104 0 -195.5 34.5t-160 100t-108.5 159t-40 210.5zM207 1122q31 55 63 108t61 101t54.5 89t44.5 71
q8 12 17 20t22.5 12.5t32 6.5t45.5 2t45.5 -2.5t31.5 -7t21.5 -11.5t14.5 -16q17 -26 42 -66.5t55 -89.5t63 -104.5t65 -112.5l-23 -16l-319 237l-315 -235zM369 485q0 -92 5 -180.5t23 -158t54 -112t98 -42.5q60 0 95.5 41.5t53.5 110t23.5 156.5t5.5 181q0 59 -2.5 116.5
t-9.5 110t-19.5 96.5t-32 76.5t-47 51t-65.5 18.5q-40 0 -69 -19.5t-49.5 -53t-32.5 -78.5t-19 -97t-9.5 -107.5t-2.5 -109.5z" />
    <glyph glyph-name="otilde" unicode="&#xf5;" horiz-adv-x="1094" 
d="M37 473q0 110 36 202t102.5 158t161.5 103t212 37q120 0 214 -37t159.5 -102.5t100 -156t34.5 -198.5q0 -107 -32.5 -200t-97 -162t-161.5 -108.5t-225 -39.5q-104 0 -195.5 34.5t-160 100t-108.5 159t-40 210.5zM141 1141q13 38 36.5 88t58 94.5t80 75.5t102.5 31
q55 0 100 -16.5t85 -36t79 -36t82 -16.5q53 0 95.5 28t70.5 99l27 -8q-12 -41 -35.5 -91.5t-59 -95t-83 -74.5t-107.5 -30q-55 0 -98 16.5t-81 37t-74 37t-77 16.5q-49 0 -94.5 -30t-79.5 -100zM369 485q0 -92 5 -180.5t23 -158t54 -112t98 -42.5q60 0 95.5 41.5t53.5 110
t23.5 156.5t5.5 181q0 59 -2.5 116.5t-9.5 110t-19.5 96.5t-32 76.5t-47 51t-65.5 18.5q-40 0 -69 -19.5t-49.5 -53t-32.5 -78.5t-19 -97t-9.5 -107.5t-2.5 -109.5z" />
    <glyph glyph-name="odieresis" unicode="&#xf6;" horiz-adv-x="1094" 
d="M37 473q0 110 36 202t102.5 158t161.5 103t212 37q120 0 214 -37t159.5 -102.5t100 -156t34.5 -198.5q0 -107 -32.5 -200t-97 -162t-161.5 -108.5t-225 -39.5q-104 0 -195.5 34.5t-160 100t-108.5 159t-40 210.5zM168 1296q0 32 12 61t32.5 51t48 35t59.5 13
q31 0 58.5 -13t48 -35t32.5 -51t12 -61t-12 -61t-32.5 -51t-48 -35t-58.5 -13q-32 0 -59.5 13t-48 35t-32.5 51t-12 61zM369 485q0 -92 5 -180.5t23 -158t54 -112t98 -42.5q60 0 95.5 41.5t53.5 110t23.5 156.5t5.5 181q0 59 -2.5 116.5t-9.5 110t-19.5 96.5t-32 76.5
t-47 51t-65.5 18.5q-40 0 -69 -19.5t-49.5 -53t-32.5 -78.5t-19 -97t-9.5 -107.5t-2.5 -109.5zM619 1296q0 32 12 61t32 51t47.5 35t59.5 13q31 0 58.5 -13t48.5 -35t33 -51t12 -61t-12 -61t-33 -51t-48.5 -35t-58.5 -13q-32 0 -59.5 13t-47.5 35t-32 51t-12 61z" />
    <glyph glyph-name="divide" unicode="&#xf7;" horiz-adv-x="1159" 
d="M94 481v101h971v-101h-971zM455 238q0 26 9.5 48.5t26.5 39.5t40 26.5t49 9.5t48.5 -9.5t39.5 -26.5t27 -39.5t10 -48.5t-10 -49t-27 -40t-39.5 -26.5t-48.5 -9.5t-49 9.5t-40 26.5t-26.5 40t-9.5 49zM455 823q0 27 9.5 50t26.5 39.5t40 26t49 9.5t48.5 -9.5t39.5 -26
t27 -39.5t10 -50q0 -25 -10 -47.5t-27 -39t-39.5 -26.5t-48.5 -10t-49 10t-40 26.5t-26.5 39t-9.5 47.5z" />
    <glyph glyph-name="oslash" unicode="&#xf8;" horiz-adv-x="1094" 
d="M37 473q0 110 36 202t102.5 158t161.5 103t212 37q103 0 188 -28t148 -79l129 142l22 -23l-127 -139q73 -66 110.5 -160t37.5 -207q0 -107 -32.5 -200t-97 -162t-161.5 -108.5t-225 -39.5q-94 0 -178 28t-150 81l-117 -129l-24 20l116 129q-71 66 -111 160t-40 215z
M369 485q0 -48 0.5 -103.5t3.5 -100.5l344 421q-6 48 -17.5 92.5t-31.5 79t-48.5 55.5t-68.5 21t-69 -19.5t-49.5 -53t-32.5 -78.5t-19 -97t-9.5 -107.5t-2.5 -109.5zM377 238q4 -44 15 -88t31.5 -79t51.5 -57t74 -22q60 0 95.5 41.5t53.5 110t23.5 156.5t5.5 181
q0 20 -0.5 43.5l-1 47t-2 46t-2.5 41.5z" />
    <glyph glyph-name="ugrave" unicode="&#xf9;" horiz-adv-x="1169" 
d="M-16 922v14l448 25l6 -9v-680q0 -100 31 -147t84 -47q39 0 68 11t49.5 26.5t33.5 33.5t21 33v619q0 31 -11 58.5t-34 41.5q-16 9 -50 13t-69 6v16l451 25l8 -9v-798q0 -34 13 -60.5t38 -40.5q9 -5 22 -8.5t27 -6t28 -3.5t26 -2v-13l-433 -28l-14 14v127h-6
q-26 -29 -55 -58t-66.5 -51.5t-86 -36.5t-112.5 -14q-70 0 -119.5 25t-81 70t-46.5 106t-15 133v492q0 32 -12.5 61t-40.5 43q-19 9 -47 13t-55 6zM272 1442q0 20 8 38.5t23 33t37 23.5t51 9q26 0 47.5 -8.5t40.5 -24t36.5 -38.5t35.5 -52q18 -28 35 -57t38 -65.5
t47.5 -83.5t63.5 -111l-12 -14q-105 68 -185 113.5t-131 74.5q-33 19 -58 36t-42.5 35.5t-26 40t-8.5 50.5z" />
    <glyph glyph-name="uacute" unicode="&#xfa;" horiz-adv-x="1169" 
d="M-16 922v14l448 25l6 -9v-680q0 -100 31 -147t84 -47q39 0 68 11t49.5 26.5t33.5 33.5t21 33v619q0 31 -11 58.5t-34 41.5q-16 9 -50 13t-69 6v16l451 25l8 -9v-798q0 -34 13 -60.5t38 -40.5q9 -5 22 -8.5t27 -6t28 -3.5t26 -2v-13l-433 -28l-14 14v127h-6
q-26 -29 -55 -58t-66.5 -51.5t-86 -36.5t-112.5 -14q-70 0 -119.5 25t-81 70t-46.5 106t-15 133v492q0 32 -12.5 61t-40.5 43q-19 9 -47 13t-55 6zM428 1106q37 64 63.5 111t47.5 83.5t38 65.5t35 57q18 29 35.5 52t36.5 38.5t40.5 24t47.5 8.5q28 0 50.5 -9t37.5 -23.5
t23 -33t8 -38.5q0 -29 -8.5 -50.5t-26 -40t-42.5 -35.5t-58 -36q-51 -29 -131 -74.5t-185 -113.5z" />
    <glyph glyph-name="ucircumflex" unicode="&#xfb;" horiz-adv-x="1169" 
d="M-16 922v14l448 25l6 -9v-680q0 -100 31 -147t84 -47q39 0 68 11t49.5 26.5t33.5 33.5t21 33v619q0 31 -11 58.5t-34 41.5q-16 9 -50 13t-69 6v16l451 25l8 -9v-798q0 -34 13 -60.5t38 -40.5q9 -5 22 -8.5t27 -6t28 -3.5t26 -2v-13l-433 -28l-14 14v127h-6
q-26 -29 -55 -58t-66.5 -51.5t-86 -36.5t-112.5 -14q-70 0 -119.5 25t-81 70t-46.5 106t-15 133v492q0 32 -12.5 61t-40.5 43q-19 9 -47 13t-55 6zM242 1122q31 55 63 108t61 101t54.5 89t44.5 71q8 12 17 20t22.5 12.5t32 6.5t45.5 2t45.5 -2.5t31.5 -7t21.5 -11.5
t14.5 -16q17 -26 42 -66.5t55 -89.5t63 -104.5t65 -112.5l-23 -16l-319 237l-315 -235z" />
    <glyph glyph-name="udieresis" unicode="&#xfc;" horiz-adv-x="1169" 
d="M-16 922v14l448 25l6 -9v-680q0 -100 31 -147t84 -47q39 0 68 11t49.5 26.5t33.5 33.5t21 33v619q0 31 -11 58.5t-34 41.5q-16 9 -50 13t-69 6v16l451 25l8 -9v-798q0 -34 13 -60.5t38 -40.5q9 -5 22 -8.5t27 -6t28 -3.5t26 -2v-13l-433 -28l-14 14v127h-6
q-26 -29 -55 -58t-66.5 -51.5t-86 -36.5t-112.5 -14q-70 0 -119.5 25t-81 70t-46.5 106t-15 133v492q0 32 -12.5 61t-40.5 43q-19 9 -47 13t-55 6zM190 1296q0 32 12 61t32.5 51t48 35t59.5 13q31 0 58.5 -13t48 -35t32.5 -51t12 -61t-12 -61t-32.5 -51t-48 -35t-58.5 -13
q-32 0 -59.5 13t-48 35t-32.5 51t-12 61zM641 1296q0 32 12 61t32 51t47.5 35t59.5 13q31 0 58.5 -13t48.5 -35t33 -51t12 -61t-12 -61t-33 -51t-48.5 -35t-58.5 -13q-32 0 -59.5 13t-47.5 35t-32 51t-12 61z" />
    <glyph glyph-name="yacute" unicode="&#xfd;" horiz-adv-x="932" 
d="M-66 932v14h562v-14q-16 -1 -37.5 -3.5t-40.5 -7.5t-32 -14t-13 -22q0 -5 4.5 -18t9.5 -25q4 -10 20.5 -47.5t40 -89.5t51 -112t53.5 -115.5t47 -100t32 -64.5q8 17 22 52.5t30.5 80t35 94.5t35.5 96t30.5 83.5t20.5 58.5q9 26 14.5 49.5t5.5 40.5t-14.5 27.5t-38 17
t-52.5 11.5l-58 10v12h342v-12q-27 -5 -47.5 -10t-37 -16t-30.5 -30t-27 -53q-14 -35 -34 -87t-44.5 -114.5t-50.5 -131.5t-52.5 -137t-51 -132.5t-45 -118t-35 -92t-21.5 -55.5q-44 -112 -87 -192.5t-89.5 -132t-99 -75.5t-115.5 -24q-27 0 -59 9t-60.5 30t-47.5 54.5
t-19 82.5q0 28 11 55t31 48t47.5 34t61.5 13q21 0 46 -6.5t46 -21t35.5 -39t14.5 -60.5q0 -48 -9 -83.5t-14 -70.5q79 23 145 120.5t126 252.5q-9 19 -31 64t-51.5 107t-65 135t-71.5 148t-70 146.5t-62 129.5t-47 98t-24 52q-19 41 -50.5 67t-85.5 34zM436 1106
q37 64 63.5 111t47.5 83.5t38 65.5t35 57q18 29 35.5 52t36.5 38.5t40.5 24t47.5 8.5q28 0 50.5 -9t37.5 -23.5t23 -33t8 -38.5q0 -29 -8.5 -50.5t-26 -40t-42.5 -35.5t-58 -36q-51 -29 -131 -74.5t-185 -113.5z" />
    <glyph glyph-name="thorn" unicode="&#xfe;" horiz-adv-x="1169" 
d="M-51 1491v12l483 25l8 -8v-680l9 -2q17 19 42 42.5t59 44t75.5 34.5t91.5 14q87 0 159.5 -35t125 -99t81.5 -153.5t29 -198.5q0 -114 -34 -208.5t-94 -162t-140.5 -104.5t-173.5 -37q-42 0 -75.5 5t-60 14t-47 20.5t-38.5 24.5h-9v-371q0 -38 15 -60.5t43 -33.5
q38 -14 76 -16.5t73 -6.5v-14h-665v14q32 2 63 4.5t49 8.5q29 9 40 35.5t11 58.5v1685q0 41 -15 71.5t-40 47.5q-9 6 -27 11t-38.5 9t-41 6t-34.5 3zM440 156q8 -24 20 -50t30.5 -48t46 -36t65.5 -14q51 0 86 33.5t56.5 94t31.5 144t10 183.5q0 78 -9 152t-31.5 131.5
t-59.5 92.5t-94 35q-28 0 -49.5 -5t-39 -15t-33 -25t-30.5 -34v-639z" />
    <glyph glyph-name="ydieresis" unicode="&#xff;" horiz-adv-x="932" 
d="M-66 932v14h562v-14q-16 -1 -37.5 -3.5t-40.5 -7.5t-32 -14t-13 -22q0 -5 4.5 -18t9.5 -25q4 -10 20.5 -47.5t40 -89.5t51 -112t53.5 -115.5t47 -100t32 -64.5q8 17 22 52.5t30.5 80t35 94.5t35.5 96t30.5 83.5t20.5 58.5q9 26 14.5 49.5t5.5 40.5t-14.5 27.5t-38 17
t-52.5 11.5l-58 10v12h342v-12q-27 -5 -47.5 -10t-37 -16t-30.5 -30t-27 -53q-14 -35 -34 -87t-44.5 -114.5t-50.5 -131.5t-52.5 -137t-51 -132.5t-45 -118t-35 -92t-21.5 -55.5q-44 -112 -87 -192.5t-89.5 -132t-99 -75.5t-115.5 -24q-27 0 -59 9t-60.5 30t-47.5 54.5
t-19 82.5q0 28 11 55t31 48t47.5 34t61.5 13q21 0 46 -6.5t46 -21t35.5 -39t14.5 -60.5q0 -48 -9 -83.5t-14 -70.5q79 23 145 120.5t126 252.5q-9 19 -31 64t-51.5 107t-65 135t-71.5 148t-70 146.5t-62 129.5t-47 98t-24 52q-19 41 -50.5 67t-85.5 34zM145 1296q0 32 12 61
t32.5 51t48 35t59.5 13q31 0 58.5 -13t48 -35t32.5 -51t12 -61t-12 -61t-32.5 -51t-48 -35t-58.5 -13q-32 0 -59.5 13t-48 35t-32.5 51t-12 61zM596 1296q0 32 12 61t32 51t47.5 35t59.5 13q31 0 58.5 -13t48.5 -35t33 -51t12 -61t-12 -61t-33 -51t-48.5 -35t-58.5 -13
q-32 0 -59.5 13t-47.5 35t-32 51t-12 61z" />
    <glyph glyph-name="dotlessi" unicode="&#x131;" horiz-adv-x="608" 
d="M-4 924v12l461 25l8 -9v-837q0 -32 8.5 -52t36.5 -34q22 -11 50 -13t48 -2v-14h-581v14q26 2 47 3.5t41 9.5q28 11 40.5 34.5t12.5 55.5v678q0 66 -51 102q-9 6 -24 10.5t-32 8t-34 5.5t-31 3z" />
    <glyph glyph-name="Lslash" unicode="&#x141;" horiz-adv-x="1272" 
d="M25 0v14q13 1 35.5 3t46 4t44 5t29.5 7q37 15 49.5 41.5t12.5 60.5v479l-176 -63l-19 51l195 70v590q0 34 -12 59t-50 41q-15 6 -36 9.5t-43.5 6t-42.5 3.5t-33 3v15h768v-15q-14 -2 -33.5 -2t-39.5 -1t-39.5 -3t-33.5 -6q-37 -12 -50 -39t-13 -61v-494l266 96l16 -49
l-282 -102v-522q0 -60 8 -95t31.5 -53t66 -23t111.5 -5q38 0 74 2.5t67 8.5t55 15.5t39 24.5q26 26 60.5 72.5t69 99t65.5 104.5t51 90h16l-26 -442h-1247z" />
    <glyph glyph-name="lslash" unicode="&#x142;" horiz-adv-x="588" 
d="M-49 1491v12l483 25l8 -8v-715l146 55l16 -49l-162 -61v-629q0 -69 54 -92q21 -10 40.5 -11t47.5 -4v-14h-576v14q25 2 45.5 2.5t40.5 8.5q29 11 41 33.5t12 56.5v544l-153 -57l-19 47l172 66v628q0 41 -15 71.5t-40 47.5q-9 6 -27 11t-38.5 9t-41 6t-34.5 3z" />
    <glyph glyph-name="OE" unicode="&#x152;" horiz-adv-x="2154" 
d="M43 692q0 172 60.5 304t165.5 221.5t247 135.5t305 46h1223v-367h-23q-7 23 -23.5 56t-39.5 68.5t-50 71.5t-56 65t-58.5 48t-56.5 23q-37 5 -82.5 7.5t-93.5 2.5h-162v-637h133q42 0 72 5.5t50.5 14.5t34 19.5t23.5 20.5q16 16 32.5 44t30.5 59t24 61t13 51h23v-584h-23
q-3 24 -14 57t-26 65.5t-31 60.5t-29 42q-11 12 -25 22.5t-35 19t-50.5 13.5t-69.5 5h-133v-514q0 -56 7.5 -90.5t31 -53t66 -24.5t112.5 -6q42 0 83.5 1t77.5 5.5t65.5 14.5t47.5 28q31 31 67 79.5t69 100t61 98.5t43 76h18l-26 -428h-1321q-94 0 -187 17t-177 52.5
t-156 91t-125 132t-83 176t-30 223.5zM422 698q0 -147 24.5 -270.5t74.5 -213.5t127 -140.5t181 -50.5q42 0 73 7t53.5 20.5t37.5 31.5t27 41q10 17 17 57t11 93t6 114t2.5 121t0.5 113.5v91.5q0 37 0.5 89t0 109t-2.5 115.5t-6 109t-10.5 89t-16.5 55.5q-20 50 -68 72
t-139 22q-101 0 -175 -45.5t-122.5 -132t-72 -212.5t-23.5 -286z" />
    <glyph glyph-name="oe" unicode="&#x153;" horiz-adv-x="1645" 
d="M37 473q0 110 36 202t102.5 158t161.5 103t212 37q103 0 188 -28t148 -79q59 50 136.5 78.5t174.5 28.5q117 0 198 -34t130.5 -90.5t71.5 -130t22 -153.5v-12h-580v-59q0 -91 15 -168t48 -133.5t85 -88.5t127 -32q94 0 171.5 43.5t133.5 150.5l22 -16q-28 -59 -70 -110
t-96.5 -89t-120.5 -60t-143 -22q-106 0 -187.5 27.5t-141.5 77.5q-63 -50 -147.5 -77.5t-192.5 -27.5q-104 0 -195.5 34.5t-160 100t-108.5 159t-40 210.5zM369 485q0 -92 5 -180.5t23 -158t54 -112t98 -42.5q60 0 95.5 41.5t53.5 110t23.5 156.5t5.5 181q0 59 -2.5 116.5
t-9.5 110t-19.5 96.5t-32 76.5t-47 51t-65.5 18.5q-40 0 -69 -19.5t-49.5 -53t-32.5 -78.5t-19 -97t-9.5 -107.5t-2.5 -109.5zM1038 580l262 4q0 60 -2 124t-13.5 117.5t-35.5 88t-67 34.5q-36 0 -62 -28.5t-43.5 -78t-27 -117t-11.5 -144.5z" />
    <glyph glyph-name="Scaron" unicode="&#x160;" horiz-adv-x="1171" 
d="M47 500h21q38 -103 89.5 -195t114 -161t135.5 -109.5t154 -40.5q71 0 122 23.5t84 62t48.5 88t15.5 100.5q0 91 -61.5 158.5t-175.5 108.5q-34 11 -70 23t-71 23.5t-66 22.5t-55 21q-65 27 -112.5 68t-78.5 92t-46 110.5t-15 124.5q0 83 33.5 158t97 132t154.5 90.5
t206 33.5q69 0 129.5 -8.5t110.5 -22t89 -30t65 -32.5l53 76h24l9 -485h-21q-35 97 -77 183t-95.5 151t-119.5 103t-148 38q-56 0 -99.5 -20t-73 -54t-44.5 -77.5t-15 -90.5q0 -45 12.5 -85t40.5 -74.5t73.5 -63.5t111.5 -53q31 -11 67 -22.5t71.5 -23t68.5 -23t57 -21.5
q60 -26 108.5 -59.5t82.5 -80t52.5 -108.5t18.5 -143q0 -94 -39 -174t-109.5 -139t-169 -92.5t-218.5 -33.5q-89 0 -159 11t-123 27t-92 35t-67 34l-61 -92h-25zM258 1923l23 17l319 -238l315 236l21 -15q-32 -54 -63.5 -107t-60.5 -101t-54.5 -89t-44.5 -71q-8 -12 -17 -20
t-22.5 -12.5t-32 -6.5t-45.5 -2t-45.5 2.5t-31.5 7t-21.5 11.5t-14.5 16q-17 26 -42 66t-55 89t-63 104.5t-65 112.5z" />
    <glyph glyph-name="scaron" unicode="&#x161;" horiz-adv-x="842" 
d="M31 342h14q14 -30 34.5 -68t46.5 -76.5t57 -75.5t66.5 -66t75 -46.5t81.5 -17.5q39 0 70 12.5t52.5 34.5t33 52.5t11.5 66.5q0 40 -12.5 69t-42 53t-76.5 45t-116 44q-52 17 -100.5 41.5t-86 61.5t-60 89t-22.5 123q0 59 25 111.5t71.5 92t114 62.5t152.5 23
q37 0 76.5 -4.5t76.5 -12.5t68.5 -18t52.5 -20l43 57h17l12 -324h-16q-26 58 -59.5 112.5t-72.5 95.5t-81.5 66t-85.5 25q-37 0 -65 -13t-46.5 -34.5t-27.5 -48.5t-9 -55q0 -40 11.5 -68t38.5 -49.5t72.5 -40.5t113.5 -41q60 -20 110.5 -47.5t87 -65.5t56.5 -87.5t20 -112.5
q0 -78 -30.5 -137t-83.5 -99.5t-124.5 -61t-154.5 -20.5q-49 0 -99 9t-93 22.5t-76 29t-48 27.5l-47 -69h-16zM83 1513l23 17l319 -238l315 236l21 -15q-32 -54 -63.5 -107t-60.5 -101t-54.5 -89t-44.5 -71q-8 -12 -17 -20t-22.5 -12.5t-32 -6.5t-45.5 -2t-45.5 2.5t-31.5 7
t-21.5 11.5t-14.5 16q-17 26 -42 66t-55 89t-63 104.5t-65 112.5z" />
    <glyph glyph-name="Ydieresis" unicode="&#x178;" horiz-adv-x="1401" 
d="M-74 1384v15h801v-15q-27 -2 -65 -4.5t-73.5 -8.5t-60 -15.5t-24.5 -24.5q0 -5 6.5 -23.5t18.5 -45.5t28.5 -61.5t36.5 -72.5q5 -11 21.5 -42t39.5 -74.5t51 -94.5t55.5 -101.5t53 -96.5t45.5 -78q22 41 52.5 95.5t63.5 115t67 122t63 116.5q53 99 77.5 153t24.5 70
q0 21 -20.5 33.5t-52.5 20t-70 11.5t-72 6v15h465v-15q-37 -5 -62 -10.5t-46 -17.5q-44 -25 -75 -66t-58 -88q-39 -64 -71.5 -119.5t-64 -111.5t-65 -116t-72.5 -132q-26 -48 -41.5 -85t-23 -71.5t-9.5 -70.5t-2 -84v-275q0 -32 14 -59.5t48 -42.5q9 -4 31 -7.5t47 -6
t49 -4.5t37 -3v-14h-797v14q14 1 38 2t49 3t47 5t32 7q37 14 50 41t13 61v320q0 34 -2 58.5t-9 48t-19 50t-33 64.5q-12 22 -36 65.5t-53.5 97t-61.5 112t-61 110.5t-51.5 92.5t-33.5 58.5q-28 47 -61 85.5t-68 60.5q-28 17 -55 21.5t-56 6.5zM414 1710q0 32 12 61t32.5 51
t48 35t59.5 13q31 0 58.5 -13t48 -35t32.5 -51t12 -61t-12 -61t-32.5 -51t-48 -35t-58.5 -13q-32 0 -59.5 13t-48 35t-32.5 51t-12 61zM865 1710q0 32 12 61t32 51t47.5 35t59.5 13q31 0 58.5 -13t48.5 -35t33 -51t12 -61t-12 -61t-33 -51t-48.5 -35t-58.5 -13
q-32 0 -59.5 13t-47.5 35t-32 51t-12 61z" />
    <glyph glyph-name="Zcaron" unicode="&#x17d;" horiz-adv-x="1282" 
d="M-8 0v20l878 1354h-274q-42 0 -74.5 -1.5t-57.5 -4.5t-44 -8t-35 -12q-21 -9 -56 -42.5t-75.5 -82.5t-84 -110t-81.5 -126h-22l40 412h1156v-21l-879 -1353h303q83 0 138 3t91 10.5t57 19t36 28.5q30 34 65 80.5t70 97t66 101t53 92.5h20l-47 -457h-1243zM319 1910l23 17
l319 -238l315 236l21 -15q-32 -54 -63.5 -107t-60.5 -101t-54.5 -89t-44.5 -71q-8 -12 -17 -20t-22.5 -12.5t-32 -6.5t-45.5 -2t-45.5 2.5t-31.5 7t-21.5 11.5t-14.5 16q-17 26 -42 66t-55 89t-63 104.5t-65 112.5z" />
    <glyph glyph-name="zcaron" unicode="&#x17e;" horiz-adv-x="874" 
d="M8 0v25l514 897h-104q-130 0 -195 -29q-19 -9 -41 -37t-43.5 -65.5t-41 -78.5t-34.5 -75h-18v309h805v-22l-516 -899q37 -2 67.5 -2h67.5q53 0 91 2.5t67 5.5q35 5 58.5 22.5t45.5 55.5q15 25 32 59.5t33.5 69.5t30 66.5t21.5 49.5h16v-354h-856zM110 1513l23 17
l319 -238l315 236l21 -15q-32 -54 -63.5 -107t-60.5 -101t-54.5 -89t-44.5 -71q-8 -12 -17 -20t-22.5 -12.5t-32 -6.5t-45.5 -2t-45.5 2.5t-31.5 7t-21.5 11.5t-14.5 16q-17 26 -42 66t-55 89t-63 104.5t-65 112.5z" />
    <glyph glyph-name="florin" unicode="&#x192;" horiz-adv-x="1124" 
d="M-336 -199q0 28 10.5 52t28.5 42t41.5 28.5t50.5 10.5q29 0 54.5 -9t44 -26.5t29.5 -44t11 -61.5q0 -23 -8.5 -44.5t-22.5 -40t-31 -33t-34 -23.5q9 -14 30.5 -21.5t43.5 -7.5q102 0 172.5 114t118.5 343q20 94 34 170.5t25 144t20.5 129.5t20.5 127h-217l6 39h215
q14 83 32.5 150t44 122.5t59 101.5t77.5 87q136 127 363 127q50 0 99 -14t88 -41t63 -65.5t24 -86.5q0 -25 -8 -49t-24 -42.5t-40.5 -30t-56.5 -11.5q-28 0 -53.5 7.5t-45 23.5t-31 40t-11.5 56q0 21 7.5 42.5t19.5 42.5t27 40.5t30 34.5q-8 12 -32 22t-56 10
q-95 0 -154 -113t-96 -333l-21 -121h256l-8 -39h-254q-15 -86 -26 -155.5t-21.5 -130.5t-21 -116t-23.5 -112q-26 -116 -84.5 -220t-153.5 -179q-78 -62 -169 -97.5t-199 -35.5q-48 0 -92.5 11t-78 35t-53.5 61t-20 89z" />
    <glyph glyph-name="circumflex" unicode="&#x2c6;" 
d="M172 1122q31 55 63 108t61 101t54.5 89t44.5 71q8 12 17 20t22.5 12.5t32 6.5t45.5 2t45.5 -2.5t31.5 -7t21.5 -11.5t14.5 -16q17 -26 42 -66.5t55 -89.5t63 -104.5t65 -112.5l-23 -16l-319 237l-315 -235z" />
    <glyph glyph-name="caron" unicode="&#x2c7;" 
d="M172 1513l23 17l319 -238l315 236l21 -15q-32 -54 -63.5 -107t-60.5 -101t-54.5 -89t-44.5 -71q-8 -12 -17 -20t-22.5 -12.5t-32 -6.5t-45.5 -2t-45.5 2.5t-31.5 7t-21.5 11.5t-14.5 16q-17 26 -42 66t-55 89t-63 104.5t-65 112.5z" />
    <glyph glyph-name="breve" unicode="&#x2d8;" 
d="M197 1475l32 12q45 -88 119 -139.5t164 -51.5t164 51.5t119 139.5l32 -12q-28 -106 -65 -178t-79 -116.5t-85.5 -63.5t-85.5 -19t-85.5 19t-85.5 63.5t-79 116.5t-65 178z" />
    <glyph glyph-name="dotaccent" unicode="&#x2d9;" 
d="M360 1317q0 32 12 61t32.5 51t48 35t59.5 13q31 0 58.5 -13t48.5 -35t33 -51t12 -61t-12 -61t-33 -51t-48.5 -35t-58.5 -13q-32 0 -59.5 13t-48 35t-32.5 51t-12 61z" />
    <glyph glyph-name="ring" unicode="&#x2da;" 
d="M248 1294q0 49 21 89.5t57 69t84 44.5t102 16q57 0 105.5 -15.5t83.5 -44t55 -69t20 -90.5q0 -48 -19 -88t-53.5 -69t-83 -45.5t-108.5 -16.5t-109 15.5t-83.5 44t-53 69t-18.5 90.5zM393 1294q0 -33 5.5 -67t19.5 -61t36.5 -44.5t57.5 -17.5q34 0 57 17t37 44t19.5 61
t5.5 68q0 32 -5.5 66t-19.5 61.5t-37 45.5t-57 18t-56.5 -17t-36.5 -44t-20 -61.5t-6 -68.5z" />
    <glyph glyph-name="ogonek" unicode="&#x2db;" 
d="M315 -293q0 43 25.5 81.5t68.5 74.5t100 69.5t120 67.5h24q-34 -31 -58.5 -65t-40 -68.5t-23 -68t-7.5 -62.5q0 -85 41.5 -132t143.5 -61v-26q-86 0 -158 9.5t-124.5 32t-82 58.5t-29.5 90z" />
    <glyph glyph-name="tilde" unicode="&#x2dc;" 
d="M104 1141q13 38 36.5 88t58 94.5t80 75.5t102.5 31q55 0 100 -16.5t85 -36t79 -36t82 -16.5q53 0 95.5 28t70.5 99l27 -8q-12 -41 -35.5 -91.5t-59 -95t-83 -74.5t-107.5 -30q-55 0 -98 16.5t-81 37t-74 37t-77 16.5q-49 0 -94.5 -30t-79.5 -100z" />
    <glyph glyph-name="hungarumlaut" unicode="&#x2dd;" 
d="M113 1110q55 99 98 177.5t80 135.5q34 52 67.5 75.5t85.5 23.5q25 0 45 -7.5t33 -20t20 -28.5t7 -34q0 -36 -18 -62.5t-60 -54.5q-27 -18 -57.5 -37.5t-70 -44.5t-92 -58t-122.5 -79zM496 1110q60 103 101.5 179.5t76.5 133.5q34 54 67.5 76.5t85.5 22.5q25 0 45 -7.5
t33 -20t20 -28.5t7 -34q0 -39 -18.5 -64t-59.5 -53q-27 -18 -57 -37.5t-69.5 -44.5t-92 -58t-123.5 -79z" />
    <glyph glyph-name="uni03BC" unicode="&#x3bc;" horiz-adv-x="1239" 
d="M94 -354q0 33 6 71t14.5 75.5t16 71.5t10.5 58q7 50 9 101.5t2 105.5v819h299v-676q0 -100 31 -147t83 -47q39 0 68 11t49.5 26.5t33.5 33.5t21 33v766h295v-755q0 -51 20 -79t52 -28q28 0 49 13.5t35.5 36t22 51t10.5 57.5h20q-5 -72 -25 -121.5t-53 -81t-76 -45.5
t-94 -14q-100 0 -162.5 40t-87.5 115h-6q-34 -41 -67 -70.5t-68 -48.5t-74.5 -28.5t-85.5 -9.5q-97 0 -154.5 37t-92.5 112h-5v-115q0 -48 15 -95.5t33.5 -93.5t33.5 -89.5t15 -83.5q0 -57 -29 -86t-68 -29q-19 0 -36.5 7.5t-30.5 22t-21 34.5t-8 45z" />
    <glyph glyph-name="endash" unicode="&#x2013;" horiz-adv-x="1114" 
d="M102 420v192h910v-192h-910z" />
    <glyph glyph-name="emdash" unicode="&#x2014;" horiz-adv-x="1810" 
d="M102 420v192h1606v-192h-1606z" />
    <glyph glyph-name="quoteleft" unicode="&#x2018;" horiz-adv-x="440" 
d="M47 1225q0 72 33 131t84.5 105.5t113.5 79.5t119 54l11 -22q-41 -15 -84.5 -45t-80.5 -68t-62 -81t-29 -83h81q51 0 84.5 -17t54 -41.5t28.5 -52.5t8 -50q0 -21 -9.5 -48t-29 -51t-50 -40.5t-71.5 -16.5q-59 0 -97.5 21t-61.5 55.5t-32.5 79t-9.5 90.5z" />
    <glyph glyph-name="quoteright" unicode="&#x2019;" horiz-adv-x="440" 
d="M57 997q41 15 84.5 45t80.5 68t62 81t29 83h-82q-51 0 -84.5 17t-53.5 41.5t-28 52.5t-8 51q0 21 9.5 47.5t29 50.5t49.5 40.5t72 16.5q58 0 97 -21t62 -55.5t32.5 -78.5t9.5 -90q0 -72 -33 -131.5t-84.5 -106t-113.5 -79.5t-119 -54z" />
    <glyph glyph-name="quotesinglbase" unicode="&#x201a;" horiz-adv-x="481" 
d="M47 133q0 21 9.5 48t29 51t49.5 40.5t72 16.5q58 0 96.5 -21t62 -55.5t33 -79t9.5 -90.5q0 -72 -33 -131.5t-84.5 -105.5t-113.5 -79.5t-120 -54.5l-10 23q41 15 84.5 45t80.5 68t62 80.5t29 82.5h-82q-51 0 -84.5 17t-53.5 42t-28 53t-8 50z" />
    <glyph glyph-name="quotedblleft" unicode="&#x201c;" horiz-adv-x="854" 
d="M47 1225q0 72 33 131t84.5 105.5t113.5 79.5t119 54l11 -22q-41 -15 -84.5 -45t-80.5 -68t-62 -81t-29 -83h81q51 0 84.5 -17t54 -41.5t28.5 -52.5t8 -50q0 -21 -9.5 -48t-29 -51t-50 -40.5t-71.5 -16.5q-59 0 -97.5 21t-61.5 55.5t-32.5 79t-9.5 90.5zM461 1225
q0 72 33 131t84 105.5t113 79.5t120 54l10 -22q-41 -15 -84.5 -45t-80.5 -68t-62 -81t-29 -83h82q51 0 84.5 -17t53.5 -41.5t28 -52.5t8 -50q0 -21 -9.5 -48t-29 -51t-49.5 -40.5t-71 -16.5q-59 0 -97.5 21t-61.5 55.5t-32.5 79t-9.5 90.5z" />
    <glyph glyph-name="quotedblright" unicode="&#x201d;" horiz-adv-x="854" 
d="M57 997q41 15 84.5 45t80.5 68t62 81t29 83h-82q-51 0 -84.5 17t-53.5 41.5t-28 52.5t-8 51q0 21 9.5 47.5t29 50.5t49.5 40.5t72 16.5q58 0 97 -21t62 -55.5t32.5 -78.5t9.5 -90q0 -72 -33 -131.5t-84.5 -106t-113.5 -79.5t-119 -54zM471 997q41 15 84.5 45t80.5 68
t62 81t29 83h-82q-51 0 -84.5 17t-53.5 41.5t-28 52.5t-8 51q0 21 9.5 47.5t29 50.5t49.5 40.5t72 16.5q58 0 96.5 -21t61.5 -55.5t32.5 -78.5t9.5 -90q0 -72 -33 -131.5t-84 -106t-113 -79.5t-120 -54z" />
    <glyph glyph-name="quotedblbase" unicode="&#x201e;" horiz-adv-x="895" 
d="M47 133q0 21 9.5 48t29 51t49.5 40.5t72 16.5q58 0 96.5 -21t62 -55.5t33 -79t9.5 -90.5q0 -72 -33 -131.5t-84.5 -105.5t-113.5 -79.5t-120 -54.5l-10 23q41 15 84.5 45t80.5 68t62 80.5t29 82.5h-82q-51 0 -84.5 17t-53.5 42t-28 53t-8 50zM461 133q0 21 9.5 48t29 51
t49.5 40.5t72 16.5q58 0 96.5 -21t61.5 -55.5t32.5 -79t9.5 -90.5q0 -72 -33 -131.5t-84 -105.5t-113 -79.5t-120 -54.5l-10 23q40 15 84 45t81 68t62 80.5t29 82.5h-82q-51 0 -84.5 17t-53.5 42t-28 53t-8 50z" />
    <glyph glyph-name="dagger" unicode="&#x2020;" horiz-adv-x="870" 
d="M61 1040q0 31 21 54.5t53 23.5q28 0 50.5 -20t31.5 -58q12 5 26 13.5t30 16.5t32.5 14t32.5 6q20 0 43.5 -7.5t40.5 -25.5q-5 34 -18 70t-26.5 71t-23.5 69t-10 66q0 19 5.5 38t16.5 34t28 24t40 9t40 -9t27.5 -24t15.5 -34t5 -38q0 -32 -10 -65.5t-23 -68.5t-26 -71
t-19 -71q19 17 41 25t43 8q16 0 33 -5.5t33.5 -13.5t31 -16t25.5 -13q10 36 33.5 56t52.5 20q32 0 52 -23.5t20 -54.5q0 -52 -32.5 -81t-82.5 -29q-19 0 -35 9t-29.5 22.5t-24.5 29.5t-21 29q-11 15 -22 31t-23 16q-14 0 -18.5 -14.5t-6.5 -46.5q-6 -58 -13 -126t-14 -141
t-13.5 -147.5t-12.5 -145t-11 -134.5t-8 -115h-16q-5 88 -13 192.5t-18 212.5t-21 212t-20 192q-1 9 -2.5 19.5t-4.5 20t-7.5 15.5t-11.5 6q-10 0 -19.5 -14t-21.5 -31q-10 -13 -22 -29t-26 -30t-30.5 -23.5t-36.5 -9.5q-48 0 -79.5 29t-31.5 81z" />
    <glyph glyph-name="daggerdbl" unicode="&#x2021;" horiz-adv-x="870" 
d="M78 1167q0 31 20.5 55.5t51.5 24.5q30 0 52 -20.5t31 -59.5q16 5 35.5 12t48.5 7q12 0 27 -4t30 -9.5t28.5 -12.5t21.5 -13q-4 21 -16.5 42t-26 43.5t-24.5 47.5t-11 55q0 18 6 35t17.5 30.5t27.5 21.5t37 8t37 -8t27.5 -21.5t17.5 -30.5t6 -35q0 -30 -11 -56t-25 -49
t-27 -43.5t-17 -39.5q8 7 21.5 14t29 12.5t31 9t27.5 3.5q35 0 52.5 -7t33.5 -14q8 39 30 60.5t54 21.5q31 0 50.5 -24.5t19.5 -55.5q0 -37 -23 -63.5t-68 -26.5q-28 0 -46 13.5t-33 30t-30 30.5t-36 14q-19 0 -28 -21.5t-17 -53.5q-4 -19 -13 -60.5t-19.5 -91t-20 -100
t-15.5 -86.5h-16q-5 35 -15 86t-20.5 101t-20 92t-12.5 59q-9 32 -18.5 53.5t-26.5 21.5q-22 0 -37 -14t-29 -30.5t-31.5 -30t-45.5 -13.5q-46 0 -69 26.5t-23 63.5zM80 272q0 38 22 64t68 26q28 0 45.5 -14t32.5 -30.5t30 -30t37 -13.5q19 0 27.5 22t17.5 54q4 18 13 60
t19.5 91.5t19.5 100t14 86.5h16q6 -35 16.5 -86t21 -101.5t19.5 -92t13 -58.5q8 -32 17 -54t28 -22q22 0 36.5 13.5t28.5 30t31.5 30.5t44.5 14q47 0 71 -26t24 -64q0 -31 -21 -55t-53 -24q-63 0 -82 79q-16 -5 -35.5 -11.5t-48.5 -6.5q-12 0 -27.5 3.5t-31 9.5t-29 13
t-21.5 13q5 -21 18 -42t27 -43.5t24.5 -48t10.5 -55.5q0 -18 -6 -34.5t-17 -30t-27.5 -21.5t-37.5 -8t-37 8t-27.5 21.5t-17.5 30t-6 34.5q0 30 11 56t24.5 49.5t26 44t16.5 39.5q-7 -7 -20 -14t-28.5 -12.5t-31 -9t-27.5 -3.5q-35 0 -52.5 7t-33.5 13q-8 -38 -30.5 -59.5
t-52.5 -21.5q-31 0 -50.5 24t-19.5 55z" />
    <glyph glyph-name="bullet" unicode="&#x2022;" horiz-adv-x="813" 
d="M143 666q0 57 22 107.5t60.5 88.5t89 60t107.5 22t107.5 -22t88.5 -60t60 -88.5t22 -107.5t-22 -107t-60 -87.5t-88.5 -59t-107.5 -21.5t-107.5 21.5t-89 59t-60.5 87.5t-22 107z" />
    <glyph glyph-name="ellipsis" unicode="&#x2026;" horiz-adv-x="1653" 
d="M92 154q0 38 14.5 71t40 57t58.5 38t71 14t71.5 -14t59 -38t40 -57t14.5 -71q0 -39 -14.5 -72t-40 -57t-59 -38t-71.5 -14t-71 14t-58.5 38t-40 57t-14.5 72zM643 154q0 38 14.5 71t40 57t58.5 38t71 14t71.5 -14t59 -38t40 -57t14.5 -71q0 -39 -14.5 -72t-40 -57
t-59 -38t-71.5 -14t-71 14t-58.5 38t-40 57t-14.5 72zM1194 154q0 38 14.5 71t40 57t58.5 38t71 14t71.5 -14t59 -38t40 -57t14.5 -71q0 -39 -14.5 -72t-40 -57t-59 -38t-71.5 -14t-71 14t-58.5 38t-40 57t-14.5 72z" />
    <glyph glyph-name="perthousand" unicode="&#x2030;" horiz-adv-x="2613" 
d="M92 920q0 76 29.5 141t79.5 111.5t115 73t137 26.5q76 0 143 -21t117.5 -64t80 -109t29.5 -156q0 -72 -29.5 -134t-80 -108.5t-117.5 -73t-143 -26.5q-77 0 -143 22t-114.5 65t-76 106.5t-27.5 146.5zM303 928q0 -67 7.5 -126t25.5 -103.5t48 -70.5t75 -26q34 0 62 23.5
t47 65.5t29.5 100t10.5 127q0 72 -8 132.5t-26.5 105t-47.5 69t-71 24.5t-71 -26t-47 -70t-26 -102.5t-8 -122.5zM424 -174l874 1585l52 -25l-881 -1583zM954 311q0 76 30 140.5t80.5 112t116 74t136.5 26.5q75 0 142.5 -21t118.5 -64t80.5 -109t29.5 -157q0 -71 -29.5 -133
t-80 -108t-118 -72.5t-143.5 -26.5q-77 0 -143.5 21.5t-115 64.5t-76.5 106t-28 146zM1167 319q0 -66 7.5 -125t25.5 -103.5t48 -70.5t75 -26q34 0 61.5 23.5t47 65.5t30.5 100t11 126q0 72 -8.5 132.5t-27 105t-47.5 69.5t-71 25t-71 -26.5t-47 -71t-26 -102.5t-8 -122z
M1788 311q0 76 30 140.5t79.5 112t114.5 74t136 26.5q76 0 144 -21t119 -64t80.5 -109t29.5 -157q0 -71 -29.5 -133t-80 -108t-118.5 -72.5t-145 -26.5t-142.5 21.5t-114 64.5t-76 106t-27.5 146zM2001 319q0 -66 7.5 -125t25.5 -103.5t48 -70.5t75 -26q34 0 61.5 23.5
t47 65.5t30 100t10.5 126q0 72 -8.5 132.5t-27 105t-47.5 69.5t-71 25t-71 -26.5t-46.5 -71t-25.5 -102.5t-8 -122z" />
    <glyph glyph-name="guilsinglleft" unicode="&#x2039;" horiz-adv-x="721" 
d="M86 459q0 19 2 31.5t7.5 22.5t14 18t21.5 18l475 336l10 -11l-276 -417l276 -416l-10 -8q-60 41 -125.5 87.5t-128.5 91.5l-119 85t-96 68q-15 10 -25 18.5t-16 18t-8 23t-2 34.5z" />
    <glyph glyph-name="guilsinglright" unicode="&#x203a;" horiz-adv-x="721" 
d="M102 41l279 416l-279 417l13 11q57 -42 125.5 -90t134 -94.5t122 -86.5t91.5 -65q14 -10 23 -18t14.5 -18t7.5 -22.5t2 -31.5q0 -21 -2 -34.5t-8 -23t-16 -18t-25 -18.5q-40 -28 -96 -68l-119 -85t-128.5 -91.5t-125.5 -87.5z" />
    <glyph glyph-name="fraction" unicode="&#x2044;" horiz-adv-x="668" 
d="M-250 -391l1034 1929l54 -27l-1039 -1929z" />
    <glyph glyph-name="Euro" unicode="&#x20ac;" horiz-adv-x="1235" 
d="M49 489v35h150q-3 41 -2.5 81t2.5 77h-150v37h156q15 114 64.5 214.5t128 175.5t185 118t236.5 43q83 0 152 -20t118.5 -55.5t77 -85t27.5 -108.5q0 -46 -11 -77.5t-29 -51t-40.5 -28t-44.5 -8.5q-59 0 -92 33t-33 81q0 28 12 52t27 46t27 44t12 45q-4 21 -21 41.5
t-44 36t-62.5 25t-77.5 9.5q-68 0 -119 -36t-87.5 -104.5t-58 -167t-30.5 -222.5h426v-37h-428v-41.5v-42.5t0.5 -40t1.5 -34h373v-35h-371q6 -90 28.5 -169.5t62 -139t96.5 -93.5t131 -34q61 0 111 18t91 50.5t74.5 78.5t61.5 103l18 -10q-30 -66 -68.5 -124.5
t-91.5 -102.5t-123 -69.5t-163 -25.5q-111 0 -205.5 33.5t-166.5 99t-118 162.5t-61 223h-152z" />
    <glyph glyph-name="uni2117" unicode="&#x2117;" horiz-adv-x="1946" 
d="M80 514q0 121 31.5 233t89.5 210t139.5 178.5t181 138.5t214 89.5t239.5 31.5q123 0 237 -31.5t213 -89.5t180.5 -138.5t139 -178.5t89.5 -210t32 -233q0 -122 -32 -235t-89.5 -211t-139 -179t-180.5 -139t-213 -89.5t-237 -31.5q-124 0 -238.5 31.5t-214 89.5t-181 139
t-139.5 179t-90 211t-32 235zM158 514q0 -114 29 -219.5t82 -197.5t127 -167t165 -128.5t195.5 -83t218.5 -29.5q113 0 217 29.5t194.5 83t164.5 128.5t126.5 167t81.5 197.5t29 219.5q0 113 -29 217.5t-81.5 195.5t-126.5 165.5t-164.5 128t-194.5 83t-217 29.5
q-114 0 -218.5 -29.5t-195.5 -83t-165 -128t-127 -165.5t-82 -195.5t-29 -217.5zM567 965v14h545q77 0 138 -16t103 -45.5t64.5 -71.5t22.5 -94q0 -72 -29 -127.5t-80.5 -93t-123 -57t-156.5 -19.5h-93v-308q0 -18 9.5 -35.5t33.5 -25.5q7 -2 25.5 -5.5t40.5 -6.5t45 -5
t39 -3v-15h-578v15q12 1 30.5 3t36.5 5t33.5 6.5t22.5 5.5q28 9 37.5 26t9.5 35v730q0 18 -9.5 36.5t-37.5 26.5q-15 4 -32 7.5t-34.5 6.5t-34 5.5t-28.5 5.5zM958 475h46q57 0 94.5 22t60 57t32 78t9.5 85t-8.5 85t-28.5 77.5t-52.5 56.5t-80.5 22h-72v-483z" />
    <glyph glyph-name="trademark" unicode="&#x2122;" horiz-adv-x="1399" 
d="M66 1247v152h507v-152h-14q-4 12 -11.5 32.5t-18 41t-22.5 36t-24 17.5q-14 2 -34 2h-35h-29v-430q0 -24 23 -35l65 -12v-12h-307v12q5 1 14.5 1.5t19.5 2t19 3t14 3.5q25 9 25 33v434h-31h-33.5t-35.5 -2q-12 -2 -25 -17.5t-23.5 -36t-18.5 -41t-11 -32.5h-14zM600 887
v12q4 1 14 2t21.5 3.5t22.5 5.5t18 8q24 18 24 100v282q0 25 -5.5 39t-16.5 23q-16 9 -37 15.5t-35 6.5v15h221l156 -379l129 311q8 17 11 35.5t5 32.5h228v-15q-5 0 -13.5 -1.5t-18 -3t-18 -4t-14.5 -3.5q-20 -9 -20 -35v-389q0 -25 20 -35q4 -2 13 -4.5t18.5 -4l19 -3
t15.5 -2.5v-12h-307v12q4 1 15 2t23 2.5t22.5 3.5t14.5 4q11 7 16 15t5 22v371h-12l-181 -426h-51l-39 106l-125 310h-12v-285q0 -43 7 -67t18 -33q5 -5 16.5 -9t24 -7.5t23 -5.5t15.5 -3v-12h-231z" />
    <glyph glyph-name="minus" unicode="&#x2212;" horiz-adv-x="1159" 
d="M94 483v99h971v-99h-971z" />
    <glyph glyph-name="lessequal" unicode="&#x2264;" horiz-adv-x="1159" 
d="M106 0v94h945v-94h-945zM123 594v84l905 412v-107l-772 -348l772 -348v-105z" />
    <glyph glyph-name="greaterequal" unicode="&#x2265;" horiz-adv-x="1159" 
d="M106 0v94h945v-94h-945zM129 182v105l774 348l-774 348v107l905 -412v-84z" />
    <glyph glyph-name="uniE000" unicode="&#xe000;" horiz-adv-x="945" 
d="M0 0v945h945v-945h-945z" />
    <glyph glyph-name="uniF8FF" unicode="&#xf8ff;" horiz-adv-x="1262" 
d="M57 793q0 31 12 59.5t33 50.5t49.5 34.5t61.5 12.5q28 0 49.5 -7.5t38.5 -19.5t29 -27.5t20 -31.5q9 -18 15 -38.5t14 -42.5t19.5 -44t29.5 -41l31 2q28 29 64.5 45.5t76.5 16.5l23 14q0 41 -11 71t-24 55.5t-24 50.5t-11 57q0 34 12.5 61.5t34 47t49.5 30t60 10.5
q34 0 61.5 -12.5t47.5 -34t31 -49.5t11 -59q0 -33 -9 -55.5t-24 -39t-34 -30t-39 -29t-39.5 -35.5t-34.5 -49l8 -25q35 -18 61 -48t37 -70l25 -13q28 10 49 25t37.5 31t32 31.5t33 28t39 20.5t51.5 8q31 0 58 -12.5t47 -33.5t32 -50t12 -62q0 -32 -12 -60t-32.5 -48.5
t-48.5 -32t-60 -11.5q-36 0 -62 13.5t-51 31t-54 34.5t-71 24l-18 -17q-7 -37 -28 -68t-52 -54l-2 -21q24 -32 52 -49t56 -31q23 -11 43.5 -25.5t36 -33.5t24.5 -43t9 -53q0 -31 -12.5 -59t-34.5 -49.5t-51 -34.5t-62 -13q-31 0 -59 11.5t-49 32t-33.5 49t-12.5 61.5
q0 24 6 45t12.5 43t12.5 47t6 57v23l-14 10q-11 -2 -20.5 -2h-20.5q-32 0 -61 10t-54 27l-26 -2q-22 -32 -30 -64t-13 -61q-6 -33 -17 -63.5t-30 -54.5t-47 -38t-66 -14q-31 0 -59.5 12t-50.5 33t-35 49.5t-13 62.5q0 33 13 61t36 49t54 32.5t67 11.5h30t36.5 2t41 7.5
t44.5 17.5l6 28q-9 20 -14.5 42.5t-5.5 45.5q0 27 6 51l-11 27q-14 5 -27.5 5.5t-27.5 0.5q-21 0 -38.5 -2t-33 -5t-30 -5t-29.5 -2q-34 0 -63 12.5t-50 34t-33 49.5t-12 60zM463 569q0 -30 10.5 -56t29 -45.5t43.5 -30.5t54 -11q30 0 55 11t43.5 30.5t28.5 45.5t10 56
q0 29 -10 54.5t-28.5 44.5t-43.5 30t-55 11q-29 0 -54 -11t-43.5 -30t-29 -44.5t-10.5 -54.5z" />
    <glyph glyph-name="glyph242" horiz-adv-x="811" 
d="M92 926q0 66 22.5 128t66.5 110t108.5 77t148.5 29q85 0 144.5 -25t96 -67t53 -96.5t16.5 -112.5v-19h-467q1 -70 14.5 -127t42 -98t73 -63.5t107.5 -22.5q31 0 63.5 8t62 24t55.5 39t44 52l15 -10q-23 -38 -53.5 -71.5t-68.5 -58t-84 -39t-99 -14.5q-95 0 -163 28.5
t-112 77t-65 113.5t-21 138zM283 971l276 2q0 45 -4.5 94t-17.5 90.5t-37.5 68.5t-63.5 27q-40 0 -67.5 -24t-45.5 -64t-27.5 -90.5t-12.5 -103.5z" />
    <glyph glyph-name="R.salt" horiz-adv-x="1497" 
d="M25 0v14q13 1 36 3t46 4.5t43.5 6t29.5 7.5q37 14 49.5 39.5t12.5 60.5v1122q0 35 -12 61t-50 42q-15 6 -36 10t-43.5 6.5t-42.5 4t-33 3.5v15h751q120 0 217.5 -19t166 -58t106 -99.5t37.5 -143.5q0 -84 -31 -145.5t-84.5 -105.5t-124.5 -72t-152 -45v-15
q69 -8 120.5 -24t90 -45.5t68 -74.5t55.5 -110q12 -31 26 -75.5t27 -88t22.5 -79.5t14.5 -49q12 -37 28 -59.5t32.5 -35t33 -18t31.5 -8.5q31 -7 63 -10t60 -5v-14h-571q-12 56 -24.5 106.5t-27 99.5t-31 98t-34.5 102q-24 67 -45 118.5t-47.5 86t-62.5 52t-91 17.5h-65
v-545q0 -34 13.5 -59.5t47.5 -40.5q9 -4 27.5 -7t39.5 -5.5t41.5 -5t34.5 -3.5v-14h-763zM584 709h32q68 0 126 18.5t101 58.5t67 104t24 154q0 156 -71 242t-212 86h-67v-663z" />
    <glyph glyph-name="ampersand.salt" horiz-adv-x="1794" 
d="M94 432q0 64 20.5 114t54.5 89t78.5 69.5t92.5 55.5q-29 19 -58.5 43t-54 56t-40 73.5t-15.5 95.5q0 57 24 109t68 91.5t106 63t138 23.5q78 0 135.5 -22t98.5 -59.5t67 -88t41 -107.5l-12 -6q-38 54 -105.5 91.5t-157.5 37.5q-63 0 -110.5 -21.5t-78.5 -55t-46.5 -76
t-15.5 -84.5q0 -48 10.5 -87.5t30.5 -62.5q54 28 113.5 49t115.5 21q74 0 112.5 -29.5t38.5 -77.5q0 -20 -7 -38.5t-20.5 -32.5t-35 -22.5t-49.5 -8.5q-44 0 -83 12t-73.5 29t-64 36t-54.5 33q-8 -8 -18.5 -22.5t-20 -35t-16 -46.5t-6.5 -57q0 -81 42 -150t121.5 -119
t194 -78t258.5 -26q150 1 264 35t191.5 91t116.5 130.5t39 153.5q0 69 -28.5 121.5t-75 88.5t-106 54t-122.5 18q-50 0 -94.5 -14.5t-77.5 -41t-52.5 -63.5t-19.5 -82q0 -47 16 -82t42 -58.5t59.5 -35.5t69.5 -12q38 0 70 12t50 37q-32 4 -62.5 11.5t-55 21t-39.5 34
t-15 50.5q0 34 12 56.5t30 36.5t38.5 20t36.5 6q25 0 51 -8t47 -24.5t34.5 -42.5t13.5 -62t-13 -67.5t-38 -55t-61 -37t-81 -13.5q-54 0 -103.5 16.5t-88 50t-61.5 83t-23 115.5q0 94 34 156.5t87 100.5t118.5 54t128.5 16q21 0 52.5 -1.5t64.5 -3.5t63 -3.5t48 -1.5
q48 0 85.5 16t63 41.5t38.5 58t13 66.5q0 32 -12 62t-34 53t-53 37t-69 14q-22 0 -40 -6.5t-31 -16t-20 -20t-7 -18.5q21 -6 43.5 -14t41 -20t30.5 -29.5t12 -41.5q0 -58 -31 -84t-76 -26q-25 0 -49.5 7.5t-44 24.5t-31.5 43t-12 64q0 32 14 61t41 50.5t66 34t88 12.5
q55 0 99 -18t74.5 -50t47 -76.5t15.5 -97.5q0 -155 -99.5 -229.5t-283.5 -69.5q43 -15 83 -41.5t71 -66t50 -92t19 -119.5q0 -66 -21 -137.5t-64.5 -140t-110.5 -129.5t-158.5 -107.5t-209 -73.5t-261.5 -27q-138 0 -258 34t-208.5 95.5t-139 147.5t-50.5 190z" />
    <glyph glyph-name="glyph246" horiz-adv-x="0" 
 />
    </font>
</defs>
</svg>
